<svg width="131" height="100" viewBox="0 0 131 100" fill="none" xmlns="http://www.w3.org/2000/svg">
<path d="M113.55 11.8617C113.685 11.8281 113.812 11.8482 113.906 11.7141C114.02 11.5532 114.175 11.466 114.45 11.5196C114.598 11.6672 114.8 11.8348 114.961 12.0427C115.068 12.1835 115.256 12.1165 115.364 12.2573C115.404 12.3177 115.558 12.2976 115.659 12.311C115.74 12.3177 115.82 12.3043 115.901 12.311C116.029 12.3244 116.17 12.2506 116.277 12.378C116.398 12.5122 116.6 12.5054 116.727 12.6597C116.989 12.9615 117.291 13.2364 117.573 13.5181V13.84C117.728 14.0143 117.929 13.8936 118.104 13.9272C118.144 13.954 118.191 13.9808 118.225 14.0143C118.339 14.1283 118.44 14.2625 118.574 14.3496C118.722 14.4435 118.903 14.4838 119.018 14.638C119.112 14.7654 119.232 14.8727 119.36 14.98C119.414 15.027 119.515 15.0136 119.568 15.0605C119.763 15.2281 120.038 15.2684 120.2 15.4964C120.368 15.7378 120.703 15.7579 120.878 16.0061C120.898 16.0329 120.979 16.0329 121.026 16.0195C121.227 15.9725 121.375 16.1134 121.409 16.2408C121.462 16.4353 121.617 16.5358 121.697 16.6834C121.791 16.8712 121.879 17.0522 122.047 17.1796C122.188 17.2869 122.262 17.4948 122.49 17.468C122.725 17.7765 123.128 17.9374 123.242 18.3599C123.289 18.541 123.511 18.5812 123.706 18.655V19.1714C123.907 19.2854 124.095 19.2116 124.283 19.2451C124.397 19.4396 124.686 19.5067 124.686 19.8018C124.686 19.8755 124.827 20.0163 124.901 20.0163C125.109 20.0231 125.109 20.1639 125.19 20.2913C125.298 20.459 125.345 20.6601 125.512 20.8077C125.687 20.9619 125.895 21.096 125.962 21.3375C126.03 21.5588 126.318 21.6459 126.312 21.9142C126.48 22.0818 126.688 22.2294 126.607 22.5177C126.607 22.5312 126.641 22.5714 126.654 22.5714C126.889 22.5647 126.896 22.7726 126.99 22.9C127.098 23.0475 127.252 23.1682 127.386 23.3024C127.339 23.5036 127.588 23.584 127.588 23.7852C127.588 23.859 127.709 23.9462 127.789 24.0132C127.883 24.087 127.917 24.1742 127.897 24.2882C127.877 24.4089 127.924 24.4894 128.011 24.5631C128.132 24.6637 128.192 24.7978 128.253 24.9454C128.3 25.0594 128.401 25.1533 128.374 25.2941C128.354 25.4215 128.454 25.4752 128.521 25.5556C128.582 25.6361 128.656 25.6965 128.71 25.7971C128.904 26.2061 128.918 26.1994 128.474 26.4543C128.38 26.5079 128.34 26.642 128.407 26.7158C128.474 26.7963 128.548 26.8902 128.642 26.9237C128.736 26.9572 128.851 26.9304 128.992 26.9304C129.052 27.1651 128.965 27.42 129.039 27.6278C129.092 27.7754 129.207 27.8626 129.025 27.9833C129.052 28.1107 128.965 28.2515 129.086 28.3588C129.126 28.3924 129.186 28.446 129.18 28.4728C129.106 28.7679 129.314 28.9087 129.509 29.0898C129.509 29.3849 129.509 29.7068 129.509 30.0219C129.509 30.1292 129.542 30.2097 129.589 30.3103C129.73 30.5987 129.683 30.9139 129.63 31.2224C129.368 31.437 129.61 31.732 129.482 31.96C129.663 32.1344 129.818 32.2819 129.979 32.4295C129.979 32.5032 130.006 32.5837 129.992 32.6575C129.972 32.8587 130.026 33.0129 130.187 33.1403C130.362 33.2744 130.375 33.4756 130.268 33.6232C130.12 33.8243 130.107 33.992 130.268 34.1798C130.355 34.2804 130.301 34.4279 130.436 34.5151C130.53 34.5821 130.503 34.6961 130.409 34.7833C130.328 34.8571 130.234 34.9242 130.187 35.0113C130.147 35.0985 130.154 35.2192 130.16 35.3198C130.167 35.4003 130.268 35.407 130.328 35.4405C130.503 35.5478 130.657 35.6954 130.798 35.8094V36.1782C130.731 36.1983 130.644 36.1916 130.59 36.2319C130.442 36.3459 130.315 36.48 130.187 36.594C130.1 36.822 130.248 37.0634 130.019 37.2713C129.892 37.392 130.026 37.6938 130.214 37.8011C130.268 37.8346 130.375 37.8279 130.422 37.8011C130.51 37.7475 130.577 37.6603 130.637 37.5731C130.677 37.5127 130.677 37.4323 130.698 37.3451C130.892 37.506 130.771 37.7072 130.805 37.8749C130.543 38.1364 130.671 38.465 130.644 38.7735C130.644 38.854 130.644 38.9344 130.644 39.0149C130.637 39.1423 130.624 39.2698 130.61 39.4039C130.382 39.5112 130.57 39.766 130.436 39.8934C130.315 40.0007 130.315 40.1214 130.328 40.2489C130.335 40.3494 130.288 40.3897 130.201 40.4165C129.979 40.4702 129.824 40.5842 129.838 40.839C129.838 40.9061 129.811 40.9932 129.764 41.0469C129.596 41.2548 129.636 41.4291 129.818 41.6035C129.845 41.6303 129.838 41.7041 129.845 41.7779C129.657 41.9388 129.448 42.1132 129.18 42.3479C129.113 42.3479 128.924 42.3479 128.736 42.3479C128.575 42.3479 128.407 42.5289 128.394 42.7033C128.38 42.8777 128.454 43.0856 128.253 43.2063C128.28 43.2465 128.3 43.28 128.327 43.3203C128.434 43.5215 128.434 43.5818 128.28 43.6221C128.165 43.6489 128.092 43.6958 128.018 43.7629C127.87 43.9037 127.87 43.9171 128.031 44.1518C128.045 44.1653 128.045 44.1921 128.058 44.2189C127.803 44.3866 127.682 44.7286 127.326 44.7822C127.299 44.7822 127.286 44.8694 127.265 44.9163C127.165 45.2248 126.883 45.4595 126.923 45.8217C126.755 45.9491 126.755 46.1838 126.587 46.3313C126.339 46.5392 126.13 46.7807 125.895 47.0087H125.096C124.955 47.1026 125.015 47.2501 125.009 47.3708C125.002 47.5519 125.009 47.7396 125.009 47.9073C124.888 48.0079 124.727 47.9542 124.646 48.0884C124.592 48.1755 124.478 48.2292 124.424 48.3231C124.33 48.4773 124.129 48.417 124.028 48.5444C123.927 48.6718 123.78 48.598 123.659 48.6181C123.585 48.6316 123.511 48.6316 123.43 48.645C123.41 48.8931 123.383 49.1278 123.155 49.2686C123.047 49.6107 122.759 49.8118 122.53 50.0533C122.416 50.0935 122.335 50.0533 122.248 49.9728C122.174 49.9124 122.067 49.8923 121.98 49.8521C121.912 49.8186 121.852 49.7649 121.778 49.7515C121.738 49.7448 121.691 49.785 121.644 49.8118C121.644 49.8118 121.65 49.8521 121.664 49.8655C121.751 49.9326 121.838 50.0399 121.778 50.1337C121.697 50.2544 121.61 50.4154 121.415 50.3886C121.214 50.3618 121.127 50.4355 121.12 50.6434C121.12 50.7038 121.012 50.7574 120.959 50.8111C120.878 50.8915 120.811 50.8915 120.683 50.8111C120.381 50.63 120.347 50.6501 120.334 50.9988C120.334 51.0793 120.334 51.1598 120.334 51.2403C120.159 51.4683 119.951 51.6493 119.676 51.7633C119.494 51.8371 119.501 51.8505 119.286 51.6694C119.145 51.8036 119.179 52.0651 118.944 52.1322C118.85 52.0383 118.756 51.9377 118.655 51.8505C118.581 51.7902 118.4 51.8505 118.393 51.9243C118.393 52.0048 118.386 52.0852 118.393 52.1657C118.42 52.4138 118.306 52.5681 118.07 52.6284C117.903 52.6687 117.822 52.7894 117.748 52.9302C117.634 53.1515 117.627 53.1448 117.432 53.0375C117.211 52.9168 117.191 52.9101 117.05 53.0979C116.976 53.1918 116.935 53.3192 116.868 53.4399C116.767 53.4399 116.653 53.4667 116.559 53.4399C116.297 53.346 116.136 53.6209 115.901 53.6075C115.733 53.8691 115.572 53.7618 115.384 53.6075C115.297 53.5338 115.169 53.5136 115.061 53.4734C114.994 53.574 114.826 53.6209 114.853 53.7819C114.894 54.0032 114.746 54.1172 114.598 54.2446C114.477 54.2446 114.336 54.2312 114.208 54.2446C114.054 54.258 113.899 54.191 113.745 54.2916C113.55 54.419 113.329 54.4995 113.181 54.7073H112.341C112.267 54.6336 112.16 54.5129 112.039 54.4123C111.958 54.3452 111.804 54.4123 111.79 54.5129C111.777 54.6135 111.79 54.7208 111.79 54.8079C111.623 54.9286 111.461 54.8549 111.273 54.8817C111.26 54.8817 111.293 54.8884 111.307 54.8817C111.32 54.8683 111.32 54.8281 111.307 54.8146C111.267 54.761 111.226 54.6939 111.166 54.7945C111.159 54.8079 111.213 54.8549 111.273 54.8884C111.34 55.0963 111.26 55.2438 110.984 55.378H110.387C110.346 55.7133 110.071 55.787 109.856 55.834C109.574 55.8943 109.272 55.8474 108.976 55.8474C108.869 55.7401 108.755 55.6395 108.647 55.5322C108.58 55.5859 108.52 55.673 108.459 55.6797C108.284 55.6797 108.211 55.7535 108.244 55.9145C108.284 56.1156 108.13 56.1961 108.022 56.3034C107.996 56.3302 107.922 56.3369 107.875 56.3302C107.754 56.3034 107.687 56.1089 107.546 56.176C107.431 56.2296 107.351 56.3504 107.25 56.4308C107.216 56.4577 107.156 56.4912 107.116 56.4845C106.948 56.4644 106.834 56.5515 106.693 56.632C106.572 56.6991 106.384 56.6454 106.229 56.6454C106.189 56.6052 106.149 56.565 106.115 56.5314C105.999 56.4018 106.01 56.2542 106.149 56.0888C106.149 56.0888 106.115 56.0352 106.102 56.0352C105.813 56.0352 105.531 56.0352 105.242 56.0352C105.141 56.1156 105.208 56.2296 105.188 56.3302C104.899 56.2967 104.758 56.4375 104.698 56.7125C104.678 56.8064 104.503 56.8533 104.443 56.7997C104.328 56.6857 104.201 56.5851 104.107 56.4577C103.986 56.29 103.825 56.3436 103.663 56.3369C103.469 56.5448 103.267 56.7527 103.093 56.9405C102.703 57.0478 102.387 56.9807 102.045 56.7728C101.837 57.021 101.635 57.2691 101.474 57.4703C101.232 57.4569 101.078 57.5038 100.95 57.3429C100.849 57.2222 100.641 57.3831 100.52 57.2289C100.399 57.0746 100.238 57.1484 100.09 57.1752C99.9761 57.3496 100.09 57.5373 100.016 57.7251C99.9895 57.7385 99.9492 57.7855 99.9022 57.7855C99.4723 57.7855 99.0424 57.7855 98.6193 57.7855C98.4581 57.7855 98.3036 57.7922 98.1894 57.6379C98.1693 57.6111 98.0282 57.6312 97.9812 57.6715C97.8939 57.7452 97.82 57.8056 97.7059 57.7855C97.5917 57.7654 97.5111 57.8056 97.4305 57.8928C97.2894 58.0403 97.1551 58.275 96.9267 57.98C96.9267 57.9732 96.8529 58.0068 96.8193 58.0269C96.6312 58.1543 96.423 58.1141 96.2215 58.0738C96.0536 57.7721 95.9394 58.2549 95.7782 58.1074C95.6103 58.2683 95.4357 58.436 95.2677 58.5969C95.1536 58.5835 95.0125 58.617 94.952 58.5567C94.7304 58.3488 94.5625 58.3823 94.3274 58.5567C94.1931 58.6573 93.9715 58.6237 93.8438 58.436C93.7968 58.3689 93.7363 58.322 93.6826 58.2683C93.5416 58.2683 93.4072 58.2683 93.2796 58.2683C93.2796 58.1409 93.2863 58.0135 93.2796 57.8861C93.2796 57.8525 93.2192 57.7922 93.1856 57.7922C93.1184 57.7922 93.0445 57.8123 92.9841 57.8525C92.9572 57.8727 92.9438 57.9531 92.964 57.9867C93.0378 58.1141 93.1184 58.2415 93.2796 58.2683C93.2528 58.3957 93.4005 58.4226 93.4274 58.5164C93.3736 58.5701 93.3199 58.6439 93.2528 58.6841C93.1923 58.7243 93.0781 58.7713 93.0446 58.7445C92.8968 58.617 92.7826 58.4963 92.5811 58.6975C92.514 58.7713 92.3326 58.731 92.205 58.7512C92.0774 58.7713 91.9498 58.7109 91.8289 58.8182C91.5871 59.0462 91.399 58.9121 91.2244 58.7109C91.0833 58.5433 90.9087 58.5567 90.7206 58.6305C90.7542 58.7914 90.9087 58.8518 90.996 58.9658C91.0564 59.0462 90.996 59.2206 90.9087 59.2206C90.6803 59.2273 90.4318 59.1669 90.2505 59.3815C90.0825 59.3681 89.8609 59.462 89.8676 59.1401C89.8676 59.0663 89.74 58.9523 89.646 58.9255C89.5318 58.8853 89.3907 58.8652 89.2765 58.9456C89.2631 58.9725 89.243 58.9993 89.2362 59.0194C89.2228 59.12 89.2497 59.2474 89.2027 59.3279C89.1556 59.395 89.0146 59.3882 88.9407 59.4553C88.8265 59.5492 88.7258 59.623 88.6049 59.4888C88.5243 59.395 88.4168 59.4218 88.3295 59.3748C88.175 59.2877 88.0944 58.9926 87.8997 59.0932C87.7049 59.1938 87.4631 59.2541 87.322 59.4553C87.2952 59.4955 87.2414 59.5224 87.2079 59.5559H86.0795C85.9855 59.4553 85.8847 59.3279 85.7503 59.4218C85.4817 59.6163 85.2332 59.6297 84.978 59.4151C84.7765 59.4687 84.6958 59.1938 84.4876 59.234C84.3869 59.2541 84.2929 59.2273 84.2324 59.3547C84.0309 59.7504 83.8227 59.851 83.4466 59.6431C83.2585 59.5425 83.1712 59.5626 83.0503 59.6967C82.9966 59.7571 82.9361 59.8107 82.8824 59.8644C82.6675 59.9314 82.3921 59.7705 82.2309 60.032C82.1033 60.0186 81.9689 60.0924 81.8547 59.9918C81.6667 59.8309 81.4853 59.8242 81.304 59.9918C81.2704 60.0253 81.21 60.0387 81.163 60.0387C81.0286 60.0387 80.9077 60.0454 80.807 60.1662C80.6861 60.307 80.545 60.4344 80.3704 60.6021C80.3704 60.6624 80.357 60.7697 80.3704 60.8703C80.4107 61.0983 80.2562 61.2056 80.1219 61.3196C80.0614 61.266 80.0077 61.1922 79.9405 61.1721C79.8801 61.1587 79.7458 61.1989 79.739 61.2392C79.7189 61.3599 79.6517 61.5275 79.7726 61.608C80.001 61.7689 80.0144 62.0707 80.2226 62.2317C80.3368 62.3188 80.3637 62.4328 80.3704 62.5737C80.3704 62.7749 80.6256 62.9157 80.5249 63.1504C80.6861 63.3114 80.7868 63.5394 81.0555 63.5796C81.1965 63.5997 81.1629 63.7338 81.1696 63.8344C81.1831 64.0088 81.1159 64.0759 80.9413 64.0624C80.9212 64.0624 80.8876 64.1228 80.8674 64.163C80.8674 64.1697 80.901 64.21 80.9211 64.2167C80.995 64.2435 81.0823 64.2368 81.1361 64.277C81.3711 64.4581 81.3779 64.5855 81.2301 64.8806C81.1965 64.9477 81.1495 65.0684 81.1696 65.0885C81.3107 65.1891 81.304 65.3634 81.3846 65.4842C81.66 65.4707 81.6734 65.6518 81.6465 65.8463C81.6197 66.0274 81.7473 66.1279 81.801 66.2688C81.8547 66.4096 81.7674 66.6242 81.848 66.7248C81.9622 66.8723 81.9421 67.0132 81.9824 67.1607C82.0159 67.2747 82.1436 67.3619 82.2309 67.4558C82.3047 67.5429 82.5868 67.7441 82.654 67.7575C82.7682 67.7777 82.8219 67.8917 82.7682 68.0057C82.5734 68.4349 82.5801 68.4349 82.7413 68.7702C82.8287 68.9512 82.8891 69.139 82.9764 69.3134C83.0301 69.4207 83.2451 69.2933 83.2719 69.5011C83.2854 69.6152 83.3996 69.7225 83.4197 69.8365C83.4399 69.9974 83.5809 70.0376 83.6548 70.1449C83.6682 70.1651 83.7018 70.1785 83.7085 70.2053C83.8026 70.6412 84.1518 70.9296 84.3466 71.3051C84.4138 71.4325 84.3063 71.4258 84.2794 71.4795C84.1988 71.627 84.2123 71.7209 84.3735 71.7611C84.622 71.8282 84.7227 71.9623 84.7227 72.2104C84.7227 72.2775 84.7563 72.3647 84.8033 72.4116C84.9175 72.539 84.8772 72.6262 84.7899 72.7469C84.6488 72.9481 84.6891 73.0219 84.9108 73.0487C85.0115 73.0621 85.1929 73.0286 85.1862 73.1292C85.1593 73.384 85.3474 73.3505 85.475 73.4108C85.5556 73.4511 85.5421 73.6321 85.4548 73.6791C85.4347 73.6925 85.4078 73.6925 85.3809 73.6925C85.2197 73.6791 85.0921 73.8266 85.0854 73.9071C85.072 74.0278 85.166 74.1753 85.2466 74.2894C85.2735 74.3296 85.4078 74.343 85.4548 74.3162C85.6093 74.2089 85.7369 74.0748 85.6899 73.8534C85.6832 73.8132 85.7235 73.7663 85.7437 73.7193C85.9653 73.8132 86.0257 73.9809 86.0123 74.2089C86.0123 74.3497 85.9653 74.4503 85.8847 74.5643C85.8309 74.6448 86.0459 74.732 86.0123 74.8795C85.9586 75.1075 86.1332 75.2014 86.2877 75.302C86.5832 75.2215 86.4086 75.6306 86.6235 75.6239C86.8183 75.6239 86.8855 75.7848 86.9929 75.8921C87.181 76.0665 87.181 76.1335 87.0466 76.4353C86.8787 76.8042 87.0198 77.0456 87.4161 77.0724C87.4967 77.0724 87.5773 77.0657 87.6579 77.0724C87.7653 77.0858 87.9467 77.3004 87.9399 77.4077C87.9265 77.5821 87.9937 77.7631 87.8258 77.9308C87.7318 78.018 87.7183 78.2259 87.8594 78.3533C87.9534 78.2594 88.0474 78.1655 88.1414 78.0716C88.1616 78.0716 88.1885 78.0448 88.2019 78.0515C88.343 78.1722 88.484 78.2929 88.5915 78.3868V78.9367C88.9072 79.1513 88.9743 79.5269 89.1691 79.8219C89.2833 79.9963 89.2027 80.1841 89.2295 80.3651C89.3773 80.5127 89.5318 80.6602 89.6796 80.801C89.693 80.8614 89.7198 80.915 89.7064 80.962C89.6392 81.2705 89.8542 81.4918 89.9684 81.7399C89.9952 81.8003 90.0758 81.8673 90.143 81.8874C90.2639 81.921 90.4654 81.8271 90.499 81.9746C90.5325 82.1222 90.593 82.2093 90.687 82.3032C90.8953 82.5111 91.1035 82.719 91.3117 82.9269C91.2579 83.2354 91.708 83.2823 91.6542 83.5908C91.6542 83.6042 91.6878 83.631 91.7079 83.6444C91.8221 83.7585 91.943 83.8658 92.0505 83.9865C92.1512 84.1005 92.2856 84.1742 92.3057 84.3687C92.3192 84.4894 92.5005 84.5967 92.6012 84.704C92.5475 84.7711 92.4871 84.8247 92.4535 84.8985C92.4132 84.9991 92.4938 85.0997 92.608 85.1064C92.6886 85.1064 92.7692 85.1064 92.8565 85.1064C92.9707 85.4082 93.199 85.6563 93.2528 85.9782C93.4476 86.119 93.4274 86.4007 93.6423 86.5482C93.8572 86.6957 94.0252 86.9171 94.22 87.1048C94.1998 87.4334 94.5625 87.4871 94.7035 87.876V88.3991C94.8244 88.5131 94.9722 88.4595 95.0729 88.5869C95.2409 88.7948 95.4894 88.949 95.6237 89.1703C95.7379 89.3581 95.8454 89.5593 95.9192 89.7672C95.9864 89.9684 96.0939 90.136 96.2618 90.2701C96.2954 90.297 96.329 90.364 96.3155 90.4043C96.2484 90.639 96.47 90.7731 96.5036 90.9743C96.5372 91.1554 96.7386 91.3096 96.7924 91.4907C96.8528 91.7187 97.0409 91.8193 97.1752 91.9735C97.3096 92.1278 97.2827 92.4228 97.5178 92.4698C97.9073 92.5502 98.0282 92.8654 98.1894 93.1538C98.2767 93.3013 98.3574 93.4623 98.4111 93.6232C98.4648 93.7909 98.6529 93.9116 98.579 94.1195C98.5723 94.1396 98.579 94.1798 98.5924 94.1933C98.9417 94.4414 98.9753 94.998 99.4925 95.1053C99.6268 95.1321 99.7611 95.2998 99.8283 95.4406C99.8954 95.5747 99.929 95.7357 100.07 95.8228C100.225 95.9167 100.184 96.0978 100.285 96.2185C100.426 96.3862 100.399 96.4063 100.157 96.5136C100.077 96.5471 100.003 96.6947 100.036 96.7617C100.084 96.8489 100.198 96.8623 100.312 96.802C100.359 96.7751 100.386 96.7282 100.433 96.6812C100.614 96.8757 100.795 97.0635 100.997 97.2781C100.99 97.4659 101.091 97.7207 100.842 97.8884V98.8473C100.842 98.8473 100.889 98.8876 100.903 98.9077C101.051 99.1022 101.044 99.1692 100.856 99.2497C100.493 99.4039 100.5 99.4107 100.198 99.4107C100.117 99.4107 100.036 99.4107 99.9559 99.4107C99.7611 99.1625 99.4857 99.0284 99.1633 98.9211C99.0827 99.0016 98.9954 99.1022 98.8947 99.1893C98.7603 99.3034 98.5723 99.3101 98.4715 99.196C98.3708 99.082 98.2096 99.1424 98.129 99.0351C98.0551 98.9345 97.9544 98.9144 97.8469 98.9345C97.5917 98.9882 97.6521 98.7602 97.5581 98.6126C97.4775 98.6126 97.37 98.5925 97.2693 98.6126C96.8663 98.7065 96.5237 98.3779 96.1274 98.4517C95.9595 98.3444 95.7916 98.1767 95.6103 98.1566C95.4356 98.1298 95.3618 97.9822 95.2006 97.9621C95.0864 97.9487 94.9722 97.8146 94.8647 97.8213C94.6901 97.8213 94.5826 97.7073 94.4483 97.6603C94.1192 97.5396 93.8438 97.3116 93.4744 97.2781C93.4005 97.2714 93.2796 97.211 93.2058 97.1641C93.0311 97.0434 92.9035 96.869 92.7356 96.6946C92.5878 96.6946 92.4132 96.7349 92.2789 96.6812C92.111 96.6209 91.9699 96.5337 91.7818 96.5136C91.6542 96.5002 91.54 96.3258 91.4124 96.2118H90.949C90.7744 96.0643 90.6535 95.8229 90.3579 95.8832C90.3244 95.8899 90.2706 95.843 90.2303 95.8161C90.1094 95.729 90.049 95.568 89.8475 95.5613C89.6728 95.5613 89.787 95.3266 89.6661 95.2595C89.5788 95.2059 89.5452 95.0986 89.4176 95.0785C89.3034 95.065 89.196 94.9577 89.0818 94.9309C88.934 94.8974 88.8803 94.77 88.7795 94.6895C88.6721 94.609 88.6452 94.4883 88.5915 94.3676C88.5243 94.2067 88.343 94.0927 88.2086 93.9652C87.94 94.0122 87.7385 93.925 87.6511 93.6635C87.6243 93.583 87.6041 93.4757 87.537 93.4958C87.2616 93.5562 87.0735 93.2946 86.7981 93.3214C86.5563 93.3416 86.3817 93.1739 86.1735 92.9191C86.0996 92.8252 86.0324 92.6844 85.8712 92.6844C85.8242 92.6844 85.7638 92.6643 85.7369 92.624C85.5556 92.3491 85.1727 92.3356 85.0115 92.0607C84.8235 92.0406 84.6153 92.0674 84.4675 91.9869C84.2257 91.8595 83.9436 91.7857 83.7421 91.598C83.5137 91.3834 83.2048 91.2962 83.0033 91.0414C82.8085 90.7865 82.5667 90.5652 82.3182 90.364C82.1771 90.25 82.1973 90.0824 82.0898 89.9617H81.4518C81.304 89.7806 81.0555 89.6934 81.0219 89.4185C81.0219 89.3782 80.9077 89.3514 80.8473 89.3112C80.4846 89.0697 80.0345 88.5802 79.9204 88.2851C79.692 87.6883 79.692 87.695 79.3025 87.5005C79.2151 87.4536 79.148 87.3798 79.0271 87.3798C78.8457 87.3798 78.6577 87.4267 78.4562 87.3261V86.8098C78.3823 86.7762 78.3353 86.7561 78.2882 86.7427C78.1338 86.7092 77.9591 86.8165 77.8315 86.6823C77.7039 86.5415 77.5091 86.5549 77.3748 86.4074C76.9382 85.938 76.4748 85.4953 76.0315 85.0527C76.0315 84.9521 76.0449 84.865 76.0315 84.7912C75.9778 84.5632 75.6352 84.4961 75.7091 84.2011C75.5949 84.0066 75.568 83.7652 75.3867 83.6109C75.4337 83.4097 75.2725 83.2689 75.1516 83.2421C74.9568 83.1951 74.8158 82.9939 74.5807 83.0476C74.4531 83.0744 74.3121 83.0476 74.1509 83.0476C74.077 82.9671 73.9829 82.8665 73.8956 82.7659C73.8486 82.7056 73.7747 82.6385 73.7747 82.5782C73.7949 82.2965 73.6673 82.1557 73.3986 82.0752C73.2911 82.0417 73.1434 81.9076 73.1367 81.8137C73.1232 81.5789 72.915 81.5253 72.8008 81.3509C72.8008 81.2168 72.7807 81.0559 72.8008 80.9016C72.8344 80.7004 72.7068 80.5462 72.5859 80.5194C72.2366 80.4389 72.109 80.117 71.8471 79.9426V79.2519C71.7195 79.158 71.5717 79.044 71.3433 78.8697C71.4105 78.8831 71.3635 78.8562 71.3164 78.8697C70.9067 78.9233 70.6918 78.702 70.5441 78.3533C70.4769 78.1923 70.3762 78.0448 70.2956 77.8906C70.2485 77.8034 70.2351 77.6961 70.1746 77.6223C70.094 77.5217 69.9866 77.4412 69.8925 77.3541C69.9597 77.2736 70.0269 77.2199 70.0605 77.1529C70.1075 77.059 70.0269 76.9383 69.9127 76.9316C69.8321 76.9316 69.7515 76.9316 69.6709 76.9316C69.4224 76.6902 69.1806 76.442 68.9321 76.2006C68.8918 75.8988 68.697 75.6507 68.5694 75.3892C68.4619 75.1679 68.388 74.8929 68.1261 74.7856V74.4436C68.2604 74.3028 68.5223 74.3363 68.5761 74.1485C68.4417 73.9876 68.3276 73.8534 68.2134 73.7126C67.9447 73.9272 67.9111 73.9071 67.7365 73.7461C67.6089 73.6321 67.6694 73.4444 67.5149 73.3505C67.4074 73.2834 67.3201 73.1694 67.2261 73.0688C67.0985 72.9347 67.0984 72.7469 67.1992 72.6463C67.3402 72.5055 67.3 72.358 67.3134 72.2037C67.1858 72.13 67.0716 72.0227 66.9305 71.9824C66.7694 71.9355 66.6753 71.9087 66.6417 71.7008C66.6216 71.5733 66.4402 71.4526 66.3126 71.3588C66.1514 71.238 66.185 71.0838 66.185 70.9229C65.97 70.6881 65.7551 70.4601 65.5402 70.2254C65.5872 69.7761 65.0566 69.4743 65.2312 69.0183C65.1305 68.8104 64.8618 68.7433 64.8887 68.4818C64.6872 68.3678 64.7476 68.1666 64.7208 67.9923C64.479 67.8783 64.6536 67.5899 64.4924 67.4424C64.3245 67.2881 64.4186 67.0869 64.4186 66.9126C64.4118 66.6644 64.3178 66.5169 64.0626 66.4767C64.0155 66.47 63.9752 66.4297 63.9349 66.4029C63.9887 66.3493 64.0357 66.2889 64.0693 66.2554C64.0223 66.1548 63.9752 66.0676 63.9349 65.9804C63.8678 65.8329 63.7738 65.7323 63.6126 65.6719C63.4245 65.6049 63.3909 65.5244 63.4917 65.4104C63.5924 65.2964 63.6126 65.1891 63.6126 65.055C63.6126 64.9611 63.579 64.9074 63.4984 64.8806C63.4513 64.8672 63.3842 64.8806 63.3506 64.8538C63.2028 64.7398 63.0618 64.6191 62.9812 64.5453C62.9678 64.3508 62.9946 64.2234 62.9476 64.1429C62.8737 64.0088 62.7259 63.9149 62.6588 63.7808C62.605 63.6735 62.6857 63.526 62.5581 63.4187C62.511 63.3784 62.4774 63.2711 62.4909 63.2108C62.5446 62.9827 62.4103 62.8151 62.323 62.634C62.1618 62.2853 62.1618 62.2853 62.155 61.8964C61.9938 61.7488 61.7991 61.8427 61.6177 61.8293C61.4364 61.8159 61.255 61.7958 61.1073 61.9701C61.0602 62.0238 60.9058 61.9835 60.7983 61.9835C60.261 61.9835 59.7237 61.95 59.1863 61.9969C58.9177 62.0238 58.7632 61.7958 58.5281 61.8159C58.1587 61.6214 58.1721 61.6683 57.7557 61.7689C57.44 61.8427 57.1512 62.0506 56.7885 61.9902C56.5534 61.95 56.5534 61.9902 56.2109 62.1378C56.0295 62.2183 55.8684 62.3524 55.6333 62.3121C55.4251 62.2719 55.2034 62.3054 54.9683 62.3054C54.8474 62.1847 54.7131 62.0573 54.5922 61.9098C54.3437 61.6013 54.2698 61.5812 54.0415 61.8025C53.8668 61.9701 53.7056 62.1445 53.5175 62.2987C53.484 62.3255 53.3161 62.2585 53.3161 62.2451C53.3429 61.8964 52.9735 61.9969 52.8526 61.8226C52.5369 61.8293 52.2146 61.8226 51.8989 61.8561C51.6772 61.8762 51.6772 61.8896 51.6033 61.8226C51.375 61.8226 51.1332 61.7958 50.8981 61.8293C50.7033 61.8628 50.5488 62.0372 50.3205 61.9902C50.1391 61.9567 49.9443 61.9835 49.7563 61.9835H48.5473C48.4869 61.9299 48.4331 61.8762 48.3794 61.8293C48.1577 62.0506 47.9025 62.0439 47.6674 61.9031C47.5331 61.8226 47.4458 61.7891 47.3316 61.9031C47.1838 62.064 46.895 61.8829 46.7808 62.1311C46.5659 62.0372 46.5055 62.3993 46.2838 62.2987C46.1898 62.2048 46.0957 62.111 46.0017 62.0171C45.8808 61.9433 45.4845 61.9634 45.4106 62.0573C45.3703 62.111 45.3838 62.1981 45.3502 62.4127C45.2226 62.1914 45.142 62.064 45.095 61.9768C44.9069 61.9768 44.7994 61.9768 44.692 61.9768C44.5039 61.9768 44.3158 62.0104 44.1882 61.8159C44.1681 61.7891 44.0606 61.7891 44.0338 61.8159C43.8054 62.0975 43.5837 62.0037 43.3554 61.8159C43.1942 61.8628 43.1472 61.6683 43.0195 61.6616C42.8919 61.6549 42.7576 61.6147 42.6501 61.7421C42.583 61.8226 42.5024 61.8964 42.4084 61.9902C42.1531 61.9232 41.8374 62.111 41.6091 61.8226C41.5956 61.8092 41.5554 61.8226 41.5285 61.8226C41.2128 61.7891 40.8703 61.9299 40.5949 61.7555C40.2859 61.561 39.9703 61.7421 39.6479 61.6348C39.5337 61.4068 39.2314 61.38 39.0501 61.1989C39.0165 61.2257 38.9829 61.2526 38.9426 61.2794C38.8217 61.3733 38.7478 61.5812 38.5598 61.494C38.412 61.4269 38.4993 61.2526 38.4791 61.1319C38.4724 61.0581 38.4657 60.9776 38.459 60.9173C38.3247 60.8167 38.1903 60.8904 38.0762 60.8636C37.9351 60.9843 38.0224 61.1251 37.9956 61.2526C37.868 61.3263 37.747 61.4068 37.6127 61.4806C37.5724 61.5007 37.4918 61.5275 37.465 61.5007C37.0485 61.152 36.5381 61.4672 36.0948 61.3062C36.0746 61.2257 36.0545 61.1587 36.0343 61.0849C35.9873 61.0648 35.947 61.0313 35.9 61.0246C35.6851 61.0246 35.4634 60.991 35.2552 61.0246C35.0403 61.0648 34.9261 60.8904 34.7582 60.8502C34.5701 60.8032 34.4492 60.6892 34.4291 60.4679C34.4291 60.3875 34.2947 60.3137 34.2007 60.2131C34.0596 60.2131 33.8984 60.2131 33.744 60.2131C33.5626 60.2131 33.3611 60.1595 33.2402 60.3606C33.079 60.3606 32.891 60.421 32.7701 60.3606C32.6357 60.2936 32.4947 60.2332 32.3671 60.1595C32.2999 60.1192 32.2462 60.0522 32.1924 59.9918C32.0648 59.8376 31.87 59.851 31.7626 59.9247C31.4872 60.1058 31.2454 60.1259 30.9902 59.9247C30.6073 59.9851 30.4126 59.6364 30.1103 59.5157C29.8618 59.4151 29.5931 59.3212 29.3782 59.1334C29.2909 59.0596 29.1767 59.0932 29.1096 59.1871C29.029 59.2944 28.9215 59.2675 28.8208 59.2608C28.7536 59.2541 28.6595 59.2139 28.6394 59.1602C28.5521 58.9523 28.4983 58.731 28.3371 58.5634C28.2297 58.4494 28.1961 58.436 28.0013 58.5299C27.9341 58.5634 27.867 58.617 27.7998 58.617C27.6118 58.6305 27.417 58.5902 27.2356 58.6305C26.9535 58.6841 26.7655 58.3957 26.4968 58.4628C26.3759 58.3555 26.2617 58.2549 26.1408 58.1476C26.0804 58.094 26.0266 58.0336 25.9729 57.9732C25.7042 58.094 25.5498 57.7922 25.308 57.8123C25.093 57.8324 24.8848 57.8123 24.6833 57.8123C24.502 57.6446 24.3744 57.4166 24.0721 57.4904C23.8438 57.5508 23.6759 57.3764 23.649 57.2222C23.6154 57.0277 23.4542 56.9807 23.4072 56.8399C23.3266 56.907 23.2796 56.9807 23.2057 57.0076C23.0243 57.0813 22.9639 56.8198 22.7892 56.8466C22.6616 56.8734 22.6146 57.0478 22.4534 57.0076C22.393 56.9941 22.3124 56.8936 22.3393 56.8332C22.3594 56.7863 22.3728 56.7393 22.4064 56.6991C22.487 56.6119 22.5743 56.5247 22.6684 56.4375C22.5004 56.2967 22.3796 56.3638 22.3057 56.4845C22.1646 56.7058 21.9564 56.6991 21.7415 56.6857C21.6676 56.6857 21.5937 56.6454 21.5333 56.6052C21.4056 56.5247 21.3452 56.3772 21.1504 56.3504C21.0228 56.3302 20.9153 56.1559 20.7945 56.0419H20.1564C20.0355 55.9212 20.0623 55.8139 20.1765 55.7066C20.2101 55.673 20.2235 55.6194 20.2437 55.5724C20.2168 55.331 19.9549 55.2774 19.8676 55.0896H19.3571C19.2563 55.1835 19.1422 55.2908 19.0481 55.378C18.9474 55.331 18.8601 55.2774 18.766 55.2438C18.6787 55.217 18.6183 55.1835 18.6317 55.0896C18.6451 54.9555 18.5309 54.9152 18.4638 54.8348C18.363 54.7208 18.1683 54.7543 18.0742 54.6068C17.9869 54.4726 17.866 54.3653 17.772 54.2647C17.6309 54.2647 17.4697 54.3117 17.4227 54.258C17.2817 54.0904 17.0264 54.1172 16.9055 53.9294C16.8518 53.8423 16.7645 53.7886 16.6436 53.7886C16.516 53.7886 16.3682 53.7953 16.2608 53.7417C16.1936 53.7081 16.1936 53.5606 16.1399 53.4801C16.0593 53.3728 15.9652 53.2789 15.8577 53.1985C15.7839 53.1381 15.6764 53.118 15.5824 53.0845C15.354 53.004 15.1794 52.8632 15.0249 52.6888C14.7764 52.6955 14.6756 52.4809 14.5212 52.3468C14.4607 52.2931 14.4003 52.1925 14.3465 52.1992C13.9973 52.2127 14.145 51.9578 14.1316 51.8036C14.1316 51.7499 14.2794 51.6426 14.2726 51.6359C14.1853 51.5353 14.098 51.4482 14.1047 51.3006C14.1047 51.2805 14.0174 51.2268 13.9838 51.2335C13.9167 51.247 13.8092 51.3006 13.8092 51.3341C13.8226 51.5353 13.648 51.589 13.5741 51.6896C13.4801 51.6426 13.3861 51.5554 13.2987 51.5622C13.0502 51.5689 12.9025 51.4683 12.8353 51.2335C12.7681 50.9988 12.6204 50.8848 12.3719 50.9117C12.0965 50.9385 11.9622 50.8245 11.8547 50.5562C11.7472 50.2746 11.5927 49.9929 11.2838 49.7984H10.8673C10.8136 49.7582 10.7666 49.7314 10.733 49.6978C10.5248 49.4899 10.3166 49.2821 10.1084 49.0742C9.95389 48.9199 9.78599 48.7858 9.65837 48.6181C9.55762 48.484 9.53076 48.2962 9.45016 48.142C9.37628 48.0079 9.28896 47.8805 9.10761 47.8603C9.04044 47.8536 8.98001 47.7799 8.91957 47.7329C8.7718 47.6122 8.77177 47.5183 8.92625 47.344C8.95983 47.3037 9.00014 47.2702 9.06731 47.2031H9.59122C9.54421 47.0154 9.33597 46.9617 9.31582 46.8343C9.28895 46.6532 9.1815 46.5594 9.07403 46.4521C9.00687 46.385 8.83894 46.4185 8.81208 46.5124C8.78521 46.613 8.82554 46.7337 8.67106 46.7404C8.54344 46.7404 8.40908 46.7807 8.30833 46.6465C8.24117 46.5594 8.16731 46.4856 8.07999 46.4185C7.7979 46.2106 7.77101 46.1167 7.93221 45.9223C7.99937 45.8418 8.08 45.768 8.16731 45.6808C8.07328 45.587 7.9725 45.4998 7.87846 45.4059C7.68368 45.2181 7.67699 45.2248 7.43519 45.4461C7.39489 45.4797 7.3613 45.5199 7.30085 45.5802C7.16652 45.5132 7.01203 45.4528 6.8777 45.3657C6.74337 45.2785 6.62919 45.1712 6.54187 45.0974C6.55531 44.9633 6.54187 44.8962 6.57545 44.8694C6.66276 44.7688 6.77697 44.6816 6.68294 44.5341C6.60906 44.4268 6.48816 44.5006 6.38741 44.4804C6.36054 44.4804 6.33368 44.4804 6.30681 44.4804C6.19935 44.4067 6.22622 44.2927 6.23294 44.1921C6.23294 44.0311 6.24634 43.8702 6.07843 43.7763C5.87693 43.6623 5.89708 43.4678 5.91052 43.2867C5.81648 43.1459 5.58815 43.2465 5.52098 43.0587C5.31949 43.0654 5.27917 42.9716 5.25231 42.7771C5.22544 42.5625 5.14485 42.3412 4.9635 42.1735C4.8426 42.0662 4.73513 41.9455 4.62095 41.8315C4.66796 41.6303 4.4866 41.5566 4.39256 41.4425C4.2851 41.3218 4.15749 41.2212 4.05674 41.1005C4.00972 41.0469 3.97615 40.953 3.98959 40.8926C4.00302 40.8256 4.08361 40.7719 4.15078 40.6848C3.96271 40.5104 3.76795 40.3293 3.57989 40.1416C3.53287 40.0946 3.49257 40.0074 3.49929 39.9404C3.51272 39.7459 3.45899 39.652 3.24406 39.6453C3.20376 39.6453 3.1769 39.4709 3.12989 39.3838C2.86794 38.9613 2.70672 38.4784 2.43806 38.0626C2.33731 37.9084 2.45151 37.7206 2.33062 37.6267C2.18957 37.5194 2.23658 37.3384 2.11568 37.2244C2.00821 37.1305 2.04178 36.9293 1.8873 36.8421C1.98805 36.5403 1.65221 36.3392 1.71266 36.024C1.75296 35.8161 1.53805 35.6216 1.52462 35.3802C1.52462 35.2796 1.34997 35.1924 1.25594 35.0985C1.22236 34.7565 1.26939 34.4145 1.22909 34.0859C1.12834 34.0591 1.05446 34.0389 0.980579 34.0188C0.960429 33.9719 0.926835 33.9249 0.926835 33.8847C0.926835 33.5628 0.926835 33.2409 0.926835 32.919C0.926835 32.7581 0.711904 32.6977 0.75892 32.5032C0.792503 32.349 0.765644 32.1813 0.765644 32.0204V31.5442C0.658178 31.4504 0.523839 31.3364 0.631304 31.2156C0.879817 30.9139 0.785806 30.6456 0.611176 30.3707C0.597742 30.3506 0.611176 30.317 0.611176 30.2433C0.711924 30.1695 0.832808 30.0689 0.973855 29.9616C0.738776 29.8543 0.77906 29.633 0.664879 29.4855C0.58428 29.3849 0.611141 29.1837 0.617858 29.0294C0.617858 28.8551 0.537261 28.6472 0.745474 28.5198C0.732041 28.1845 1.00745 27.9162 0.947004 27.5541C0.893271 27.2389 0.933558 26.9103 0.933558 26.5482C1.03431 26.4677 1.16191 26.3671 1.25594 26.2933C1.25594 25.8641 1.25594 25.4886 1.25594 25.1197C1.34997 25.0259 1.44399 24.932 1.57832 24.7978C1.57832 24.6771 1.57832 24.5229 1.57832 24.3687C1.57832 24.2748 1.72611 24.1943 1.81343 24.2345C1.83358 24.2479 1.8537 24.2748 1.87385 24.2882C2.02162 24.3776 2.15148 24.3731 2.26342 24.2748C2.30372 24.2412 2.3373 24.201 2.37759 24.1608C2.27685 23.9797 2.08208 24.1473 1.93432 24.0132C1.847 23.8724 1.9209 23.6846 1.90747 23.5036C2.10897 23.3963 2.06195 23.128 2.2433 22.9939C2.41793 22.8732 2.55226 22.6988 2.70674 22.5379C2.70674 22.4641 2.70002 22.3836 2.70674 22.3032C2.73361 22.0953 2.62611 21.8673 2.76044 21.6862C2.88134 21.5252 2.88134 21.2771 3.09627 21.1832C3.11642 21.1698 3.1433 21.1497 3.15002 21.1296C3.31121 20.5059 3.8351 20.1639 4.23137 19.728H4.4732C4.4732 19.7749 4.4732 19.8286 4.4732 19.8755C4.4732 19.9225 4.49331 19.9694 4.52018 20.0029C4.52018 20.0096 4.59408 19.9962 4.62095 19.9761C4.66125 19.9493 4.70153 19.9091 4.72839 19.8688C4.74854 19.842 4.76872 19.7749 4.75529 19.7682C4.71499 19.7414 4.66797 19.728 4.62767 19.7213C4.58065 19.7146 4.5269 19.7213 4.47988 19.7213C4.47988 19.5603 4.70153 19.4933 4.6478 19.3122C4.80228 19.158 4.95004 19.0104 5.11124 18.8495C5.06423 18.7958 5.01724 18.7422 4.97022 18.6818C5.05754 18.5075 5.32619 18.4404 5.2926 18.1856C5.42693 18.0514 5.55457 17.924 5.6889 17.7966C5.8501 17.7832 6.0247 17.8503 6.12545 17.6759C6.2262 17.5015 6.44787 17.5217 6.56877 17.3875C6.75683 17.1796 7.02547 17.0388 7.09264 16.7236C7.1195 16.6163 7.25386 16.4956 7.36804 16.442C7.74417 16.281 7.97922 15.9591 8.26804 15.6976H9.87331C9.94719 15.6238 10.0278 15.5433 10.1218 15.4495C9.84644 15.3153 9.81286 15.0136 9.66509 14.8191C9.79271 14.6782 9.91359 14.5374 10.0278 14.41H10.6927C10.7599 14.296 10.9144 14.2558 10.9278 14.1015C10.9412 13.9272 11.0823 13.7796 11.2233 13.7863C11.586 13.7997 11.7674 13.5717 11.8816 13.3169C11.9756 13.109 12.1569 13.0084 12.2711 12.834C12.3249 12.8273 12.3719 12.8072 12.4256 12.8072C12.8062 12.8072 13.2182 12.6999 13.6615 12.4853C13.8159 12.4116 14.004 12.3713 14.1249 12.2573C14.2458 12.1433 14.4204 12.1903 14.5279 12.0427C14.6353 11.8952 14.7831 11.7678 14.9242 11.6403C15.0585 11.5263 15.1391 11.3185 15.3675 11.352C15.4615 11.191 15.6227 11.2044 15.7839 11.1776C15.8981 11.1575 16.066 11.0368 16.0727 10.9496C16.0928 10.6948 16.3011 10.6009 16.4354 10.4534C16.4757 10.4064 16.5899 10.3662 16.6436 10.3863C16.8653 10.4735 16.9257 10.1516 17.1474 10.2119C17.2951 10.2522 17.4697 10.2052 17.6242 10.2253C17.7854 10.2455 17.8593 10.0711 17.96 10.0711C18.1817 10.0711 18.2824 9.81627 18.5377 9.89004C18.9474 10.004 19.2295 9.64191 19.5922 9.53461C19.6526 9.51449 19.6526 9.34684 19.7131 9.27307C19.881 9.05177 20.1161 9.03165 20.3176 9.20601C20.378 9.25966 20.425 9.32672 20.4922 9.37366C20.5862 9.44743 20.687 9.44073 20.7676 9.34013C20.828 9.25966 20.9153 9.21272 20.9422 9.09201C21.0295 8.71646 21.4191 8.65611 21.6743 8.45492C21.7079 8.4281 21.8086 8.4348 21.8221 8.45492C22.0034 8.70305 22.252 8.58234 22.4803 8.59575C22.5945 8.45492 22.393 8.44821 22.3863 8.36103C22.3863 8.28727 22.3527 8.20679 22.44 8.13973C22.5072 8.09279 22.5542 8.02573 22.6281 7.95866C22.8296 7.95866 23.0378 7.95866 23.2527 7.95866C23.2728 7.95866 23.293 7.98549 23.3132 7.9989C23.3266 8.04584 23.3333 8.09949 23.3535 8.14644C23.387 8.24032 23.5348 8.3275 23.5885 8.28056C23.649 8.22691 23.7094 8.17326 23.7632 8.11291C23.8572 8.01231 23.9647 7.97878 24.099 7.94525C24.4818 7.85807 24.8244 7.69712 24.9654 7.28805C24.9923 7.20757 25.0259 7.14722 25.1199 7.15392C25.2878 7.16734 25.3483 6.92591 25.5363 6.99298C25.6908 7.04663 25.758 6.86556 25.8722 6.84544C26.0267 6.81191 26.1879 6.83873 26.3356 6.83873C26.4431 6.73144 26.5371 6.63755 26.658 6.51684C26.8461 6.51684 27.0677 6.4699 27.2625 6.53025C27.4304 6.5839 27.5714 6.71132 27.7797 6.67108C27.9677 6.4699 28.1692 6.2553 28.3774 6.03399C28.5789 6.03399 28.7603 6.03399 28.9416 6.03399C29.0961 6.03399 29.264 6.07423 29.3715 5.89987C29.5998 5.87975 29.8349 5.79928 30.0297 6.01388C30.0566 6.0407 30.1305 6.02729 30.2178 6.0407C30.2984 5.9334 30.3991 5.81269 30.4999 5.67857C30.6477 5.89987 30.829 5.89316 31.017 5.86634C31.2185 5.58468 31.6014 5.52433 31.8029 5.24267C32.0312 5.25608 32.2798 5.14878 32.4611 5.3902C32.488 5.43044 32.6156 5.3902 32.6962 5.3902C32.7051 5.61821 32.8059 5.70539 32.9984 5.65174C32.9313 5.53103 32.8507 5.41703 32.6962 5.3902C32.7231 5.35667 33.1328 5.06831 33.1596 5.06831C33.3275 5.08172 33.4417 5.01466 33.5895 4.92748C33.7238 4.8403 33.9522 4.87383 34.1 5.10184C34.1335 4.92077 34.1604 4.77324 34.1873 4.60558C34.5298 4.54523 34.8724 4.61229 35.2149 4.56534C35.3089 4.47146 35.403 4.37757 35.5239 4.25686C35.7925 4.25686 36.0881 4.25686 36.3769 4.25686C36.5381 4.25686 36.6925 4.27027 36.8067 4.11603C36.8269 4.08921 36.9679 4.10262 37.0149 4.14286C37.3911 4.45805 37.7 4.18309 38.0023 4.02214C38.1635 3.94167 38.2709 3.76731 38.412 3.62648H39.1038C39.1508 3.79414 39.1911 3.94167 39.3389 4.02885C39.3993 4.06238 39.5269 4.10932 39.5471 4.0825C39.6613 3.94167 39.8023 3.91485 39.9702 3.92826C40.1046 3.94167 40.2389 3.92826 40.3665 3.92826C40.5411 3.7539 40.7023 3.55942 40.8904 3.41859C41.0852 3.27105 41.2934 3.11681 41.5755 3.12352C41.777 3.12352 42.0054 3.19058 42.1531 2.96257C42.3546 2.93575 42.5629 3.03634 42.7576 2.84857C42.8315 2.7748 43.0061 2.80833 43.1338 2.80162C43.4159 2.7748 43.7047 2.87539 43.9599 2.65409C44.0271 2.60044 44.2151 2.59373 44.3226 2.72785C44.3964 2.82174 44.5106 2.85527 44.5912 2.76809C44.6987 2.65409 44.8129 2.64738 44.9472 2.64738C45.4577 2.64738 45.9681 2.64738 46.4786 2.64738C46.5525 2.64738 46.6263 2.63397 46.7137 2.62056C46.7204 2.52667 46.7204 2.4529 46.7406 2.37913C46.754 2.30537 46.7741 2.20477 46.8211 2.17795C46.8682 2.15112 46.9823 2.17795 47.0294 2.22489C47.1838 2.35902 47.3181 2.50655 47.4659 2.64738C47.6002 2.50655 47.5129 2.36572 47.5465 2.2383C47.6473 2.11089 47.7883 2.17124 47.916 2.16454C48.0503 2.15783 48.198 2.19807 48.3122 2.15112C48.4667 2.09748 48.5204 2.43949 48.6883 2.21819C48.7891 2.09077 48.9436 2.15783 49.0645 2.16454C49.2861 2.17795 49.407 1.94994 49.6421 1.99018C49.8503 2.03041 50.0719 2.017 50.2869 1.99018C50.4548 1.97006 50.5757 1.78899 50.7839 1.82923C50.9384 1.86276 51.1063 1.82923 51.2675 1.82923C51.4556 1.82923 51.6436 1.84935 51.8317 1.82923C51.9862 1.80911 52.0332 1.95665 52.1608 1.97006C52.2683 1.71522 52.5705 1.93653 52.7115 1.74205C52.8056 1.60793 52.9601 1.69511 53.081 1.67499C53.3094 1.94994 53.625 1.8024 53.9004 1.83593C54.1556 1.52745 54.4982 1.72193 54.8004 1.68169C55.0019 1.65487 55.2101 1.64816 55.3848 1.82923C55.4318 1.87617 55.593 1.84935 55.687 1.80911C55.7273 1.7957 55.7139 1.66157 55.7542 1.60793C55.8146 1.52075 55.8885 1.44027 55.9758 1.38662C55.996 1.37321 56.0833 1.49392 56.1437 1.50063C56.2915 1.52074 56.4594 1.5811 56.5803 1.41345C56.5937 1.39333 56.6206 1.3598 56.634 1.3598C56.7079 1.3598 56.7751 1.35309 56.8557 1.40674C57.0706 1.56098 57.0841 1.55428 57.2385 1.39333C57.2923 1.33297 57.3527 1.27932 57.44 1.19214C57.5408 1.19214 57.6751 1.21226 57.8027 1.19214C58.1788 1.12508 58.4878 1.44027 58.8639 1.3598C58.8908 1.3598 58.9714 1.42686 58.9647 1.45368C58.9445 1.65487 59.1192 1.71522 59.2132 1.83593C59.2938 1.72193 59.3946 1.66157 59.5423 1.65487C59.5692 1.65487 59.6028 1.52745 59.6095 1.45368C59.6095 1.42015 59.549 1.3665 59.5087 1.3598C59.4281 1.34638 59.3475 1.3598 59.2669 1.3598C59.1259 1.33968 59.0856 1.19885 59.1863 1.07143C59.2333 1.01108 59.3005 0.957427 59.3677 0.890365C59.4214 0.937309 59.4752 0.984252 59.549 1.04461C60.1737 1.04461 60.8185 1.0379 61.4633 1.04461C61.6177 1.04461 61.7118 0.977546 61.7991 0.876953C62.0274 1.23238 62.4842 0.850129 62.726 1.15861C62.9611 1.17202 63.1894 1.19214 63.3976 1.20556C63.5185 1.08484 63.6125 0.990958 63.72 0.883659H64.7477C64.8618 1.02449 65.0096 1.21226 65.1171 1.35309C65.3454 1.3665 65.4798 1.37321 65.6343 1.4671C65.8358 1.58781 66.0641 1.72864 66.3462 1.69511C66.4738 1.68169 66.6216 1.7957 66.8029 1.87617C66.944 1.69511 67.0984 1.50733 67.2059 1.37321C67.5216 1.33297 67.582 1.55428 67.75 1.66828H68.4216C68.4955 1.77558 68.5895 1.903 68.6634 2.00359C68.8044 2.00359 68.885 2.00359 68.9589 2.00359C69.053 2.017 69.1134 1.97006 69.1268 1.88288C69.1403 1.76887 69.1201 1.68169 68.9656 1.67499C68.7574 1.67499 68.7977 1.53416 68.8515 1.3598C69.147 1.37321 69.456 1.26591 69.7313 1.50733C69.7784 1.54757 69.9127 1.54757 69.9664 1.50733C70.2687 1.26591 70.6179 1.38662 70.9806 1.34638C71.0814 1.44698 71.1888 1.56098 71.3097 1.66828C71.3433 1.69511 71.4306 1.69511 71.4642 1.66828C71.5515 1.60793 71.6321 1.53416 71.6926 1.44698C71.7933 1.31285 71.9277 1.33297 72.0553 1.35309C72.1426 1.3665 72.2165 1.4671 72.3038 1.4738C72.3575 1.4738 72.4247 1.35309 72.4851 1.35309C72.6866 1.35309 72.9217 1.2592 73.0695 1.49392C73.3045 1.50733 73.5396 1.51404 73.8284 1.52745C73.7546 1.62134 73.7076 1.66157 73.6807 1.72193C73.6202 1.84264 73.6404 1.94994 73.7344 1.99018C73.8016 2.02371 73.8822 2.017 73.9493 2.05724C74.1777 2.18466 74.1777 2.19136 74.3389 2.03041C74.3926 1.97676 74.4531 1.91641 74.5337 1.83593C74.668 1.83593 74.8292 1.84935 74.9837 1.83593C75.2121 1.81582 75.4673 1.93653 75.6486 1.69511C76.0248 1.69511 76.3942 1.66828 76.7703 1.69511C76.8778 1.69511 76.9449 1.88958 77.1061 1.84935C77.2069 1.99688 77.3546 2.03041 77.5225 2.0103C77.63 1.99688 77.7375 2.0103 77.845 2.0103C78.0599 2.0103 78.2748 2.00359 78.4897 2.0103C78.6644 2.017 78.8323 1.99018 79.0136 2.11089C79.1681 2.21148 79.4233 2.15783 79.6316 2.17124C79.6584 2.17124 79.6987 2.17124 79.7054 2.18466C79.8196 2.42608 80.1084 2.24501 80.2562 2.40596C80.2898 2.43949 80.3435 2.48643 80.3838 2.48643C80.7398 2.45961 80.9346 2.62056 80.9278 3.01622C81.1831 2.77927 81.51 2.60491 81.9085 2.49314C82.1167 2.26513 82.3921 2.3389 82.6473 2.3389C82.7145 2.3389 82.7883 2.39255 82.8488 2.42608C83.1242 2.57361 83.3929 2.70774 83.722 2.66079C83.9033 2.63397 84.0981 2.65409 84.2861 2.66079C84.4943 2.66079 84.716 2.59373 84.8637 2.82174C85.0787 2.82174 85.2936 2.82174 85.5086 2.82174C85.7101 3.08999 85.9989 2.94916 86.2474 2.97598C86.5026 3.00281 86.7646 2.92233 86.9929 3.13022C87.0668 3.19729 87.2549 3.14364 87.4631 3.14364C87.5236 3.23082 87.6109 3.36494 87.6713 3.46553C87.9534 3.46553 88.1683 3.49236 88.3765 3.46553C88.6049 3.432 88.7728 3.5393 88.9542 3.63319C89.0616 3.68684 89.1758 3.78072 89.29 3.78743C89.4646 3.78743 89.5721 3.90143 89.7131 3.94167C89.9079 4.00203 90.1363 3.95508 90.3512 3.95508C90.4049 3.95508 90.4855 3.96179 90.499 3.93496C90.6064 3.77402 90.7811 3.74719 90.9221 3.80084C91.1102 3.8679 91.2781 3.98861 91.4393 4.10262C91.6005 4.21662 91.9363 4.39098 92.1916 4.43122C92.346 4.45805 92.4199 4.64582 92.608 4.59888C92.7356 4.57205 92.8766 4.59888 93.0109 4.59888H93.7028C93.8505 4.67935 93.7296 4.90065 93.911 4.92077C94.1931 4.94089 94.4886 4.85371 94.7304 5.08172C94.9722 5.08172 95.214 5.08172 95.4558 5.08172C95.6371 5.08172 95.8386 5.02807 95.9595 5.22925H96.4364C96.6312 5.53103 97.0342 5.56456 97.2491 5.87975H98.4111C98.5051 6.08764 98.5051 6.23518 98.3641 6.40283C98.2297 6.56378 98.3103 6.66437 98.5387 6.68449C98.5924 6.68449 98.6462 6.68449 98.7738 6.68449C98.888 6.53696 99.0357 6.34918 99.1163 6.24859C99.5193 6.10776 99.6536 6.34248 99.8551 6.53025H100.829C100.863 6.57719 100.89 6.59731 100.89 6.61743C100.957 6.85215 101.01 6.88568 101.178 6.7985C101.427 6.65767 101.427 6.65767 101.568 6.7985C101.702 6.92591 101.83 7.06004 101.971 7.20087C102.36 6.89909 102.79 7.03992 103.26 6.99968C103.388 7.16063 103.536 7.3484 103.657 7.48923H104.134C104.187 7.48923 104.241 7.48923 104.295 7.48923C104.57 7.47582 104.758 7.66359 104.98 7.7776C105.215 7.8916 105.497 7.72395 105.739 7.8916C105.88 7.9922 106.055 8.12632 106.202 8.11291C106.437 8.09279 106.565 8.3275 106.78 8.29397C106.894 8.49516 107.096 8.44821 107.27 8.46163C107.478 8.72317 107.761 8.57563 107.955 8.60916C108.15 8.81035 108.318 8.978 108.432 9.0853C108.721 9.09201 108.916 9.06518 109.037 9.25966C109.131 9.42061 109.285 9.42061 109.453 9.42731C109.608 9.42731 109.681 9.64191 109.863 9.60167C109.997 9.8431 110.105 9.61509 110.212 9.56144C110.494 9.65532 110.608 9.91686 110.823 10.0644C110.978 10.0711 111.139 10.0175 111.26 10.1851C111.287 10.2253 111.414 10.2321 111.468 10.1985C111.555 10.1449 111.636 10.004 111.73 10.0711C111.918 10.2052 112.22 10.2186 112.294 10.4399C112.375 10.6881 112.549 10.8222 112.711 10.9899C112.818 11.1106 112.939 11.2179 113.067 11.3453C113.154 11.3453 113.308 11.3922 113.362 11.3386C113.604 11.077 113.772 11.1977 113.933 11.4056C113.879 11.5733 113.651 11.6269 113.631 11.8617C113.631 11.8751 113.631 11.8482 113.631 11.8281C113.604 11.8281 113.577 11.8214 113.557 11.8281C113.503 11.8684 113.436 11.9086 113.537 11.969C113.55 11.9757 113.597 11.922 113.631 11.8617H113.55ZM7.17996 36.6074C7.27399 36.5403 7.35461 36.48 7.40834 36.4398C7.54939 36.5672 7.73743 36.6745 7.81132 36.8287C7.90535 37.0299 7.97924 37.2378 8.11357 37.4256C8.21432 37.5664 8.06656 37.8078 8.28821 37.9151C8.30164 38.2035 8.31507 38.4918 8.3285 38.7668C8.39567 38.7869 8.4494 38.7936 8.4897 38.8204C8.59716 38.8942 8.6912 38.9814 8.79195 39.0552C8.91285 39.149 8.9733 39.3033 9.1748 39.31C9.28226 39.31 9.34943 39.4978 9.51063 39.4642C9.53078 39.4642 9.59794 39.538 9.59122 39.5782C9.57107 39.7727 9.81955 39.8599 9.76582 40.0745C9.7188 40.2489 9.96735 40.3494 9.92705 40.5707C9.89347 40.7786 10.1487 40.839 10.2427 41.0066V41.4694C10.3569 41.5901 10.5517 41.5364 10.639 41.6974C10.7196 41.8315 10.8405 41.9455 10.9278 42.0461C11.2435 41.912 11.4047 42.1668 11.6263 42.2205C11.7539 42.254 11.8883 42.4015 11.8614 42.596C11.9756 42.6765 11.989 42.8106 12.0427 42.9246C12.0965 43.0386 12.2241 43.1191 12.3181 43.213C12.4323 43.327 12.5465 43.4343 12.6607 43.5416V44.0512C12.9965 44.2524 13.0301 44.7353 13.4196 44.9163C13.5875 44.9432 13.7823 44.8359 13.9435 44.9901C13.9301 45.1376 13.957 45.2248 14.145 45.2449C14.4338 45.2651 14.7294 45.4931 14.7361 45.7546C14.7361 45.9826 14.8906 46.1302 14.9645 46.3112C15.0518 46.5057 15.1257 46.7471 15.3406 46.8812C15.4548 46.9483 15.5354 47.069 15.6294 47.1629C15.7772 47.1964 15.9384 47.1227 16.0727 47.2702C16.1734 47.3775 16.2205 47.4781 16.207 47.6189C16.1936 47.7396 16.2473 47.8 16.3817 47.8201C16.469 47.8268 16.5496 47.9073 16.5966 47.9341C16.7914 47.8805 16.825 47.6189 17.1003 47.6525C17.4429 48.0749 17.9668 48.3767 18.2153 48.9266C18.2421 48.9937 18.3227 49.0742 18.3832 49.0876C18.8063 49.1681 19.1086 49.5369 19.5519 49.5771C19.619 49.5771 19.6997 49.6174 19.7534 49.6643C19.8877 49.7917 20.0153 49.9326 20.1295 50.0533H20.6333C20.6937 50.1136 20.7474 50.1673 20.8079 50.2276C20.9422 50.3617 21.0564 50.5294 21.2109 50.6166C21.3922 50.7172 21.5467 50.8714 21.7146 50.9519C22.0034 51.086 22.2587 51.3207 22.6012 51.3409C22.6684 51.3409 22.7758 51.3744 22.8027 51.428C22.9303 51.656 23.2191 51.6359 23.3669 51.8237C23.5281 51.7768 23.5952 51.9645 23.7027 51.9712C23.8639 51.9846 23.9378 52.0785 24.0318 52.1657C24.0856 52.2194 24.146 52.2663 24.2132 52.32H24.8378C24.999 52.4876 25.1535 52.6351 25.3012 52.7894H25.7849C25.9326 53.0174 26.161 52.9369 26.3625 52.9503C26.4968 52.9503 26.6311 52.9637 26.7654 52.9503C26.8863 52.9369 26.9468 53.0241 27.0408 53.071C27.3968 53.2588 27.4036 53.2521 27.6386 53.6209C27.3901 54.03 27.3968 54.0636 27.8871 54.0703C28.1021 54.0703 28.2297 54.3318 28.4648 54.2446C28.4983 54.2312 28.5588 54.2782 28.5924 54.3117C28.7066 54.4257 28.8073 54.4458 28.9282 54.3251C28.9618 54.2916 29.0088 54.2446 29.0558 54.2446C29.3513 54.2379 29.6536 54.2044 29.9424 54.2513C30.1238 54.2849 30.2782 54.5062 30.4596 54.5397C30.6678 54.5732 30.8021 54.7945 31.0305 54.7275C31.0641 54.714 31.1581 54.761 31.1581 54.7878C31.1984 55.0829 31.4402 55.2036 31.6216 55.3847C31.7895 55.3645 31.9775 55.3981 32.0984 55.3243C32.2193 55.2505 32.3201 55.1969 32.4544 55.2103C32.6089 55.2237 32.7701 55.1701 32.9783 55.2841C33.0253 55.3377 33.1059 55.5054 33.2066 55.5188C33.3611 55.5389 33.4283 55.6596 33.5425 55.6864C33.6701 55.72 33.8111 55.6999 33.9455 55.6864C34.1201 55.673 34.3283 55.7669 34.4559 55.559C34.6373 55.559 34.8186 55.559 34.9932 55.559C35.094 55.7334 35.2619 55.6864 35.4231 55.6999C35.5306 55.7066 35.591 55.8608 35.5239 55.948C35.4366 56.062 35.2821 56.1358 35.2418 56.29C35.5105 56.3302 35.6784 56.2475 35.7455 56.0419H36.2829C36.7463 56.4912 36.7463 56.4912 37.2299 56.0218C37.5523 56.2431 37.7269 56.3302 38.0627 56.3369C38.2575 56.3369 38.3314 56.4845 38.4322 56.5918C38.4792 56.6387 38.4523 56.7661 38.4993 56.7997C38.5933 56.8667 38.6806 56.793 38.7747 56.7393C38.9627 56.632 39.1844 56.6253 39.3657 56.7192C39.4598 56.7728 39.527 56.8332 39.6479 56.8265C39.8359 56.8131 40.024 56.8332 40.212 56.8265C40.3464 56.8198 40.4135 57.0076 40.4605 56.9673C40.7023 56.7728 40.8904 56.4308 41.2464 56.8131C41.4277 56.8332 41.6091 56.8667 41.7904 56.793C41.8778 56.6991 41.9718 56.6052 42.0591 56.518C42.2807 56.4308 42.3479 56.7728 42.5628 56.6857C42.6501 56.8064 42.7442 56.86 42.8449 56.6991C42.9994 56.7192 43.0867 56.5582 43.2345 56.5515C43.3688 56.746 43.5703 56.6588 43.7517 56.6655C43.8994 56.6655 43.9062 56.7527 43.9263 56.8667C43.9397 56.9606 44.1211 57.0411 44.1614 56.9807C44.336 56.7326 44.6047 56.8734 44.8196 56.8131C45.133 56.5091 45.451 56.5135 45.7734 56.8265H46.0957C46.2099 56.7192 46.3241 56.6119 46.4584 56.4845C46.8077 56.6655 47.1637 56.8399 47.5532 57.0411C47.6473 56.9271 47.7279 56.8131 47.8219 56.7259C47.9294 56.6186 48.0704 56.6588 48.104 56.8131C48.1309 56.9338 48.1645 57.0076 48.2988 56.9941C48.3794 56.9941 48.4667 57.0076 48.5339 56.974C48.7152 56.8868 48.8697 56.7259 49.0577 56.6857C49.2861 56.632 49.5413 56.6722 49.7831 56.6722C49.9712 56.6722 50.1593 56.679 50.3473 56.6722C50.4145 56.6722 50.4817 56.6119 50.5488 56.5851C50.972 56.4174 51.1332 56.4845 51.3414 56.8801C51.3884 56.974 51.5362 57.0478 51.5899 56.9874C51.7511 56.8131 52.0332 56.8198 52.1608 56.5985C52.2213 56.4912 52.3421 56.4778 52.4295 56.5582C52.5101 56.632 52.584 56.6924 52.7049 56.679C52.8392 56.6655 52.9735 56.6588 53.1078 56.679C53.2019 56.6924 53.2892 56.7661 53.4168 56.8332H54.5452C54.6191 56.9338 54.7198 57.0545 54.8004 57.1618C55.0758 57.135 55.3176 57.2087 55.5392 57.0947C55.5392 57.021 55.5258 56.9271 55.5392 56.9271C55.7273 56.8667 55.8751 56.7259 56.0766 56.6655C56.2982 56.5985 56.3721 56.9003 56.5736 56.8332C56.6676 56.9271 56.7617 57.021 56.8624 57.1082C56.9565 57.1886 57.0505 57.1752 57.1378 57.088C57.2117 57.0076 57.2789 56.9204 57.3662 56.8667C57.4199 56.8332 57.5408 56.8332 57.5744 56.8667C57.796 57.1149 58.0848 56.9405 58.3871 57.0143C58.5214 56.8466 58.6692 56.6588 58.7766 56.518H59.8311C59.8647 56.6454 60.0192 56.6655 60.0528 56.8265C60.0864 56.9941 60.2274 57.0411 60.3147 56.9606C60.4289 56.8466 60.5498 56.7393 60.6573 56.6186C60.7782 56.4711 61.0065 56.518 61.114 56.3504C61.3155 56.3772 61.5506 56.2565 61.705 56.4778C61.8864 56.4912 62.061 56.5046 62.2155 56.5113C62.3364 56.3906 62.4237 56.2229 62.5312 56.2162C62.8804 56.176 62.8805 56.1961 63.0215 56.5113C63.1021 56.5113 63.1827 56.5247 63.2566 56.5113C63.4782 56.4644 63.6126 56.5851 63.7267 56.7393C63.9349 57.0277 63.9349 57.0344 64.1767 56.8131C64.2506 56.7393 64.3178 56.6521 64.4655 56.6857C64.6805 56.8868 64.882 57.1752 65.1506 57.3026C65.4596 57.4435 65.6074 57.7251 65.8357 57.8727C65.8693 58.1141 65.7551 58.3488 65.9768 58.503C65.9768 58.7512 66.0574 58.9523 66.2589 59.1133C66.3059 59.1535 66.326 59.2541 66.3193 59.3212C66.2857 59.5425 66.541 59.6632 66.494 59.8979C66.4805 59.9717 66.6216 60.0589 66.6417 60.1528C66.6888 60.3741 66.8701 60.5484 66.8163 60.81C66.776 61.0111 66.8097 61.2324 66.8097 61.5074C67.0918 61.4269 67.1992 61.6013 67.2932 61.7958C67.347 61.9098 67.4343 62.0171 67.4477 62.1311C67.4678 62.292 67.6828 62.3591 67.6223 62.5401C67.7835 62.6407 67.8037 62.795 67.7768 62.9559C67.7365 63.1839 67.8977 63.2845 68.0254 63.4187C68.2806 63.3784 68.2671 63.5394 68.2671 63.707C68.2671 63.7741 68.3074 63.8613 68.3612 63.9082C68.4619 64.0021 68.3477 64.0289 68.3276 64.0826C68.3007 64.1496 68.2537 64.277 68.2739 64.2905C68.4686 64.4112 68.4082 64.6861 68.6097 64.8068C68.6701 64.8404 68.7574 64.9342 68.744 64.9812C68.6768 65.2763 68.9052 65.4104 69.0933 65.6049V66.2621C69.2142 66.309 69.3754 66.3358 69.3888 66.3895C69.4627 66.7114 69.6709 66.9729 69.8119 67.2613C69.8724 67.3954 69.8455 67.5228 69.8925 67.6301C69.953 67.7643 70.0134 67.9118 70.094 68.0258C70.2149 68.1867 70.356 68.3343 70.4299 68.5355C70.5037 68.7433 70.6045 68.9579 70.7254 69.1323C70.8664 69.3402 70.9068 69.6353 71.1754 69.7359V70.8759C71.1754 70.9296 71.1754 70.9832 71.1754 71.0369C71.1754 71.057 71.209 71.0771 71.2224 71.0972C71.2761 71.1509 71.3299 71.2515 71.397 71.2582C71.7866 71.3051 71.8471 71.5532 71.8269 71.8818C71.8269 71.9489 71.8605 72.0227 71.8807 72.0897H72.2232C72.3575 72.3647 72.559 72.6195 72.4515 72.9481C72.6262 73.1292 72.7874 73.3035 72.9486 73.4779C72.9016 73.7596 73.3113 73.7864 73.271 74.068C73.4322 74.2424 73.5934 74.4168 73.7546 74.6045V74.913C74.0367 75.0069 74.2516 75.1813 74.3926 75.4227C74.4195 75.5635 74.3053 75.6172 74.2516 75.6976C74.1911 75.7915 74.2516 75.9458 74.3456 75.9458C74.48 75.9458 74.6143 75.9458 74.7486 75.9458C74.7956 75.9458 74.8763 75.9994 74.8695 76.0195C74.8494 76.2475 75.0442 76.328 75.1651 76.4621C75.3195 76.6365 75.4673 76.8913 75.521 77.1998C75.5479 77.3541 75.6419 77.4815 75.736 77.5016C76.0248 77.5687 76.1524 77.79 76.3405 77.9777V78.6014C76.4614 78.7221 76.5621 78.8764 76.6964 78.9434C76.8643 79.0172 77.0188 79.091 77.1397 79.2385C77.2673 79.3994 77.4755 79.4933 77.489 79.7415C77.489 79.7616 77.5696 79.7951 77.6166 79.8018C77.7912 79.8354 77.9054 79.9493 77.939 80.1036C77.9994 80.3785 78.4092 80.4926 78.2681 80.8547C78.3689 80.9352 78.4629 81.0559 78.5771 81.0827C78.698 81.1095 78.745 81.2034 78.8323 81.2504C78.9733 81.3241 78.8323 81.5857 79.0875 81.5857C79.2622 81.5857 79.3226 81.7868 79.4502 81.874C79.7457 82.0685 79.8398 82.4239 80.0816 82.6519C80.2965 82.8531 80.4174 83.1012 80.5249 83.3561C80.6323 83.6243 80.8271 83.6914 81.1025 83.6646C81.3577 83.9798 81.7406 84.1944 81.8883 84.6101C81.9488 84.7711 82.157 84.751 82.2712 84.8449C82.4928 85.0192 82.654 85.2606 82.9495 85.3612C83.0704 85.4015 83.1309 85.5289 83.1242 85.6898C83.1175 85.8105 83.0637 85.9581 83.1779 86.0654C83.2048 86.0654 83.2317 86.0788 83.2585 86.0788C83.8764 86.0654 83.7488 86.0654 83.9235 86.6019C83.9503 86.6823 84.0041 86.7025 84.0914 86.7293C84.3332 86.8165 84.5615 86.9238 84.7362 87.1249C84.8033 87.2054 84.8772 87.3261 84.9645 87.3463C85.3205 87.4133 85.4414 87.7419 85.6966 87.923C85.6563 88.151 85.8444 88.1242 85.9653 88.2046C86.1802 88.3522 86.516 88.3723 86.5496 88.7546C86.563 88.882 86.7847 88.9826 86.825 89.1167C86.8787 89.291 86.9929 89.3648 87.1138 89.4587C87.3019 89.4587 87.4899 89.4587 87.678 89.4587C87.7519 89.4587 87.8526 89.4453 87.9064 89.4922C88.0877 89.6331 88.296 89.7068 88.5109 89.7873C88.6251 89.8275 88.7124 89.9147 88.84 89.9617C89.0012 90.0153 89.0952 90.2366 89.2497 90.3305C89.4243 90.4378 89.6392 90.4914 89.74 90.6792C89.8542 90.8938 90.0825 90.9274 90.2572 91.0078C90.64 91.1822 90.9893 91.3767 91.2445 91.7053C91.4326 91.7053 91.6206 91.7589 91.8087 91.6583V90.9609C91.5468 90.7865 91.4259 90.4512 91.0699 90.3909C91.0027 90.3774 90.9221 90.2903 90.902 90.2232C90.8617 90.0354 90.7542 89.9013 90.6132 89.7806C90.4587 89.6465 90.3445 89.4855 90.1161 89.4252C89.9818 89.3916 89.8744 89.2173 89.7736 89.0966C89.693 89.0027 89.7132 88.9021 89.8139 88.8283C89.8945 88.768 89.8878 88.7143 89.8139 88.654C89.7333 88.5936 89.6863 88.4863 89.5587 88.4997C89.4512 88.5131 89.3437 88.5064 89.2362 88.4997C89.0885 88.493 89.0482 88.3656 89.1489 88.2114C89.1758 88.1644 89.2295 88.1376 89.2564 88.0974C89.3034 88.0169 89.2228 87.8693 89.1288 87.8626C89.0482 87.8559 88.9676 87.8693 88.887 87.8626C88.8467 87.8559 88.7728 87.7889 88.7795 87.7755C88.8937 87.5139 88.5847 87.3597 88.6116 87.1182C88.6183 87.0512 88.578 86.9774 88.5579 86.9104C88.3564 86.8835 88.1683 86.9573 87.9937 86.85C87.9467 86.6555 88.0071 86.4275 87.7653 86.2934C87.5772 86.1928 87.6579 85.8508 87.4161 85.8038C87.181 85.7636 87.0803 85.5624 86.9123 85.4618C86.6907 85.3277 86.7041 85.046 86.516 84.8985C86.2742 84.6973 86.1399 84.4224 86.019 84.1407C85.9048 83.8658 85.7638 83.5975 85.5959 83.3561C85.4884 83.2018 85.3877 83.0878 85.3608 82.8799C85.3407 82.6922 85.1727 82.5245 85.1996 82.3099C84.9511 82.0819 84.7563 81.7935 84.4137 81.6795C84.3667 81.6661 84.313 81.6125 84.2996 81.5655C84.2458 81.3509 84.0444 81.2302 83.9705 81.0559C83.8361 80.7474 83.6615 80.5462 83.3458 80.4389C83.2518 80.4054 83.0973 80.2981 83.1242 80.1371C83.1578 79.9561 83.0772 79.8286 82.9428 79.7281C82.8286 79.6409 82.7884 79.5269 82.7951 79.386C82.8018 79.2318 82.7951 79.091 82.9294 78.9501C82.9899 78.8898 82.9764 78.6752 82.9092 78.5947C82.8152 78.474 82.8018 78.3667 82.7951 78.2326C82.7884 78.0917 82.7145 78.0381 82.6003 78.0582C82.513 78.0783 82.4727 78.1186 82.4727 78.2192C82.4727 78.3734 82.5264 78.5343 82.4122 78.6886C82.2779 78.5746 82.2846 78.3801 82.1368 78.2728C82.0294 78.199 81.8816 78.2527 81.7943 78.1119C81.7271 77.9979 81.6129 77.9174 81.5122 77.8235V77.3407C81.3846 77.2132 81.2167 77.0992 81.1227 76.9383C81.0219 76.7706 80.9211 76.5963 80.854 76.4085C80.8204 76.3146 80.7398 76.2274 80.6525 76.1738C80.498 76.0799 80.5719 75.8787 80.4308 75.7781C80.3032 75.6842 80.3704 75.5233 80.3838 75.4026C80.3972 75.2483 80.2898 75.1746 80.189 75.0203C80.3167 74.9398 80.451 74.8527 80.4443 74.8527C80.6323 74.457 80.4644 74.3296 80.2764 74.2223C80.2025 74.2961 80.1286 74.3765 80.048 74.4503C79.9137 74.571 79.7457 74.5576 79.7457 74.4235C79.7457 74.2424 79.5644 74.182 79.5644 74.0077C79.5644 73.7998 79.289 73.9339 79.2084 73.773C79.1614 73.6858 79.0674 73.6187 79.0875 73.498C79.1077 73.3907 79.0606 73.3102 78.9935 73.2164C78.8927 73.0755 78.8726 72.8743 78.7047 72.7738C78.5032 72.6598 78.7047 72.4049 78.5368 72.2842C78.3688 72.1702 78.5166 71.969 78.4226 71.8483C78.3017 71.7008 78.1673 71.5733 78.0263 71.4526C77.9457 71.3856 78.0062 71.285 77.9659 71.238C77.8853 71.1375 77.7643 71.0503 77.8114 70.896C77.8651 70.7083 77.6166 70.6546 77.6502 70.4802C77.6703 70.3394 77.6367 70.2254 77.5225 70.1315C77.4016 70.0309 77.2942 69.9102 77.18 69.7962C77.18 69.7694 77.1733 69.7426 77.1733 69.7225C77.1733 69.6688 77.1599 69.6084 77.1733 69.5615C77.2808 69.253 77.0322 69.2262 76.8509 69.1457C76.8509 69.0384 76.8509 68.9311 76.8509 68.8238C76.6897 68.6562 76.4681 68.5288 76.5218 68.2337C76.5285 68.2001 76.4748 68.1465 76.4479 68.1063C76.3001 67.838 76.139 67.5698 76.1994 67.2412C76.2263 67.0936 76.1524 66.9863 76.0449 66.9059C76.0987 66.7248 75.8569 66.6577 75.877 66.4968C75.8972 66.3224 75.8367 66.195 75.7225 66.0743C75.6956 66.0475 75.7427 65.9201 75.7897 65.8731C75.924 65.739 75.9307 65.5445 75.8434 65.4439C75.6822 65.2427 75.6621 64.9409 75.3934 64.8404C75.3934 64.7129 75.3934 64.6056 75.3934 64.4983C75.3934 64.2569 75.4001 64.2502 75.2255 63.9216C75.1315 63.7473 75.0307 63.5662 74.9568 63.3918C74.8762 63.1839 74.9165 62.9291 74.9098 62.6877C74.9098 62.5334 74.9434 62.3658 74.7755 62.2585C74.7755 62.2585 74.8091 62.178 74.8426 62.1512C74.93 62.064 74.9636 61.95 74.8628 61.8829C74.715 61.7824 74.7688 61.6013 74.6479 61.4806C74.5068 61.3465 74.6076 61.1251 74.5874 60.9508C74.5874 60.8971 74.5874 60.8435 74.5874 60.7965C74.527 60.7362 74.4665 60.6825 74.4128 60.6222C74.359 60.5685 74.312 60.5082 74.2718 60.4612C74.2449 60.2399 74.3523 60.0186 74.1374 59.851C74.1038 59.8242 74.1106 59.69 74.1509 59.6431C74.2113 59.5559 74.2986 59.4888 74.2449 59.2742C74.124 59.1804 73.9359 59.0328 73.7949 58.9188C73.768 58.5634 73.8755 58.2616 73.6269 58.0269C73.6337 57.8727 73.6471 57.7117 73.6538 57.5575C73.8621 57.43 73.7747 57.2289 73.7881 57.0478C73.8016 56.9204 73.7613 56.793 73.8755 56.679C74.0367 56.5314 73.862 56.2833 73.9628 56.1559C74.077 56.0083 74.3255 55.9882 74.4329 55.7937C74.4464 55.7736 74.4329 55.7401 74.4329 55.7133C74.4329 55.6194 74.4867 55.5456 74.574 55.5657C74.8494 55.6328 75.0307 55.2908 75.3195 55.3914C75.3531 55.4048 75.4337 55.2975 75.4942 55.2371C75.5681 55.3713 75.7494 55.4182 75.736 55.6261C75.7292 55.7133 75.924 55.7602 75.9912 55.6931C76.1994 55.5054 76.3606 55.2438 76.6628 55.1835C76.8106 54.9689 77.1464 55.1701 77.274 54.9152C77.5226 54.8683 77.8114 55.0427 78.0263 54.7878C78.2882 54.7744 78.5569 54.7677 78.8188 54.7543C78.8994 54.7543 78.9801 54.7543 79.0607 54.7543C79.1144 54.7543 79.1614 54.7677 79.2084 54.7811C79.3024 54.875 79.3965 54.9689 79.4972 55.0695H79.8263C79.9271 54.9689 80.048 54.8616 80.1555 54.7543C80.3905 54.7543 80.6323 54.7073 80.8204 54.9085C80.8406 54.9286 80.9614 54.875 81.0219 54.8415C81.0891 54.8012 81.1428 54.7409 81.2033 54.6872C81.0488 54.5464 80.7935 54.5665 80.7331 54.3385C80.7532 54.3184 80.7734 54.2849 80.7868 54.2849C81.0152 54.2983 81.2704 54.1977 81.445 54.4391C81.6936 54.3922 81.9824 54.5665 82.1973 54.3184C82.56 54.2714 82.9227 54.2178 83.2786 54.3519C83.3189 54.3653 83.3861 54.4123 83.3861 54.4056C83.5809 54.1172 83.7421 54.3922 83.9167 54.4324C84.0108 54.4525 84.0712 54.3989 84.0914 54.3184C84.1182 54.1977 84.0443 54.0501 84.172 53.9495C84.4003 53.9697 84.6488 53.8758 84.8369 54.1038C84.8772 54.1574 85.0653 54.144 85.1392 54.0904C85.2466 54.0166 85.3339 53.9294 85.4884 53.9428C85.6429 53.963 85.8041 53.9093 85.925 54.077C85.9518 54.1105 86.1063 54.1105 86.1265 54.077C86.2205 53.9227 86.422 53.9831 86.5295 53.8557C86.6437 53.7148 86.7578 53.7819 86.8586 53.8959C86.9459 53.9965 87.1273 53.916 87.1944 54.0636C87.2213 54.1239 87.2549 54.0904 87.3086 54.0434C87.4093 53.9697 87.5302 53.9294 87.6377 53.8691C87.6377 53.7081 87.6377 53.5472 87.6377 53.3862C87.6377 53.3661 87.6713 53.346 87.6982 53.3192C87.7653 53.3192 87.8527 53.3326 87.9198 53.299C88.1616 53.1985 88.2892 53.4801 88.4974 53.46C88.5579 53.5673 88.6183 53.6679 88.6721 53.7752C88.7191 53.8624 88.7325 53.9697 88.793 54.0434C88.8333 54.0904 88.9474 54.1172 89.0012 54.0904C89.0482 54.0636 89.1019 53.9361 89.0751 53.8959C89.0079 53.7819 88.9071 53.6947 88.8198 53.6008C88.7124 53.4801 88.746 53.3259 88.887 53.3058C89.0146 53.2856 89.1288 53.3058 89.2564 53.2253C89.4848 53.0643 89.7937 53.071 90.0019 53.2052C90.2102 53.3393 90.405 53.2789 90.6064 53.3058C90.7206 53.1985 90.8348 53.0912 90.949 52.9772C91.0565 52.9839 91.1908 52.9503 91.2647 53.004C91.3587 53.0777 91.4729 53.1515 91.5064 53.299C91.5467 53.4734 91.6677 53.5069 91.7751 53.4265C91.7953 53.4131 91.8154 53.3929 91.8289 53.3728C91.9296 53.2052 92.1378 53.1917 92.2654 53.0777C92.44 52.9302 92.6147 53.004 92.7893 52.9839C92.8699 52.9772 92.9505 52.9839 93.0849 52.9839C93.1587 52.8833 93.2528 52.7558 93.3132 52.6687C93.5819 52.6351 93.8035 52.7357 93.9781 52.5278C94.0252 52.4742 94.2401 52.4608 94.2737 52.5077C94.4483 52.7558 94.8043 52.548 94.9655 52.8162C94.9789 52.8363 95.12 52.8095 95.1737 52.7626C95.2745 52.6821 95.3886 52.6083 95.3752 52.4407C95.3752 52.4138 95.5028 52.3334 95.5498 52.3468C95.6439 52.3736 95.7178 52.4675 95.8118 52.4943C95.9327 52.5278 96.0804 52.4474 96.1745 52.5815C96.2416 52.6754 96.2887 52.6083 96.3491 52.5681C96.4499 52.501 96.5707 52.4541 96.6782 52.3937C96.826 52.3065 96.9872 52.2864 97.1148 52.3937C97.2827 52.5413 97.4372 52.5345 97.6118 52.4272C97.7596 52.3401 97.9073 52.2395 98.0685 52.1724C98.2768 52.0852 98.4715 51.9712 98.7268 51.9981C98.9215 52.0182 99.1633 52.0852 99.3044 51.8572C99.5596 51.884 99.8148 51.77 100.07 51.9444C100.245 52.0651 100.5 52.0785 100.648 51.9444C100.809 51.7902 101.017 51.9444 101.158 51.7902C101.326 51.6091 101.561 51.7164 101.763 51.6963C101.978 51.6762 102.199 51.656 102.407 51.6963C102.676 51.7633 102.824 51.4884 103.066 51.5286C103.341 51.361 103.717 51.4079 103.946 51.1061C104.04 50.9787 104.241 50.9921 104.369 51.1061C104.537 51.2537 104.691 51.2537 104.866 51.133C105.148 50.9385 105.457 50.8513 105.806 50.8781C106.128 50.8982 106.451 50.858 106.773 50.8915C107.049 50.9251 107.237 50.63 107.512 50.7172C107.539 50.7239 107.599 50.6635 107.626 50.6233C107.761 50.4221 107.949 50.3685 108.177 50.3953C108.278 50.2343 108.439 50.2544 108.593 50.2276C108.761 50.2008 108.889 50.0197 109.09 50.0734C109.272 50.127 109.366 49.9393 109.507 49.9191C109.782 49.8856 110.084 49.9661 110.326 49.7515C110.541 49.7515 110.756 49.7515 110.971 49.7515C111.018 49.7515 111.065 49.7247 111.132 49.7045C111.213 49.6174 111.3 49.5235 111.388 49.4229C111.549 49.4497 111.71 49.3759 111.838 49.5436C111.905 49.6375 112.032 49.6107 112.106 49.5168C112.167 49.4363 112.274 49.4028 112.281 49.2686C112.294 49.0943 112.422 48.9803 112.583 48.9602C112.744 48.94 112.899 48.9602 112.999 48.7925C113.214 48.8797 113.282 48.5377 113.49 48.6249C113.685 48.4103 113.879 48.3901 114.101 48.598C114.188 48.6785 114.289 48.6316 114.376 48.5511C114.591 48.3566 114.605 48.0481 114.773 47.8268H115.417C115.532 47.6323 115.794 47.6726 115.928 47.5049C115.941 47.4915 115.982 47.5116 116.009 47.5049C116.123 47.4513 116.237 47.4043 116.344 47.344C116.391 47.3239 116.425 47.2903 116.472 47.2635C116.667 47.1428 116.734 46.8477 117.029 46.8544C117.063 46.8544 117.09 46.6667 117.15 46.5929C117.251 46.4722 117.345 46.3716 117.547 46.3716C117.768 46.3716 117.95 46.1704 118.191 46.1905C118.339 45.996 118.722 46.0564 118.729 45.701C119.004 45.3522 119.306 45.0371 119.709 44.8292C119.864 44.7487 119.938 44.7822 120.052 44.8761C120.159 44.97 120.233 44.9566 120.321 44.8761C120.455 44.7554 120.556 44.5944 120.764 44.5877C120.824 44.5877 120.912 44.4939 120.932 44.4268C120.992 44.2189 121.133 44.0781 121.274 43.9238C121.335 43.8568 121.341 43.7428 121.375 43.6623C121.577 43.6355 121.765 43.7226 121.953 43.5885C121.939 43.5215 121.953 43.441 121.912 43.3806C121.697 43.0051 121.751 42.8978 122.08 42.6966C122.141 42.6564 122.228 42.6497 122.282 42.6027C122.47 42.4216 122.564 42.5893 122.671 42.6899C122.772 42.6161 122.792 42.5155 122.718 42.4216C122.638 42.3144 122.524 42.2339 122.443 42.1333C122.416 42.0998 122.409 41.9992 122.436 41.9857C122.651 41.8248 122.712 41.5566 122.886 41.3621C123.047 41.181 123.209 40.9932 123.403 40.8524C123.598 40.7116 123.833 40.6244 124.048 40.5104C124.008 40.0812 124.162 39.7459 124.458 39.4642C124.592 39.3368 124.727 39.2094 124.847 39.0954V38.7467C124.807 38.7064 124.767 38.6662 124.733 38.6327C124.619 38.5187 124.633 38.5187 124.686 38.2169C124.713 38.0626 124.673 37.895 124.841 37.7944C124.8 37.5731 124.989 37.4054 125.002 37.2244C125.042 36.6946 125.022 36.1514 125.009 35.6216C125.009 35.5545 124.928 35.4942 124.908 35.4271C124.881 35.3601 124.841 35.2393 124.868 35.2192C125.022 35.1052 125.022 34.9577 125.015 34.79C125.015 34.4681 125.015 34.1462 125.015 33.8243C125.015 33.7439 125.036 33.6299 124.995 33.5963C124.767 33.4019 124.881 33.1537 124.861 32.9257C124.848 32.7648 124.861 32.6038 124.861 32.4429C124.861 32.2886 124.847 32.1277 124.834 31.9734C124.579 31.8661 124.794 31.5711 124.612 31.4235C124.445 31.2894 124.646 30.9809 124.384 30.8803C124.384 30.773 124.384 30.6657 124.384 30.5584C124.384 30.4511 124.431 30.2902 124.377 30.25C124.136 30.0622 124.256 29.8074 124.223 29.6062C124.109 29.472 124.008 29.3513 123.907 29.2306C123.961 28.949 123.719 28.7746 123.652 28.5332C123.632 28.4594 123.578 28.3856 123.591 28.3186C123.659 28.0302 123.477 27.8223 123.356 27.6077C123.249 27.42 123.209 27.2724 123.336 27.1115C123.484 26.9237 123.424 26.7158 123.397 26.5146C123.397 26.4878 123.256 26.4409 123.189 26.461C123.121 26.4811 123.074 26.5549 123.014 26.6085C122.94 26.5347 122.859 26.4543 122.779 26.3738V25.9446C122.611 25.5691 122.228 25.5154 121.966 25.2405C122.006 24.9186 121.899 24.5631 122.121 24.2144C122.241 24.0266 122 23.7316 121.771 23.7182C121.691 23.7182 121.603 23.698 121.53 23.7182C121.268 23.7919 121.1 23.584 120.891 23.5036C120.643 23.4164 120.623 23.1951 120.764 22.9134C120.835 22.7614 120.804 22.6541 120.67 22.5915C120.173 22.359 119.754 22.0729 119.414 21.7331C119.3 21.6191 119.185 21.5051 119.071 21.3911V21.0625C118.856 20.9016 118.729 20.573 118.353 20.6668C118.212 20.5461 118.084 20.4455 118.091 20.2175C118.091 20.0231 117.909 19.8688 117.748 19.8688C117.506 19.8688 117.271 19.8688 117.09 19.8688C116.814 19.7079 116.741 19.386 116.418 19.386C116.23 19.1982 116.049 18.997 115.841 18.8294C115.706 18.7221 115.538 18.6617 115.377 18.5879C115.297 18.5544 114.981 18.3331 114.961 18.266L114.517 17.8234C114.235 17.7765 114.088 17.5552 113.947 17.4009C113.873 17.24 113.98 17.0925 113.832 16.9785C113.765 16.9785 113.691 16.9785 113.611 16.9785C113.517 16.9852 113.436 16.9449 113.436 16.8712C113.449 16.67 113.282 16.6163 113.161 16.4822C113.141 16.5694 113.127 16.6431 113.1 16.7102C113.06 16.8108 112.899 16.8645 112.845 16.7974C112.637 16.5157 112.254 16.4621 112.059 16.1737H111.576C111.428 16.0731 111.367 15.8317 111.146 15.8585C110.958 15.8786 110.857 15.7781 110.736 15.664C110.568 15.5031 110.353 15.4226 110.132 15.369C110.098 15.3623 109.534 15.1141 109.52 15.094C109.399 14.9398 109.238 14.8995 109.043 14.8727C108.842 14.8392 108.902 14.4972 108.681 14.4234C108.634 14.41 108.58 14.41 108.526 14.4033C108.204 14.3429 108.137 14.2692 108.096 13.9674C108.09 13.8936 108.056 13.8266 108.036 13.7595H107.532C107.418 13.8601 107.344 14.0143 107.136 13.8601C106.894 13.679 106.605 13.5583 106.276 13.5985C106.202 13.6053 106.081 13.6053 106.055 13.565C105.961 13.4108 105.759 13.4778 105.658 13.3437C105.544 13.1962 105.416 13.0621 105.316 12.9548C105.094 12.9548 104.926 12.9346 104.772 12.9548C104.584 12.9883 104.53 12.7536 104.355 12.7871C104.107 12.8408 103.959 12.5323 103.697 12.6262C103.415 12.72 103.22 12.4786 102.978 12.425C102.911 12.4116 102.844 12.311 102.784 12.3177C102.562 12.3512 102.434 12.2372 102.307 12.0897C102.273 12.0494 102.219 11.9891 102.193 11.9958C101.91 12.083 101.729 11.7812 101.454 11.8214C101.219 11.8549 100.97 11.8013 100.728 11.8348C100.446 11.8751 100.231 11.7342 99.9895 11.6739C99.8887 11.6471 99.788 11.6739 99.7007 11.58C99.5999 11.466 99.3984 11.5062 99.3111 11.352C99.2036 11.1508 99.0021 11.1843 98.8208 11.1843C98.6462 11.01 98.4782 10.8423 98.3103 10.6747C98.1626 10.5338 98.1626 10.5271 97.9208 10.6545C97.7663 10.735 97.632 10.7417 97.4842 10.6545C97.417 10.6143 97.3498 10.5472 97.2894 10.5539C97.108 10.5808 96.9939 10.4869 96.873 10.3729C96.6513 10.1583 96.6312 10.165 96.2685 10.3662C96.2282 10.3863 96.1678 10.3796 96.1409 10.3863C96.02 10.2656 95.9058 10.1516 95.8185 10.0711H95.2812C95.12 10.0711 94.9588 10.0711 94.7976 10.0711C94.6095 10.0778 94.455 10.051 94.2871 9.92357C94.1864 9.8498 93.9782 9.91016 93.8035 9.91016C93.6088 9.53461 93.1587 9.53461 92.8632 9.28648C92.8028 9.23284 92.655 9.27978 92.5408 9.27978C92.4401 9.37366 92.3259 9.48096 92.1916 9.60838C92.1714 9.51449 92.1445 9.44073 92.1378 9.36696C92.1311 9.26637 92.1647 9.13895 92.0236 9.11212C91.9632 9.09871 91.8692 9.13895 91.8154 9.18589C91.6744 9.3066 91.5467 9.44743 91.4124 9.58156C91.3587 9.63521 91.2042 9.56814 91.1639 9.47426C91.137 9.4072 91.1236 9.2999 91.0766 9.27978C91.0228 9.25295 90.9356 9.3066 90.8617 9.33343C90.8415 9.34013 90.8281 9.38037 90.8012 9.38708C90.7005 9.4072 90.5997 9.42731 90.499 9.43402C90.3445 9.43402 90.3848 9.3066 90.3512 9.21272C90.2639 8.96459 89.9751 8.97129 89.8005 8.81705C89.6796 8.70975 89.5788 8.864 89.4713 8.93776C89.431 8.96459 89.3169 8.93776 89.2631 8.89753C89.0885 8.79023 88.9138 8.69634 88.7258 8.64269C88.578 8.59575 88.3967 8.60246 88.2489 8.64269C88.034 8.69634 87.94 8.47504 87.7519 8.47504C87.4967 8.47504 87.2213 8.5421 87.0131 8.31409C86.8116 8.33421 86.5832 8.23362 86.422 8.45492C86.4018 8.48175 86.2608 8.46833 86.2138 8.4281C86.1198 8.34762 86.0056 8.27385 86.0056 8.11291C86.0056 7.96537 85.8645 7.9989 85.7638 7.99219C85.6429 7.97878 85.5757 8.06596 85.4884 8.1062C85.2332 8.2135 84.9981 8.38786 84.6892 8.3208C84.5615 8.29397 84.4272 8.3208 84.3197 8.3208C84.219 8.2202 84.1182 8.15985 84.0712 8.06596C83.957 7.85807 83.7153 7.86478 83.5608 7.73065C83.4264 7.61665 83.2518 7.69042 83.0973 7.68371C82.8018 7.6703 82.5063 7.68371 82.2913 7.68371C82.1369 7.60994 82.0428 7.52276 81.9622 7.53618C81.848 7.54959 81.7406 7.66359 81.6264 7.67701C81.5055 7.69042 81.4182 7.55629 81.2973 7.50935C81.1293 7.44229 80.9883 7.3417 80.7935 7.36182C80.5584 7.38864 80.2965 7.28134 80.095 7.41546C79.8532 7.57641 79.6652 7.56971 79.4771 7.36182C79.2487 7.36182 79.0808 7.13381 78.8188 7.19416C78.5972 7.2411 78.3621 7.16734 78.1539 7.35511C78.0935 7.40876 77.9188 7.38193 77.7912 7.28805C77.5427 7.10698 77.2539 6.97956 76.9248 7.03992C76.8711 7.04663 76.8173 7.03992 76.7569 7.03992C76.6427 6.93262 76.5285 6.82532 76.4211 6.71802C76.28 6.71802 76.1389 6.73814 76.0113 6.71802C75.8434 6.68449 75.7225 6.52354 75.5143 6.55708C75.333 6.5839 75.1449 6.55708 74.9568 6.54366C74.9031 6.49001 74.8427 6.42966 74.7822 6.37601C74.5673 6.18153 74.5404 6.18153 74.4061 6.42966C74.3792 6.4766 74.3658 6.52354 74.3322 6.55708C74.1844 6.74485 74.0165 6.79179 73.7881 6.65767C73.6941 6.60402 73.6135 6.55708 73.5061 6.56378C73.1837 6.56378 72.8613 6.56378 72.5523 6.56378C72.5254 6.59061 72.5053 6.61072 72.4851 6.63084C72.2769 6.86556 72.0687 7.05333 71.753 6.75155C71.6926 6.6912 71.4911 6.72473 71.3903 6.77838C71.2963 6.81862 71.2359 6.9058 71.115 6.89238C71.0075 6.87897 70.9 6.89238 70.7926 6.89238C70.665 6.87897 70.5239 6.94603 70.4097 6.85215C70.3426 6.68449 70.2754 6.52354 70.2149 6.3626C70.1679 6.22847 70.0538 6.262 69.953 6.24859C69.8321 6.23518 69.7649 6.34918 69.6776 6.3693C69.456 6.41625 69.2948 6.65767 69.0328 6.57719C68.7507 6.49001 68.5291 6.67779 68.3209 6.79179C68.106 6.9058 67.9582 6.93262 67.7634 6.79179C67.6291 6.6912 67.4611 6.68449 67.3335 6.7985C67.2193 6.89909 67.1119 6.95274 66.9977 6.81862C66.9171 6.72473 66.8164 6.73144 66.7089 6.73144C66.2522 6.73144 65.7955 6.73144 65.3387 6.73144C65.2984 6.73144 65.2514 6.77838 65.2111 6.81191C65.2178 6.91921 65.238 7.03321 65.0835 7.05333C64.7611 7.10028 64.4656 6.98627 64.2305 6.78509C64.0894 6.66437 63.935 6.59731 63.7738 6.51013C63.5051 6.3626 63.4245 6.3693 63.223 6.54366C63.1424 6.61072 63.0551 6.73814 62.9812 6.72473C62.6857 6.68449 62.5581 6.89909 62.3834 7.05333H61.5036C61.4431 6.96615 61.3491 6.83873 61.2752 6.73144C61.0065 6.72473 60.7647 6.77838 60.5834 6.59731C60.4289 6.75155 60.2811 6.89909 60.1267 7.05333C59.7237 7.05333 59.3207 7.05333 58.9177 7.05333C58.7095 7.05333 58.4878 7.11369 58.34 6.89238C58.2124 6.91921 58.0982 6.87897 57.9572 6.95274C57.5945 7.14722 57.4938 7.09357 57.3057 6.72473C57.2184 6.55708 57.1311 6.51684 57.0303 6.61072C56.9296 6.69791 56.8422 6.7985 56.7482 6.89238C56.6878 6.83873 56.6273 6.73814 56.5669 6.73814C56.1639 6.72473 55.7609 6.73144 55.3579 6.73814C55.3109 6.73814 55.2706 6.77838 55.237 6.7985C55.2101 6.87897 55.2101 6.97956 55.1631 7.0198C55.0221 7.13381 54.787 6.97286 54.6661 7.19416C54.6459 7.2344 54.5183 7.22099 54.4444 7.22769C54.2362 7.2411 54.0213 7.24781 53.8131 7.26122C53.6586 7.48923 53.4235 7.36182 53.222 7.39535C53.175 7.40205 53.1481 7.46241 53.1011 7.48923C52.8526 7.60324 52.5772 7.61665 52.3489 7.48923C52.0869 7.3484 51.8854 7.32828 51.6235 7.48923C51.5093 7.563 51.3212 7.52276 51.1667 7.54288C51.019 7.563 50.9384 7.73736 50.7503 7.71054C50.4212 7.65689 50.0585 7.81783 49.7697 7.54288C49.6152 7.55629 49.407 7.50265 49.313 7.58983C49.1652 7.71724 49.0242 7.70383 48.8697 7.70383C48.6548 7.70383 48.4398 7.70383 48.2249 7.70383C48.151 7.70383 48.0436 7.70383 48.0033 7.74407C47.8286 7.93855 47.607 7.83125 47.4055 7.85807C47.2577 8.07937 47.0361 8.01231 46.8279 8.01902C46.6398 8.01902 46.4517 8.01902 46.3308 8.01902C46.1898 8.09279 46.0957 8.17997 46.0152 8.16655C45.901 8.15314 45.7935 8.04584 45.6793 8.01902C45.5517 7.99219 45.4174 8.01902 45.3233 8.01902C45.1756 7.91172 45.1151 7.75077 44.9606 7.73065C44.833 7.86478 44.9741 8.03914 44.8465 8.18667C44.6987 8.35433 44.5308 8.35433 44.289 8.34762C44.2218 8.44151 44.1278 8.56893 44.0673 8.65611H42.5695C42.5024 8.58904 42.4419 8.52869 42.3882 8.47504C42.2068 8.30738 42.1531 8.30068 41.9987 8.44821C41.9248 8.52198 41.8576 8.60916 41.7971 8.66952H41.2867C41.0583 8.88412 40.8635 9.21942 40.5008 8.85058C40.474 8.82376 40.4001 8.83047 40.3531 8.83047C40.165 8.83047 39.9769 8.83717 39.7889 8.83047C39.6613 8.82376 39.5874 8.90423 39.5336 8.98471C39.4598 9.0853 39.4195 9.20601 39.359 9.31331C39.1709 9.31331 38.9762 9.34684 38.7948 9.3066C38.5799 9.25966 38.4725 9.46085 38.2978 9.47426C38.0426 9.49438 37.7672 9.40049 37.559 9.63521C37.4314 9.61509 37.3037 9.67544 37.1828 9.56814C37.0955 9.48767 36.9478 9.46755 36.8605 9.38708C36.6926 9.23954 36.4911 9.29319 36.3299 9.32672C36.162 9.36025 36.0411 9.53461 36.0343 9.7358C36.0343 9.75592 36.0007 9.77604 35.9806 9.78945C35.7992 9.80957 35.6112 9.7358 35.4366 9.8431C35.4164 9.97051 35.3962 10.0979 35.3828 10.2253C35.1007 10.279 34.9597 10.507 34.7649 10.6747C34.7112 10.7216 34.6171 10.7149 34.5567 10.7551C34.4358 10.849 34.3216 10.963 34.2074 10.7551C34.0731 10.7551 33.9388 10.7685 33.8044 10.7551C33.7037 10.7417 33.6096 10.6747 33.4955 10.6277C33.482 10.7954 33.4753 10.9161 33.4552 11.124C33.294 11.0234 33.1328 11.1709 32.9984 11.0033C32.9984 10.9496 32.9984 10.896 32.9984 10.849C32.985 10.7753 32.985 10.6747 32.938 10.6344C32.8439 10.5607 32.7499 10.6076 32.6626 10.6881C32.5619 10.782 32.5014 10.8826 32.488 11.0234C32.488 11.0502 32.4074 11.077 32.3604 11.0837C32.2663 11.1039 32.2059 11.0502 32.1924 10.9697C32.1723 10.8155 32.179 10.6545 32.1589 10.5003C32.1589 10.4735 32.0715 10.4467 32.0245 10.4467C31.9775 10.4467 31.9305 10.4802 31.8902 10.507C31.8768 10.5204 31.8701 10.554 31.8701 10.5741C31.8701 10.7551 31.9238 10.9697 31.6148 10.9362C31.5477 11.0435 31.3797 11.0837 31.3864 11.2447C31.3864 11.3453 31.3394 11.3922 31.2588 11.4056C31.1782 11.419 31.0909 11.3855 31.017 11.4123C30.8961 11.466 30.782 11.6403 30.6611 11.4123C30.5066 11.419 30.3588 11.3587 30.2178 11.5062C30.1237 11.6068 30.0969 11.58 29.9491 11.5062C29.6805 11.3587 29.5931 11.3587 29.3984 11.5331C29.2842 11.6403 29.1834 11.7611 28.9954 11.7342C28.9349 11.7275 28.8476 11.7745 28.7939 11.8214C28.6931 11.9086 28.5789 11.9958 28.5118 12.1031C28.4245 12.2372 28.2633 12.1701 28.1692 12.2707C28.0819 12.3646 27.9812 12.5054 27.8737 12.5189C27.7394 12.5256 27.5983 12.425 27.4841 12.378C27.3632 12.4987 27.2491 12.6127 27.1617 12.6999C26.8729 12.6798 26.6177 12.7871 26.4498 12.539C26.2349 12.539 26.0199 12.5323 25.805 12.539C25.6236 12.5524 25.4356 12.4719 25.2677 12.5993C25.2677 12.653 25.2341 12.7133 25.2542 12.7536C25.308 12.8676 25.4826 12.9413 25.402 13.0889C25.3416 13.1962 25.2274 13.3035 25.1132 13.3303C24.999 13.3638 24.9386 13.4309 24.858 13.4913C24.7774 13.5449 24.6565 13.4913 24.6095 13.3907C24.3811 12.9548 24.3878 12.9615 23.9244 13.1425C23.8303 13.1761 23.7161 13.1559 23.6221 13.1895C23.4743 13.2431 23.3199 13.337 23.3333 13.5114C23.34 13.7394 23.293 13.8534 23.031 13.8333C22.9236 13.8333 22.8094 13.9607 22.6952 13.9808C22.487 14.0143 22.4266 14.2222 22.2587 14.3161H21.7952C21.7348 14.3765 21.6743 14.4368 21.6206 14.4905C21.4527 14.6581 21.4392 14.6782 21.2377 14.5374C21.1101 14.4502 20.9825 14.4771 20.8616 14.4771C20.8213 14.4771 20.7877 14.5911 20.7542 14.6514C20.7273 14.6917 20.7071 14.7386 20.6802 14.7855H20.3579C20.2504 14.6849 20.1362 14.5777 20.022 14.4704C19.9414 14.5508 19.8608 14.6246 19.787 14.7051V15.0337C19.5788 15.2349 19.3705 15.4427 19.1623 15.6506C19.2026 15.9122 18.9541 15.8921 18.8265 15.9792C18.7459 16.0329 18.6116 16.0329 18.5578 16.0999C18.4369 16.2542 18.2824 16.2475 18.128 16.2274C17.8996 16.2072 17.6578 16.3078 17.4563 16.0932C17.3623 15.9927 17.2279 16.0932 17.2078 16.2609C17.1608 16.5962 17.1003 16.67 16.7981 16.7102C16.6839 16.7236 16.61 16.7907 16.5227 16.8242C16.3481 16.8913 16.2204 17.012 16.0727 17.1059C15.9048 17.2199 15.7234 17.3071 15.5689 17.4546C15.4212 17.5954 15.3204 17.8033 15.0719 17.8503C15.0182 17.8033 14.9577 17.7228 14.8973 17.7161C14.7227 17.696 14.8234 17.8503 14.7831 17.924C14.7294 18.0112 14.6152 18.0514 14.6219 18.1789C14.6354 18.3935 14.4002 18.266 14.3398 18.3666C14.2122 18.5812 13.9436 18.6081 13.7824 18.7623C13.6077 18.93 13.4398 19.1043 13.2719 19.272C13.0435 19.4933 12.8219 19.7213 12.6338 19.909C12.3316 19.9627 12.0427 19.8152 11.8345 20.0633C11.6062 20.0633 11.3577 20.1639 11.1763 19.9225C11.0621 20.0298 10.948 20.1371 10.8338 20.2444H10.5181C10.4375 20.3248 10.3636 20.3986 10.283 20.4791V21.6124C10.189 21.6996 10.1017 21.7935 10.0009 21.8807C9.94719 21.9276 9.88 21.988 9.81284 22.0014C9.63821 22.0349 9.51732 22.1489 9.49046 22.3032C9.46359 22.4574 9.36955 22.5781 9.2688 22.6049C9.08074 22.6653 8.87253 22.7525 8.85238 22.9067C8.81879 23.1548 8.55013 23.2152 8.51655 23.4164C8.47625 23.6779 8.30162 23.7249 8.10012 23.8053C7.93221 23.8724 7.81804 24.04 7.86506 24.2614C7.88521 24.3351 7.86506 24.4223 7.86506 24.4894C7.72401 24.6771 7.46207 24.7911 7.53595 25.0929C7.54267 25.1264 7.50234 25.1935 7.46204 25.2203C7.20681 25.3813 7.21352 25.7367 6.95158 25.8977C6.91799 25.9178 6.88444 25.9982 6.89787 26.0318C6.97175 26.2464 6.75682 26.3537 6.72324 26.528C6.70309 26.6487 6.60232 26.7493 6.57545 26.8633C6.54858 26.9908 6.57545 27.1249 6.57545 27.145C6.40754 27.3596 6.29338 27.5004 6.18592 27.6413C5.89711 27.4401 5.67543 27.4065 5.61498 27.5608C5.52095 27.8022 5.7762 27.7553 5.88366 27.8357C6.02471 27.9497 6.1456 28.0906 6.25307 28.1979C6.25307 28.4326 6.25307 28.6204 6.25307 28.8081C6.25307 28.8819 6.25308 28.9758 6.21949 29.0361C6.09188 29.2239 5.99784 29.4251 5.92396 29.6397C5.89038 29.7269 5.71573 29.7604 5.60826 29.8208C5.58811 29.8342 5.56799 29.861 5.54784 29.8744C5.4135 29.9951 5.41352 30.0152 5.52098 30.203C5.58143 30.3103 5.63517 30.4243 5.6889 30.5316C5.80308 30.4243 5.93741 30.2231 6.06502 30.4444C6.14562 30.5853 6.09188 30.8066 6.09188 30.9943C6.09188 31.1821 6.09188 31.3699 6.09188 31.5577C6.09859 31.7387 6.05831 31.9667 6.15234 32.0942C6.28667 32.2752 6.2262 32.4429 6.25307 32.6172C6.25978 32.6642 6.27323 32.7312 6.30681 32.7514C6.43443 32.8452 6.35383 32.8922 6.30681 32.9861C6.24636 33.0867 6.26649 33.2275 6.23962 33.422C6.36052 33.4957 6.49487 33.5829 6.55532 33.6165C6.58219 33.8713 6.55531 34.0591 6.62919 34.1731C6.76352 34.381 6.81053 34.6626 7.07919 34.7766C6.91128 34.9443 6.75682 35.0985 6.60234 35.2528V35.9502C6.86653 35.9949 7.07474 36.091 7.22698 36.2386V36.6409C7.17324 36.6409 7.12624 36.6409 7.07251 36.6409C6.93818 36.6342 6.89788 36.708 6.9046 36.822C6.9046 36.9092 6.9583 36.9561 7.04562 36.9628C7.1598 36.9628 7.24041 36.9293 7.22698 36.7952C7.22698 36.7415 7.22698 36.6946 7.22698 36.6745L7.17996 36.6074ZM119.991 45.7345C119.844 45.7345 119.743 45.7345 119.642 45.7345C119.548 45.7345 119.461 45.8954 119.515 45.9625C119.582 46.043 119.649 46.1302 119.729 46.1838C119.783 46.2173 119.871 46.2039 119.938 46.1838C119.965 46.1771 119.985 46.1033 119.991 46.0564C119.998 45.9759 119.991 45.9021 119.991 45.7345ZM59.6565 57.3093C59.5222 57.3093 59.4416 57.3026 59.361 57.3093C59.2804 57.3228 59.2333 57.3697 59.2333 57.4703C59.2333 57.5709 59.2804 57.6245 59.361 57.6245C59.5154 57.6245 59.6699 57.6178 59.8244 57.5977C59.8513 57.5977 59.8782 57.5105 59.8782 57.4703C59.8782 57.4233 59.858 57.3563 59.8244 57.3429C59.7572 57.316 59.6766 57.316 59.6565 57.316V57.3093ZM128.454 39.9538C128.266 40.1416 128.078 40.3293 127.89 40.5171C128.105 40.725 128.212 40.5171 128.333 40.3964C128.454 40.2757 128.663 40.1684 128.461 39.9605L128.454 39.9538ZM113.873 51.2C113.873 51.0525 113.879 50.9452 113.873 50.8513C113.866 50.7976 113.873 50.6769 113.745 50.7708C113.685 50.8111 113.617 50.8714 113.557 50.8781C113.409 50.8781 113.382 50.972 113.396 51.0793C113.409 51.2268 113.53 51.2067 113.631 51.2067C113.685 51.2067 113.738 51.2067 113.879 51.2067L113.873 51.2ZM77.3681 63.5729C77.2875 63.6534 77.2136 63.7003 77.18 63.7674C77.1465 63.8277 77.1129 63.9216 77.133 63.9753C77.1532 64.0222 77.2539 64.0423 77.3211 64.0557C77.3681 64.0692 77.4218 64.0557 77.4755 64.0557C77.5628 64.049 77.6502 63.9015 77.6031 63.8277C77.5427 63.7473 77.4621 63.6735 77.3681 63.5729ZM70.8396 73.1359C70.8396 73.1359 70.8396 73.0822 70.8396 73.0554C70.8597 72.9548 70.7926 72.9146 70.712 72.8945C70.5911 72.8676 70.5172 72.9347 70.5172 73.0554C70.5172 73.1359 70.5037 73.2164 70.5172 73.2901C70.5239 73.3237 70.5978 73.3706 70.6381 73.3639C70.7052 73.3572 70.7791 73.3237 70.8329 73.2767C70.8597 73.2499 70.8329 73.1761 70.8329 73.1225L70.8396 73.1359ZM103.234 7.8849C103.234 7.8849 103.234 7.93855 103.234 7.96537C103.24 8.09279 103.314 8.15314 103.428 8.12632C103.509 8.11291 103.569 8.06596 103.556 7.96537C103.549 7.91172 103.556 7.85807 103.556 7.81113C103.556 7.68371 103.475 7.62336 103.361 7.65018C103.281 7.66359 103.22 7.71054 103.234 7.81113C103.234 7.83795 103.234 7.86478 103.234 7.8916V7.8849ZM86.2272 89.7672C86.3011 89.6934 86.375 89.6465 86.4086 89.5794C86.4422 89.5191 86.4825 89.4252 86.4556 89.3715C86.4355 89.3246 86.3347 89.291 86.2675 89.2843C86.1869 89.2843 86.1265 89.338 86.1399 89.4319C86.1534 89.5325 86.0996 89.6398 86.2205 89.7605L86.2272 89.7672ZM89.4579 82.216C89.5654 82.216 89.6729 82.216 89.7736 82.216C89.7937 82.216 89.8273 82.1758 89.8273 82.1624C89.8139 82.1221 89.787 82.0618 89.7669 82.0618C89.5587 82.0551 89.3437 82.0618 89.1355 82.0618C89.1154 82.0618 89.0818 82.102 89.0818 82.1154C89.0952 82.1557 89.1221 82.216 89.1422 82.216C89.2497 82.2294 89.3504 82.216 89.4579 82.216ZM27.3431 12.0561C27.2625 11.9891 27.1953 11.9153 27.108 11.8617C27.0744 11.8348 27.014 11.8281 26.967 11.8348C26.8864 11.8482 26.8192 11.8952 26.8461 11.9891C26.8595 12.036 26.8729 12.1098 26.8998 12.1165C27.0408 12.1567 27.1953 12.2104 27.3498 12.0561H27.3431ZM5.40005 19.6274C5.35975 19.6073 5.30603 19.5536 5.24558 19.5469C5.12468 19.5335 5.06424 19.614 5.08439 19.7414C5.09782 19.8219 5.14483 19.8755 5.23886 19.8688C5.35976 19.8621 5.42023 19.795 5.39337 19.6341L5.40005 19.6274ZM2.58581 24.8448C2.35744 25.0996 2.64626 25.1868 2.75372 25.3343C2.98208 25.0795 2.69327 24.9923 2.58581 24.8448ZM61.2483 58.9188C61.0804 58.8987 61.02 58.9523 61.0065 59.0731C60.9998 59.1736 61.0536 59.2139 61.1342 59.2273C61.2618 59.2541 61.3424 59.1871 61.3289 59.0663C61.3222 59.006 61.2685 58.9523 61.2483 58.9121V58.9188ZM92.111 85.7032C92.111 85.7032 92.0438 85.6094 91.9833 85.5959C91.8624 85.5624 91.7953 85.6295 91.7818 85.7502C91.7751 85.8508 91.8289 85.891 91.9095 85.9044C92.0371 85.9313 92.1042 85.8642 92.111 85.7032ZM125.297 37.9218C125.338 37.962 125.358 37.9956 125.378 37.9956C125.445 37.9956 125.539 38.0157 125.586 37.9822C125.633 37.9419 125.633 37.848 125.64 37.781C125.64 37.7676 125.553 37.7206 125.539 37.734C125.459 37.7877 125.385 37.8615 125.304 37.9218H125.297ZM43.7584 61.4135C43.7584 61.4135 43.7315 61.3733 43.7181 61.3599C43.6644 61.3062 43.6106 61.2459 43.5502 61.1989C43.5367 61.1855 43.4494 61.2324 43.4494 61.2459C43.4494 61.3196 43.4494 61.4135 43.4964 61.4538C43.577 61.5275 43.6845 61.5074 43.7584 61.4135ZM19.6862 9.88333C19.6459 9.92357 19.6123 9.94369 19.6123 9.96381C19.6123 10.0309 19.5922 10.1248 19.6258 10.165C19.6661 10.2119 19.7601 10.2119 19.8273 10.2186C19.8407 10.2186 19.8877 10.1315 19.8743 10.118C19.8206 10.0376 19.7466 9.96381 19.6862 9.88333ZM115.478 53.3728C115.478 53.3728 115.511 53.4198 115.532 53.4265C115.599 53.4332 115.693 53.46 115.74 53.4265C115.787 53.3929 115.794 53.2923 115.794 53.2253C115.794 53.2052 115.706 53.1582 115.7 53.1649C115.619 53.232 115.552 53.3058 115.478 53.3795V53.3728ZM12.0965 19.7012C12.0965 19.7012 12.1301 19.6676 12.1502 19.6475C12.1838 19.614 12.2308 19.5804 12.2577 19.5402C12.2778 19.5067 12.2913 19.4664 12.3047 19.4329C12.2577 19.4195 12.2174 19.386 12.1704 19.386C12.1233 19.386 12.0629 19.4061 12.0427 19.4396C11.9823 19.5335 12.0024 19.6274 12.0898 19.7012H12.0965ZM117.876 14.3899C117.842 14.4234 117.762 14.4771 117.768 14.5039C117.795 14.5911 117.97 14.5911 118.03 14.5039C118.037 14.4905 118.044 14.4569 118.03 14.4502C117.99 14.4301 117.943 14.41 117.876 14.3832V14.3899ZM65.6275 68.9043C65.6275 68.9043 65.5872 68.9043 65.5738 68.9043C65.4932 68.9647 65.4932 69.1256 65.5738 69.1658C65.5872 69.1725 65.6141 69.1658 65.6275 69.1658C65.7081 69.1055 65.7081 68.9445 65.6275 68.8976V68.9043ZM21.9699 13.4376C21.9296 13.4644 21.8893 13.4913 21.849 13.5181C21.8893 13.5449 21.9363 13.5985 21.9699 13.5918C22.037 13.5851 22.1042 13.5449 22.1713 13.5181C22.1042 13.4913 22.037 13.4644 21.9699 13.4376ZM120.294 48.0951C120.294 48.0951 120.294 48.0548 120.294 48.0414C120.233 47.9609 120.072 47.9609 120.032 48.0414C120.025 48.0548 120.032 48.0816 120.032 48.0951C120.092 48.1755 120.253 48.1755 120.3 48.0951H120.294ZM92.702 86.0452C92.702 86.0452 92.7356 86.0117 92.7557 85.9916C92.7356 85.9715 92.7222 85.9447 92.702 85.938C92.655 85.9245 92.6012 85.9044 92.561 85.9111C92.5139 85.9178 92.4804 85.9581 92.4401 85.9849C92.4804 86.0117 92.5207 86.052 92.561 86.0587C92.608 86.0654 92.655 86.0453 92.702 86.0386V86.0452ZM10.3166 47.1026C10.1823 47.0623 10.1151 47.0288 10.0412 47.0288C10.0009 47.0288 9.96063 47.0757 9.92033 47.1026C9.96063 47.1294 10.0009 47.1763 10.0412 47.1763C10.1084 47.1763 10.1755 47.1428 10.3166 47.1026ZM90.4788 58.3756C90.4788 58.3756 90.4788 58.3354 90.4788 58.322C90.4184 58.2415 90.2572 58.2415 90.2169 58.322C90.2102 58.3354 90.2169 58.3622 90.2169 58.3756C90.2773 58.4561 90.4385 58.4561 90.4856 58.3756H90.4788ZM75.1382 77.2602C75.1382 77.2602 75.0979 77.2602 75.0844 77.2602C75.0038 77.3205 75.0038 77.4815 75.0844 77.5217C75.0979 77.5284 75.1247 77.5217 75.1382 77.5217C75.2188 77.4614 75.2188 77.3004 75.1382 77.2535V77.2602ZM89.3505 83.0074C89.3169 83.0409 89.2363 83.0945 89.243 83.1214C89.2698 83.2085 89.4445 83.2085 89.5049 83.1214C89.5116 83.108 89.5184 83.0744 89.5049 83.0677C89.4646 83.0476 89.4176 83.0275 89.3505 83.0007V83.0074ZM128.817 35.1253C128.884 35.1186 128.951 35.0784 129.018 35.0516C128.951 35.0247 128.884 34.9845 128.817 34.9778C128.777 34.9778 128.736 35.0247 128.696 35.0516C128.736 35.0784 128.783 35.132 128.817 35.1253ZM110.299 54.9488C110.252 54.8683 110.091 54.8683 110.031 54.9488C110.024 54.9622 110.017 54.989 110.031 55.0024C110.078 55.0829 110.239 55.0896 110.293 55.0024C110.299 54.989 110.293 54.9689 110.293 54.9488H110.299ZM66.0305 69.7359C66.0507 69.7694 66.0708 69.8029 66.091 69.8365C66.1111 69.8163 66.1447 69.7962 66.138 69.7828C66.1313 69.7426 66.1044 69.709 66.0843 69.6755C66.0641 69.6956 66.0507 69.709 66.0238 69.7359H66.0305ZM91.5736 58.4091C91.5736 58.4091 91.6139 58.3689 91.6341 58.3488C91.6005 58.3287 91.5669 58.3086 91.5266 58.3018C91.5132 58.3018 91.493 58.3354 91.4729 58.3488C91.5065 58.3689 91.5401 58.389 91.5736 58.4091ZM38.6672 8.91094C38.7008 8.89082 38.7344 8.8707 38.768 8.85058C38.7478 8.83047 38.7277 8.79694 38.7142 8.80364C38.6739 8.81035 38.6403 8.83717 38.6068 8.85729C38.6269 8.87741 38.6404 8.89082 38.6672 8.91765V8.91094ZM33.6903 5.55786C33.6903 5.55786 33.6365 5.59809 33.6365 5.61151C33.6432 5.65174 33.6701 5.68527 33.6835 5.7188C33.7037 5.69869 33.7372 5.67857 33.7372 5.66516C33.7305 5.62492 33.7037 5.59139 33.6903 5.55786Z" fill="#484DFC"/>
<path d="M105.168 56.3438C105.322 56.3706 105.403 56.4846 105.47 56.6053C105.278 56.6589 105.177 56.5718 105.168 56.3438Z" fill="#484DFC"/>
<path d="M79.3555 87.7822C79.3555 87.7822 79.3152 87.8225 79.2951 87.8426C79.2749 87.8091 79.2548 87.7755 79.248 87.7353C79.248 87.7219 79.2816 87.7018 79.3018 87.6816C79.3219 87.7152 79.3421 87.7487 79.3623 87.7822H79.3555Z" fill="#484DFC"/>
<path d="M66.4668 1.16505C66.4668 1.16505 66.4264 1.20528 66.4063 1.2254C66.3861 1.19187 66.366 1.15834 66.3525 1.1181C66.3525 1.10469 66.3861 1.08457 66.4063 1.06445C66.4264 1.09798 66.4466 1.13151 66.4668 1.16505Z" fill="#484DFC"/>
<path d="M84.6217 27.4203C84.7762 27.5745 84.9508 27.7086 85.0717 27.8763C85.1926 28.0439 85.4076 28.0104 85.5285 28.1512C85.5956 28.2317 85.6963 28.2921 85.6695 28.4128C85.6225 28.6408 85.777 28.8017 85.9382 28.8353C86.1195 28.8755 86.1934 29.0029 86.3143 29.0968C86.2202 29.1907 86.1262 29.2846 86.0322 29.3785C86.1262 29.6266 86.1934 29.915 86.583 29.8077C86.6031 29.8881 86.6299 29.9619 86.6367 30.0357C86.6501 30.2167 86.5964 30.4112 86.7912 30.5386C86.818 30.5588 86.8247 30.6661 86.7979 30.6862C86.5561 30.8672 86.6635 31.1221 86.6434 31.3501C86.6434 31.4037 86.6434 31.4574 86.6434 31.5379C86.7844 31.5647 86.9322 31.5915 87.08 31.6183C87.1539 31.7256 87.0195 31.7323 86.9994 31.7927C86.9658 31.8933 86.6232 32.3359 86.5023 32.4499C86.5829 32.5974 86.6703 32.745 86.7509 32.8992C86.7845 32.9663 86.8247 33.0803 86.7979 33.1071C86.5896 33.3083 86.5829 33.6235 86.4016 33.8314C86.1329 34.1466 85.965 34.5489 85.6023 34.7836C85.5284 34.8306 85.421 34.8373 85.3269 34.8976C84.9844 35.1122 84.9642 35.1458 85.1187 35.4543C85.1389 35.5012 85.1792 35.5414 85.1859 35.5884C85.1859 35.6353 85.1725 35.7158 85.1456 35.7225C85.0784 35.7493 84.9978 35.7627 84.9307 35.7426C84.8635 35.7225 84.7225 35.4811 84.6419 35.3C84.521 35.3872 84.3732 35.4475 84.3799 35.6353C84.3799 35.7359 84.4001 35.917 84.2993 35.9103C84.1045 35.8902 84.0508 36.098 83.8829 36.0913C83.6948 36.0779 83.5067 36.0913 83.3187 36.0913C83.1978 36.0846 83.1306 36.1584 83.0433 36.2121C82.909 36.2925 82.7612 36.2791 82.6067 36.1852C82.3716 36.0511 82.3515 36.0444 82.1231 36.1852C81.9888 36.2657 81.8746 36.2322 81.747 36.2523C81.4582 35.9639 81.0955 36.145 80.7597 36.0779C80.6858 35.9103 80.6052 35.7225 80.4238 35.6219C80.182 35.8164 80.1552 35.8298 80.0343 35.6957C79.9 35.5481 79.6985 35.4475 79.6783 35.1994C79.6783 35.1189 79.544 35.0385 79.4566 34.9781C79.4231 34.9513 79.3425 34.958 79.3022 34.9781C79.2014 35.0318 79.2485 35.0921 79.3089 35.1458C79.3291 35.1659 79.3626 35.186 79.3626 35.1994C79.3626 35.2732 79.3693 35.3671 79.329 35.4073C79.2887 35.4475 79.1611 35.461 79.1208 35.4274C78.9395 35.2732 78.7716 35.0921 78.5902 34.9043V34.4215C78.4693 34.3008 78.3484 34.1466 78.2007 34.046C78.0529 33.9454 78.1335 33.7375 77.979 33.6503C77.8044 33.5564 77.7909 33.3552 77.6969 33.2077C77.67 33.1742 77.6298 33.1071 77.6365 33.1004C77.885 32.8858 77.7238 32.5974 77.7708 32.3493C77.7708 32.3292 77.791 32.2957 77.8044 32.2822C78.0529 32.1682 77.838 31.8866 78.026 31.7256C78.1536 31.6116 78.1201 31.5513 78.0395 31.4641C77.9857 31.4037 77.9253 31.3501 77.8715 31.2897C77.7439 31.1489 77.7439 31.0885 77.8447 30.9611C77.9253 30.8605 78.026 30.7734 78.0865 30.6593C78.2074 30.4313 78.3216 30.1966 78.241 29.9485C78.382 29.7071 78.6641 29.5998 78.738 29.3248C78.7648 29.2309 78.8656 29.1572 78.8858 29.07C78.9126 28.9426 78.8925 28.8017 78.8925 28.6274C79.094 28.4262 79.3425 28.2183 79.5372 27.9702C79.6783 27.7891 79.8932 27.769 80.0477 27.6349C80.1888 27.5209 80.3567 27.6013 80.5112 27.5812C80.5918 27.5678 80.6724 27.5812 80.7463 27.5812C80.847 27.2325 81.1425 27.038 81.3776 26.7966C81.4045 26.7698 81.5052 26.7631 81.5254 26.7832C81.7269 27.0447 82.1903 26.8234 82.2843 27.2057C82.4321 27.3063 82.5731 27.2593 82.7008 27.2593C82.8552 27.2593 82.9896 27.2593 83.1374 27.1453C83.406 26.9575 83.6747 27.1654 83.9299 27.266C84.0239 27.2996 84.0978 27.3867 84.165 27.4672C84.2389 27.5544 84.3262 27.6215 84.4404 27.5812C84.5075 27.5544 84.5545 27.4806 84.615 27.4337L84.6217 27.4203Z" fill="#484DFC"/>
<path d="M67.4267 27.9099C67.4401 28.0105 67.4468 28.0575 67.4535 28.1111C67.4535 28.2385 67.4334 28.3525 67.6349 28.3928C67.8163 28.4263 67.9573 28.5537 67.9439 28.7817C67.9439 28.822 68.1924 29.3517 68.226 29.3853C68.2797 29.4456 68.3536 29.4926 68.3939 29.5596C68.4812 29.7072 68.3469 29.9419 68.5685 30.0492C68.7566 30.1364 68.7096 30.3778 68.8506 30.4985C68.8842 30.5253 68.8976 30.5857 68.911 30.6326C68.9446 30.7869 68.8372 30.9679 68.9715 31.0886C69.126 31.2228 69.0655 31.3837 69.0723 31.5312C69.0857 31.6922 69.0723 31.8531 69.0723 32.0141C69.0723 32.2287 69.0386 32.45 69.0789 32.6512C69.126 32.8859 68.9648 33.0401 68.911 33.2279C68.8842 33.3285 68.911 33.4425 68.911 33.5498C68.864 33.7108 68.723 33.7979 68.6088 33.8985C68.4812 34.0058 68.4543 34.1601 68.3804 34.2875C68.2998 34.4216 68.1454 34.5088 68.0513 34.6362C67.9237 34.7972 67.9036 35.0252 67.7088 35.1325C67.5744 35.5281 67.2319 35.7427 66.9632 36.0244C66.9162 36.0713 66.8155 36.1049 66.755 36.0847C66.6879 36.0646 66.6341 35.9908 66.5737 35.9372C66.4998 36.0646 66.4259 36.192 66.3453 36.3195C66.2782 36.42 66.164 36.467 66.0767 36.3932C65.9692 36.306 65.8751 36.2457 65.7274 36.2524C65.405 36.2658 65.0826 36.2792 64.7602 36.2524C64.4848 36.2256 64.2564 36.306 64.0012 36.4737C63.9072 36.3127 63.8199 36.1719 63.7796 36.1049H63.1684C62.9736 35.9037 62.7654 35.6958 62.5639 35.4812C62.5102 35.4208 62.4363 35.3739 62.396 35.3068C62.2751 35.1258 62.2348 34.891 61.9728 34.8039C61.7915 34.7435 61.59 34.6764 61.4422 34.5289C61.4086 34.5021 61.3348 34.5155 61.3012 34.4887C61.2004 34.4149 61.0795 34.3411 61.0191 34.2338C60.972 34.1534 61.0124 34.0259 61.0124 33.9321C60.9116 33.8315 60.8176 33.7376 60.7168 33.6437C60.7101 33.5967 60.69 33.5431 60.69 33.4962C60.6631 33.1944 60.7706 32.8658 60.5355 32.5975C60.5153 32.5774 60.5758 32.4567 60.6228 32.403C60.737 32.2756 60.69 32.1817 60.5892 32.0677C60.4885 31.947 60.4885 31.9202 60.5892 31.7995C60.6631 31.7123 60.7101 31.6318 60.69 31.5178C60.6295 31.1892 60.7706 30.921 60.9251 30.6527C60.9519 30.6058 61.0124 30.5656 61.0057 30.532C60.9721 30.3308 61.0997 30.1967 61.1601 30.0358C61.2139 29.8949 61.1937 29.7273 61.2004 29.573C61.4758 29.3987 61.5027 29.0366 61.7646 28.8421C61.9527 28.7012 62.0467 28.6744 62.3154 28.8287C62.3355 28.8421 62.349 28.8689 62.3758 28.8823C62.4631 28.9225 62.6176 28.8555 62.6176 28.7616C62.6109 28.5001 62.6646 28.3056 62.9669 28.2318C63.0811 28.205 63.1617 28.0709 63.2691 27.9971C63.3699 27.93 63.4908 27.8831 63.5982 27.8227C63.8468 27.6953 64.0885 27.5277 64.3841 27.5947C64.6191 27.6484 64.7401 27.4137 64.9617 27.4204C65.1632 27.4271 65.3848 27.5075 65.5595 27.3131C65.6401 27.2259 65.6736 27.36 65.7274 27.4003C65.8886 27.5075 65.8282 27.7423 66.0095 27.8496C66.1103 27.9099 66.1976 27.9569 66.2849 27.8697C66.4729 27.6953 66.6409 27.7154 66.8356 27.8563C66.9968 27.977 67.1916 27.8831 67.4267 27.9233V27.9099Z" fill="#484DFC"/>
<path d="M52.7921 30.2296C52.7787 30.3838 52.8459 30.5515 52.6779 30.6655C52.6242 30.7057 52.631 30.7392 52.6981 30.7795C52.8727 30.8868 52.7183 31.1081 52.819 31.2087C52.9601 31.3428 52.9534 31.4836 52.9534 31.6379C52.9534 31.7452 52.9735 31.8256 53.0339 31.9262C53.1548 32.1274 53.1347 32.1341 53.0205 32.4158C52.9332 32.6371 52.8929 32.8517 53.0541 33.073C53.1481 33.2004 53.1481 33.2742 53.0541 33.3412C52.7988 33.5089 52.7988 33.8576 52.5503 34.0253C52.5033 34.0588 52.463 34.1728 52.4832 34.2264C52.5638 34.4477 52.2414 34.5215 52.3153 34.7227C52.1205 34.8635 52.1608 35.1653 51.9257 35.286C51.8317 35.333 51.7108 35.4268 51.704 35.5073C51.6839 35.8359 51.4488 35.7622 51.2608 35.7823C51.0525 35.9902 50.8443 36.1981 50.6294 36.4127H49.8369C49.7361 36.5334 49.5682 36.587 49.5682 36.7882C49.5682 36.8888 49.3936 36.9559 49.3264 36.8888C49.0107 36.5602 48.7085 36.8016 48.3525 36.9223C48.2853 36.8016 48.2047 36.6608 48.1644 36.587H47.392C47.2711 36.3389 46.989 36.2919 46.7875 36.1377C46.7137 36.0773 46.5726 36.084 46.5189 36.017C46.3845 35.8359 46.1763 35.789 46.0084 35.675C45.9211 35.6146 45.8472 35.5409 45.8607 35.4134C45.8674 35.3397 45.8741 35.2391 45.8338 35.1854C45.6927 35.0245 45.5382 34.8769 45.3838 34.7294C45.4106 34.4679 45.1554 34.3941 45.0412 34.2331C45.0143 34.1996 44.9539 34.1929 44.9069 34.1728C44.7054 34.0521 44.692 34.0454 44.833 33.8509C44.9338 33.7168 44.9069 33.6363 44.8129 33.5156C44.7121 33.3882 44.7255 33.3748 44.7927 33.2473C44.927 32.9858 44.9405 32.8316 44.8464 32.5968C44.8263 32.5499 44.7524 32.5164 44.7524 32.4761C44.739 32.3688 44.7188 32.2414 44.7726 32.1676C44.8129 32.1006 44.9472 32.0872 45.0547 32.0402V30.7929C45.1756 30.6319 45.3368 30.5045 45.3838 30.3436C45.4375 30.1357 45.6188 30.0686 45.7196 29.9144V29.4382C45.8136 29.3444 45.9278 29.2572 46.0017 29.1499C46.2233 28.8414 46.6263 28.8213 46.9017 28.5933C46.9689 28.5396 47.1032 28.5664 47.204 28.5597C47.3047 28.5597 47.3987 28.5463 47.4928 28.4793C47.748 28.3049 48.0301 28.1708 48.3592 28.2378C48.5808 28.2848 48.7017 28.0232 48.9368 28.0702C49.1182 28.1104 49.313 28.0769 49.4943 28.0769C49.8033 28.3854 50.1122 28.211 50.448 28.0635C50.6227 28.2378 50.8175 28.4189 50.9921 28.6134C51.1331 28.7676 51.301 28.8749 51.4958 28.9554C51.7175 29.056 51.9996 29.1163 51.9996 29.4517C52.2682 29.7199 52.5302 29.9814 52.7988 30.2497L52.7921 30.2296Z" fill="#484DFC"/>
</svg>
