<svg width="214" height="61" viewBox="0 0 214 61" fill="none" xmlns="http://www.w3.org/2000/svg">
<g clip-path="url(#clip0_1587_249)">
<path d="M27.792 19.609C28.2716 18.9028 28.7967 18.813 29.2226 18.813C29.6485 18.813 30.3581 18.9028 30.8379 19.609C34.6186 24.7958 40.8591 35.1282 45.4626 42.7498C48.4646 47.7203 50.7703 51.5378 51.2434 52.0236C53.0192 53.8474 55.4547 52.7108 56.8699 50.6421C58.2631 48.6055 58.6498 47.1754 58.6498 45.6497C58.6498 44.6106 38.465 7.11425 36.4321 3.99315C34.4772 0.991171 33.8405 0.23291 30.4946 0.23291H27.9908C24.6548 0.23291 24.1728 0.991171 22.2177 3.99315C20.185 7.11425 0 44.6106 0 45.6497C0 47.1754 0.386787 48.6055 1.78007 50.6421C3.19527 52.7108 5.63073 53.8474 7.40649 52.0236C7.8796 51.5378 10.1854 47.7203 13.1874 42.7498C17.7908 35.1282 24.0113 24.7958 27.792 19.609Z" fill="#0033CC"/>
<path d="M72.6818 3.54736V49.5797H100.764V40.2417H82.3698V30.5091H98.7348V21.1712H82.3698V12.8854H100.764V3.54736H72.6818Z" fill="#0033CC"/>
<path d="M138.235 49.5799L126.583 32.8767L137.45 17.2915H126.452L121.085 24.9197L115.782 17.2915H104.654L115.521 32.9425L103.934 49.5799H114.931L121.019 40.8338L127.107 49.5799H138.235Z" fill="#0033CC"/>
<path d="M161.655 16.6338C157.204 16.6338 153.734 18.4751 151.509 21.8289V17.2914H142.279V60.233H151.509V45.0423C153.734 48.3961 157.204 50.2374 161.655 50.2374C169.969 50.2374 176.58 42.675 176.58 33.4027C176.58 24.1305 169.969 16.6338 161.655 16.6338ZM159.56 41.3598C155.044 41.3598 151.509 37.9402 151.509 33.4027C151.509 28.931 155.044 25.4458 159.56 25.4458C164.012 25.4458 167.612 28.9968 167.612 33.4027C167.612 37.8744 164.012 41.3598 159.56 41.3598Z" fill="#0033CC"/>
<path d="M196.713 16.6338C187.221 16.6338 180.02 23.8674 180.02 33.4685C180.02 43.0694 187.221 50.2374 196.713 50.2374C206.138 50.2374 213.405 43.0694 213.405 33.4685C213.405 23.8674 206.138 16.6338 196.713 16.6338ZM196.713 25.5114C201.032 25.5114 204.372 28.8652 204.372 33.4685C204.372 37.9402 201.032 41.3598 196.713 41.3598C192.326 41.3598 189.054 37.9402 189.054 33.4685C189.054 28.8652 192.326 25.5114 196.713 25.5114Z" fill="#0033CC"/>
</g>
<defs>
<clipPath id="clip0_1587_249">
<rect width="214" height="60" fill="white" transform="translate(0 0.23291)"/>
</clipPath>
</defs>
</svg>
