<svg width="800" height="800" viewBox="0 0 800 800" fill="none" xmlns="http://www.w3.org/2000/svg">
<path d="M104.185 359.44C105.983 356.789 107.951 356.452 109.548 356.452C111.145 356.452 113.805 356.789 115.603 359.44C129.776 378.906 153.17 417.685 170.427 446.29C181.681 464.945 190.325 479.272 192.098 481.096C198.755 487.941 207.885 483.675 213.191 475.911C218.414 468.267 219.863 462.9 219.863 457.174C219.863 453.274 144.195 312.545 136.575 300.831C129.246 289.565 126.859 286.719 114.316 286.719H104.93C92.4246 286.719 90.6174 289.565 83.2883 300.831C75.6685 312.545 0 453.274 0 457.174C0 462.9 1.44996 468.267 6.67302 475.911C11.9783 483.675 21.1081 487.941 27.765 481.096C29.5386 479.272 38.1823 464.945 49.4362 446.29C66.693 417.685 90.0123 378.906 104.185 359.44Z" fill="white"/>
<path d="M606.003 348.273C637.168 348.273 661.952 376.409 661.952 411.209C661.952 446.009 637.168 474.392 606.003 474.392C589.317 474.392 576.311 467.481 567.967 454.894V511.906H533.367V350.741H567.967V367.771C576.311 355.184 589.317 348.273 606.003 348.273ZM737.426 348.273C772.759 348.273 800 375.422 800 411.456C800 447.489 772.759 474.392 737.426 474.392C701.843 474.392 674.849 447.489 674.849 411.456C674.849 375.422 701.843 348.273 737.426 348.273ZM377.738 299.158V334.205H308.783V365.303H370.131V400.349H308.783V436.877H377.738V471.924H272.465V299.158H377.738ZM434.038 350.741L453.915 379.371L474.037 350.741H515.264L474.529 409.234L518.208 471.924H476.491L453.67 439.098L430.849 471.924H389.623L433.057 409.481L392.322 350.741H434.038ZM598.151 381.345C581.218 381.345 567.967 394.426 567.967 411.209C567.967 428.239 581.218 441.073 598.151 441.073C614.837 441.073 628.334 427.992 628.334 411.209C628.334 394.673 614.837 381.345 598.151 381.345ZM737.426 381.592C720.98 381.592 708.715 394.179 708.715 411.456C708.715 428.239 720.98 441.073 737.426 441.073C753.618 441.073 766.137 428.239 766.137 411.456C766.137 394.179 753.618 381.592 737.426 381.592Z" fill="white"/>
</svg>
