<svg width="440" height="320" viewBox="0 0 440 320" fill="none" xmlns="http://www.w3.org/2000/svg">
<path d="M439.43 69.6431C438.68 60.0731 438.88 50.4731 434.12 41.6631C419.81 15.2031 391.43 6.58314 363.38 4.16314C320.69 0.483135 282.38 1.69314 239.69 0.883136C187.63 -0.0968638 135.68 2.68313 83.6799 5.22313C56.4599 6.55313 31.9299 12.7431 19.3099 39.4431C8.72994 61.8331 3.65994 90.0531 1.12994 113.673C0.459943 119.933 -0.540057 143.133 0.359943 156.533C1.06994 167.193 2.84994 181.013 6.49994 191.053C10.6299 202.413 18.3999 211.393 25.6699 217.443C37.9499 227.663 62.2199 231.313 80.4099 232.673C98.4799 234.023 114.28 235.093 132.63 236.043C168.11 237.883 193.25 237.163 225.72 236.573C281.15 235.563 260.97 231.893 283.78 276.323C295.28 298.733 320.77 317.563 329.5 319.833C331.44 320.333 323.11 307.733 316.02 280.773C311.91 265.163 307.41 236.283 316.82 235.453C361.05 231.533 407.01 220.963 425.48 177.503C427.72 172.233 432.65 153.713 434.5 144.833C438.52 125.473 441.22 92.4331 439.44 69.6331L439.43 69.6431Z" fill="#F7EDED"/>
<path d="M84.5697 104.883V67.083H91.8597V99.213H108.44V104.883H84.5697Z" fill="#484DFC"/>
<path d="M126.84 105.523C124.1 105.523 121.68 104.933 119.58 103.743C117.47 102.553 115.83 100.913 114.67 98.8027C113.5 96.6927 112.92 94.2727 112.92 91.5427C112.92 88.8127 113.5 86.1927 114.67 84.0327C115.84 81.8727 117.47 80.1627 119.56 78.9027C121.65 77.6427 124.08 77.0127 126.85 77.0127C129.62 77.0127 131.91 77.6027 133.92 78.7927C135.94 79.9827 137.5 81.5727 138.62 83.5727C139.74 85.5727 140.29 87.8627 140.29 90.4527C140.29 90.8127 140.29 91.2227 140.26 91.6627C140.24 92.1127 140.22 92.5727 140.18 93.0427H118.15V88.5627H132.95C132.84 86.8727 132.22 85.5027 131.09 84.4627C129.96 83.4227 128.56 82.8927 126.9 82.8927C125.64 82.8927 124.5 83.1927 123.47 83.7827C122.44 84.3727 121.63 85.2427 121.01 86.3727C120.39 87.5027 120.09 88.9427 120.09 90.6627V92.2327C120.09 93.7127 120.37 94.9927 120.93 96.0927C121.49 97.1927 122.27 98.0427 123.28 98.6627C124.29 99.2727 125.46 99.5827 126.79 99.5827C128.12 99.5827 129.26 99.3027 130.11 98.7427C130.95 98.1827 131.61 97.4427 132.08 96.5027H139.48C139.01 98.1927 138.18 99.7327 136.97 101.123C135.76 102.513 134.31 103.593 132.6 104.363C130.89 105.133 128.97 105.523 126.85 105.523H126.84Z" fill="#484DFC"/>
<path d="M158.51 104.883C156.64 104.883 154.98 104.583 153.54 103.993C152.1 103.403 150.98 102.413 150.19 101.023C149.4 99.6429 149 97.7429 149 95.3229V83.7629H144.3V77.6629H149L149.81 70.2129H156.29V77.6629H163.47V83.7629H156.29V95.4229C156.29 96.6429 156.56 97.4929 157.1 97.9629C157.64 98.4329 158.56 98.6629 159.85 98.6629H163.36V104.873H158.5L158.51 104.883Z" fill="#484DFC"/>
<path d="M180.62 67.083L175.06 80.903H170.09L173.01 67.083H180.62Z" fill="#484DFC"/>
<path d="M195.9 105.523C193.38 105.523 191.21 105.123 189.39 104.333C187.57 103.543 186.14 102.453 185.1 101.063C184.06 99.6732 183.46 98.0832 183.32 96.2832H190.61C190.75 96.9332 191.04 97.5432 191.47 98.1232C191.9 98.7032 192.48 99.1532 193.2 99.4732C193.92 99.7932 194.78 99.9632 195.79 99.9632C196.8 99.9632 197.56 99.8332 198.19 99.5532C198.82 99.2832 199.29 98.9132 199.59 98.4432C199.89 97.9732 200.05 97.4932 200.05 96.9832C200.05 96.2232 199.83 95.6532 199.38 95.2532C198.93 94.8532 198.29 94.5132 197.46 94.2232C196.63 93.9332 195.62 93.6832 194.44 93.4632C193.14 93.2132 191.87 92.8932 190.63 92.5132C189.39 92.1332 188.28 91.6532 187.31 91.0532C186.34 90.4632 185.56 89.7232 184.99 88.8432C184.41 87.9632 184.13 86.8532 184.13 85.5232C184.13 83.9432 184.56 82.5032 185.43 81.2032C186.3 79.9032 187.56 78.8832 189.24 78.1232C190.91 77.3632 192.89 76.9932 195.15 76.9932C198.46 76.9932 201.07 77.7332 202.98 79.2032C204.89 80.6832 206.02 82.7132 206.38 85.3032H199.52C199.3 84.4432 198.83 83.7732 198.09 83.3032C197.35 82.8332 196.37 82.6032 195.15 82.6032C193.93 82.6032 192.91 82.8332 192.21 83.3032C191.51 83.7732 191.16 84.3632 191.16 85.0832C191.16 85.5832 191.38 86.0332 191.84 86.4332C192.29 86.8332 192.93 87.1732 193.76 87.4632C194.59 87.7532 195.6 88.0232 196.78 88.2732C198.87 88.7032 200.7 89.2032 202.29 89.7632C203.87 90.3232 205.12 91.1132 206.02 92.1432C206.92 93.1732 207.37 94.6532 207.37 96.6032C207.37 98.3332 206.9 99.8732 205.97 101.223C205.03 102.573 203.71 103.623 202 104.383C200.29 105.143 198.26 105.513 195.93 105.513L195.9 105.523Z" fill="#484DFC"/>
<path d="M228.9 104.883V66.0029H236.19V104.883H228.9ZM246.72 104.883L235.11 89.9829L245.53 77.6729H254.17L240.72 93.0129L240.67 87.2329L255.79 104.893H246.72V104.883Z" fill="#484DFC"/>
<path d="M271.74 105.523C269 105.523 266.58 104.933 264.48 103.743C262.37 102.553 260.73 100.913 259.57 98.8027C258.4 96.6927 257.82 94.2727 257.82 91.5427C257.82 88.8127 258.4 86.1927 259.57 84.0327C260.74 81.8727 262.37 80.1627 264.46 78.9027C266.55 77.6427 268.98 77.0127 271.75 77.0127C274.52 77.0127 276.81 77.6027 278.82 78.7927C280.84 79.9827 282.4 81.5727 283.52 83.5727C284.64 85.5727 285.19 87.8627 285.19 90.4527C285.19 90.8127 285.19 91.2227 285.16 91.6627C285.14 92.1127 285.12 92.5727 285.08 93.0427H263.05V88.5627H277.85C277.74 86.8727 277.12 85.5027 275.99 84.4627C274.86 83.4227 273.46 82.8927 271.8 82.8927C270.54 82.8927 269.4 83.1927 268.37 83.7827C267.34 84.3727 266.53 85.2427 265.91 86.3727C265.29 87.5027 264.99 88.9427 264.99 90.6627V92.2327C264.99 93.7127 265.27 94.9927 265.83 96.0927C266.39 97.1927 267.17 98.0427 268.18 98.6627C269.19 99.2727 270.36 99.5827 271.69 99.5827C273.02 99.5827 274.16 99.3027 275.01 98.7427C275.85 98.1827 276.51 97.4427 276.98 96.5027H284.38C283.91 98.1927 283.08 99.7327 281.87 101.123C280.66 102.513 279.21 103.593 277.5 104.363C275.79 105.133 273.87 105.523 271.75 105.523H271.74Z" fill="#484DFC"/>
<path d="M305 105.523C302.26 105.523 299.84 104.933 297.74 103.743C295.63 102.553 293.99 100.913 292.83 98.8027C291.66 96.6927 291.08 94.2727 291.08 91.5427C291.08 88.8127 291.66 86.1927 292.83 84.0327C294 81.8727 295.63 80.1627 297.72 78.9027C299.81 77.6427 302.24 77.0127 305.01 77.0127C307.78 77.0127 310.07 77.6027 312.08 78.7927C314.1 79.9827 315.66 81.5727 316.78 83.5727C317.9 85.5727 318.45 87.8627 318.45 90.4527C318.45 90.8127 318.45 91.2227 318.42 91.6627C318.4 92.1127 318.38 92.5727 318.34 93.0427H296.31V88.5627H311.11C311 86.8727 310.38 85.5027 309.25 84.4627C308.12 83.4227 306.72 82.8927 305.06 82.8927C303.8 82.8927 302.66 83.1927 301.63 83.7827C300.6 84.3727 299.79 85.2427 299.17 86.3727C298.55 87.5027 298.25 88.9427 298.25 90.6627V92.2327C298.25 93.7127 298.53 94.9927 299.09 96.0927C299.65 97.1927 300.43 98.0427 301.44 98.6627C302.45 99.2727 303.62 99.5827 304.95 99.5827C306.28 99.5827 307.42 99.3027 308.27 98.7427C309.11 98.1827 309.77 97.4427 310.24 96.5027H317.64C317.17 98.1927 316.34 99.7327 315.13 101.123C313.92 102.513 312.47 103.593 310.76 104.363C309.05 105.133 307.13 105.523 305.01 105.523H305Z" fill="#484DFC"/>
<path d="M325.34 116.763V77.663H331.82L332.63 81.3929C333.17 80.6329 333.85 79.923 334.66 79.263C335.47 78.593 336.42 78.0529 337.52 77.6429C338.62 77.2329 339.89 77.0229 341.33 77.0229C343.92 77.0229 346.19 77.643 348.13 78.883C350.07 80.123 351.61 81.8229 352.75 83.9829C353.88 86.1429 354.45 88.593 354.45 91.323C354.45 94.053 353.87 96.4929 352.72 98.6429C351.57 100.783 350.02 102.473 348.08 103.693C346.14 104.913 343.9 105.533 341.38 105.533C339.4 105.533 337.68 105.163 336.22 104.423C334.76 103.683 333.56 102.673 332.63 101.373V116.763H325.34ZM339.7 99.153C341.1 99.153 342.35 98.833 343.45 98.183C344.55 97.533 345.41 96.6229 346.04 95.4529C346.67 94.2829 346.98 92.923 346.98 91.373C346.98 89.823 346.66 88.393 346.04 87.193C345.41 85.983 344.54 85.053 343.45 84.383C342.35 83.713 341.1 83.383 339.7 83.383C338.3 83.383 337.04 83.713 335.95 84.383C334.85 85.053 334 85.973 333.39 87.163C332.78 88.353 332.47 89.733 332.47 91.323C332.47 92.913 332.77 94.233 333.39 95.403C334 96.573 334.86 97.493 335.95 98.153C337.05 98.823 338.3 99.153 339.7 99.153Z" fill="#484DFC"/>
<path d="M115.89 138.733C114.56 138.733 113.48 138.343 112.65 137.573C111.82 136.803 111.41 135.813 111.41 134.633C111.41 133.453 111.82 132.463 112.65 131.693C113.48 130.923 114.56 130.533 115.89 130.533C117.22 130.533 118.31 130.923 119.16 131.693C120.01 132.463 120.43 133.443 120.43 134.633C120.43 135.823 120.01 136.803 119.16 137.573C118.31 138.343 117.22 138.733 115.89 138.733ZM112.22 169.683V142.463H119.51V169.683H112.22Z" fill="#484DFC"/>
<path d="M127.49 169.683V142.463H133.92L134.41 146.943C135.27 145.363 136.47 144.113 138 143.193C139.53 142.273 141.36 141.813 143.48 141.813C145.75 141.813 147.66 142.293 149.2 143.243C150.75 144.193 151.94 145.573 152.76 147.373C153.59 149.173 154 151.373 154 153.963V169.673H146.71V154.603C146.71 152.483 146.24 150.843 145.31 149.693C144.37 148.543 142.95 147.963 141.04 147.963C139.85 147.963 138.78 148.253 137.83 148.823C136.88 149.403 136.13 150.223 135.59 151.283C135.05 152.343 134.78 153.653 134.78 155.203V169.673H127.49V169.683Z" fill="#484DFC"/>
<path d="M188.46 169.683C186.59 169.683 184.93 169.383 183.49 168.793C182.05 168.203 180.93 167.213 180.14 165.823C179.35 164.443 178.95 162.543 178.95 160.123V148.563H174.25V142.463H178.95L179.76 135.013H186.24V142.463H193.42V148.563H186.24V160.223C186.24 161.443 186.51 162.293 187.05 162.763C187.59 163.233 188.51 163.463 189.8 163.463H193.31V169.673H188.45L188.46 169.683Z" fill="#484DFC"/>
<path d="M211.86 170.323C209.23 170.323 206.88 169.723 204.81 168.513C202.74 167.303 201.1 165.633 199.9 163.493C198.7 161.353 198.09 158.893 198.09 156.123C198.09 153.353 198.69 150.783 199.9 148.643C201.11 146.503 202.75 144.823 204.84 143.623C206.93 142.413 209.29 141.813 211.91 141.813C214.53 141.813 216.88 142.413 218.93 143.623C220.98 144.833 222.61 146.493 223.82 148.623C225.03 150.743 225.63 153.233 225.63 156.073C225.63 158.913 225.03 161.353 223.82 163.503C222.61 165.643 220.98 167.323 218.91 168.523C216.84 169.723 214.49 170.333 211.86 170.333V170.323ZM211.86 164.013C213.01 164.013 214.07 163.713 215.02 163.123C215.97 162.533 216.75 161.633 217.34 160.453C217.93 159.263 218.23 157.803 218.23 156.083C218.23 154.363 217.94 152.853 217.37 151.683C216.8 150.513 216.04 149.633 215.1 149.033C214.16 148.443 213.12 148.143 211.97 148.143C210.82 148.143 209.7 148.443 208.73 149.033C207.76 149.623 206.98 150.513 206.41 151.683C205.84 152.853 205.55 154.323 205.55 156.083C205.55 157.843 205.83 159.273 206.39 160.453C206.95 161.643 207.71 162.533 208.68 163.123C209.65 163.713 210.71 164.013 211.87 164.013H211.86Z" fill="#484DFC"/>
<path d="M242.72 170.323C240.49 170.323 238.59 169.863 237.02 168.943C235.45 168.023 234.27 166.673 233.46 164.893C232.65 163.113 232.25 160.903 232.25 158.283V142.463H239.49V157.583C239.49 159.783 239.95 161.423 240.87 162.523C241.79 163.623 243.2 164.173 245.11 164.173C246.33 164.173 247.42 163.893 248.38 163.333C249.33 162.773 250.08 161.963 250.62 160.903C251.16 159.843 251.43 158.553 251.43 157.043V142.463H258.72V169.683H252.29L251.75 165.253C250.92 166.803 249.74 168.033 248.21 168.953C246.68 169.873 244.85 170.333 242.73 170.333L242.72 170.323Z" fill="#484DFC"/>
<path d="M279.64 170.323C276.9 170.323 274.47 169.713 272.35 168.483C270.23 167.263 268.57 165.583 267.38 163.463C266.19 161.343 265.6 158.923 265.6 156.223C265.6 153.343 266.19 150.833 267.38 148.693C268.57 146.553 270.22 144.863 272.35 143.643C274.47 142.423 276.9 141.803 279.64 141.803C283.13 141.803 286.07 142.713 288.44 144.533C290.82 146.353 292.33 148.863 292.98 152.063H285.26C284.94 150.843 284.27 149.853 283.26 149.123C282.25 148.383 281.03 148.013 279.59 148.013C278.33 148.013 277.21 148.333 276.21 148.983C275.22 149.633 274.45 150.553 273.89 151.733C273.33 152.923 273.05 154.363 273.05 156.053C273.05 157.273 273.21 158.393 273.54 159.403C273.86 160.413 274.31 161.253 274.89 161.943C275.47 162.623 276.15 163.153 276.94 163.533C277.73 163.913 278.61 164.103 279.59 164.103C280.57 164.103 281.38 163.943 282.16 163.613C282.93 163.293 283.59 162.823 284.13 162.213C284.67 161.603 285.05 160.883 285.26 160.053H292.98C292.33 163.153 290.81 165.633 288.42 167.503C286.03 169.373 283.1 170.313 279.65 170.313L279.64 170.323Z" fill="#484DFC"/>
<path d="M299.68 169.683V130.803H306.97V146.463C307.87 145.063 309.08 143.933 310.59 143.083C312.1 142.233 313.83 141.813 315.77 141.813C318.04 141.813 319.95 142.293 321.49 143.243C323.03 144.193 324.21 145.583 325 147.403C325.79 149.223 326.19 151.443 326.19 154.073V169.683H318.95V154.783C318.95 152.583 318.5 150.903 317.6 149.733C316.7 148.563 315.3 147.983 313.39 147.983C312.17 147.983 311.07 148.273 310.1 148.843C309.13 149.423 308.36 150.243 307.81 151.323C307.25 152.403 306.97 153.733 306.97 155.323V169.683H299.68Z" fill="#484DFC"/>
</svg>
