<svg width="119" height="61" viewBox="0 0 119 61" fill="none" xmlns="http://www.w3.org/2000/svg">
<g clip-path="url(#clip0_4_6)">
<path fill-rule="evenodd" clip-rule="evenodd" d="M0 0.108887H105.394L118.934 13.6486V60.3576H13.4875L0 46.8701V0.108887ZM1.56355 2.78337V46.2225L13.0296 57.6886V14.2953L1.56355 2.78337ZM2.66383 1.67244L14.1361 13.1906H116.265L104.747 1.67244H2.66383ZM117.371 58.794H14.5932V14.7541H117.371V58.794Z" fill="white"/>
<path d="M33.0429 32.1616C33.0429 33.7252 32.0005 35.0802 29.4988 35.0802C28.4044 35.0802 27.5183 34.8196 26.7366 34.5069V32.318C27.5705 32.7349 28.5607 32.9955 29.4467 32.9955C30.2806 32.9955 30.6976 32.7349 30.6976 32.2658C30.6976 30.8065 26.7366 31.2756 26.7366 28.3049C26.7366 26.4807 28.1959 25.3862 30.2285 25.3862C31.0624 25.3862 31.8442 25.5947 32.6781 26.0638V28.3049C31.5836 27.6273 30.8018 27.4188 30.1764 27.4188C29.4467 27.4188 29.0298 27.6794 29.0298 28.1485C29.0298 29.5557 33.0429 28.9824 33.0429 32.1616Z" fill="white"/>
<path d="M35.0757 30.2332C35.0757 27.5752 37.2647 25.3862 39.9227 25.3862C42.5807 25.3862 44.7697 27.5752 44.7697 30.2332C44.7697 32.8913 42.5807 35.0802 39.9227 35.0802C37.2125 35.0281 35.0757 32.8913 35.0757 30.2332ZM42.3722 30.2332C42.3722 28.7739 41.2778 27.6794 39.9227 27.6794C38.5676 27.6794 37.421 28.7739 37.421 30.2332C37.421 31.6925 38.5155 32.787 39.8706 32.787C41.2256 32.787 42.3722 31.6925 42.3722 30.2332Z" fill="white"/>
<path d="M50.1388 24.8131V25.5949H53.2137L52.1714 27.7839H50.1909V34.872H47.9498V27.7839H46.3862V25.5949H47.9498V24.7089C47.9498 21.8945 49.4091 20.4873 51.7023 20.4873C52.2756 20.4873 52.7968 20.5915 53.2659 20.6958V22.8847C52.8489 22.7284 52.3798 22.6763 51.9108 22.6763C50.6599 22.6242 50.1388 23.458 50.1388 24.8131Z" fill="white"/>
<path d="M57.9032 27.7839V31.4843C57.9032 32.4745 58.4765 32.8915 59.3625 32.8915C59.9358 32.8915 60.5091 32.7351 60.9782 32.4224V34.6635C60.3527 34.9241 59.7794 35.0804 58.9455 35.0804C56.9129 35.0804 55.6621 33.9859 55.6621 31.7449V27.7839H54.307V25.5949H55.6621V23.2496L57.9032 22.6763V25.647H60.9782V27.836H57.9032V27.7839Z" fill="white"/>
<path d="M77.1864 25.5947L74.2157 34.8718H71.9746L69.9419 28.5134L67.8572 34.8718H65.564L62.5933 25.5947H65.1471L66.8148 31.7968L68.7953 25.5947H71.0364L73.0169 31.7968L74.6847 25.5947H77.1864Z" fill="white"/>
<path d="M78.3862 30.2332C78.3862 27.5752 80.3146 25.3862 82.9726 25.3862C84.015 25.3862 84.8489 25.6989 85.4743 26.2201V25.5947H87.7154V34.8718H85.5264V34.1421C84.901 34.7154 84.015 35.0802 82.9205 35.0802C80.3146 35.0281 78.3862 32.8913 78.3862 30.2332ZM85.6828 30.2332C85.6828 28.7739 84.5883 27.6794 83.2332 27.6794C81.8782 27.6794 80.7837 28.7739 80.7837 30.2332C80.7837 31.6925 81.8782 32.787 83.2332 32.787C84.5362 32.787 85.6828 31.6925 85.6828 30.2332Z" fill="white"/>
<path d="M90.8416 25.5946H93.0305V26.8975C93.7081 25.6467 94.9589 25.4382 96.0534 25.4382V28.0963C94.4898 27.6793 93.0826 28.5653 93.0826 30.5458V34.8717H90.8416V25.5946Z" fill="white"/>
<path d="M103.142 32.8913C104.028 32.8913 105.071 32.7349 106.113 32.318L104.967 34.6633C104.445 34.8718 103.664 35.0802 102.726 35.0802C99.442 35.0802 97.4615 33.0476 97.4615 30.2332C97.4615 27.5752 99.442 25.3862 102.309 25.3862C104.237 25.3862 105.8 26.3765 106.426 27.6273V30.9629H99.859C100.224 32.1095 101.266 32.8913 103.142 32.8913ZM99.859 29.243H104.706C104.393 28.1485 103.455 27.471 102.256 27.471C101.058 27.471 100.172 28.2006 99.859 29.243Z" fill="white"/>
<path d="M39.7152 42.6898V48.7877H37.4741V43.0547C37.4741 42.0644 36.7444 41.4911 36.0148 41.4911C35.233 41.4911 34.5554 42.0644 34.5554 43.0547V48.7877H32.3144V43.0547C32.3144 42.0644 31.5847 41.4911 30.855 41.4911C30.0733 41.4911 29.3957 42.0644 29.3957 43.0547V48.7877H26.9983V39.5627H29.1873V40.2403C29.8648 39.5627 30.5423 39.3542 31.4283 39.3542C32.4186 39.3542 33.2525 39.7712 33.8258 40.553C34.6076 39.7191 35.5457 39.3542 36.6402 39.3542C38.3601 39.3542 39.7152 40.7093 39.7152 42.6898Z" fill="white"/>
<path d="M42.1119 44.149C42.1119 41.491 44.0403 39.302 46.6984 39.302C47.7407 39.302 48.5746 39.6147 49.2 40.1359V39.5105H51.4411V48.7875H49.2522V48.0579C48.6267 48.6312 47.7407 48.996 46.6462 48.996C44.0403 48.996 42.1119 46.807 42.1119 44.149ZM49.4085 44.149C49.4085 42.6897 48.314 41.5952 46.9589 41.5952C45.6039 41.5952 44.5094 42.6897 44.5094 44.149C44.5094 45.6083 45.6039 46.7028 46.9589 46.7028C48.2619 46.7549 49.4085 45.6083 49.4085 44.149Z" fill="white"/>
<path d="M54.4644 39.5627H56.6533V40.2403C57.3309 39.5627 58.2169 39.3542 59.1029 39.3542C61.0313 39.3542 62.5948 40.8136 62.5948 42.7941V48.7877H60.3537V43.2631C60.3537 42.2729 59.572 41.4911 58.5817 41.4911C57.5915 41.4911 56.8097 42.2729 56.8097 43.2631V48.7877H54.5686V39.5627H54.4644Z" fill="white"/>
<path d="M71.6106 46.0774C71.6106 47.6409 70.5683 48.996 68.0666 48.996C66.9721 48.996 66.0861 48.7354 65.3043 48.4227V46.2337C66.1382 46.6507 67.1285 46.9113 68.0145 46.9113C68.8484 46.9113 69.2653 46.6507 69.2653 46.1816C69.2653 44.7223 65.3043 45.1914 65.3043 42.2206C65.3043 40.3965 66.7636 39.302 68.7962 39.302C69.6301 39.302 70.4119 39.5105 71.2458 39.9795V42.2206C70.1513 41.5431 69.3696 41.3346 68.7441 41.3346C68.0145 41.3346 67.5975 41.5952 67.5975 42.0643C67.5454 43.4715 71.6106 42.9503 71.6106 46.0774Z" fill="white"/>
<path d="M76.4573 39.5627V48.8398H74.2162V39.5627H76.4573Z" fill="white"/>
<path d="M78.8031 44.149C78.8031 41.491 80.9921 39.302 83.6501 39.302C86.3081 39.302 88.4971 41.491 88.4971 44.149C88.4971 46.807 86.3081 48.996 83.6501 48.996C80.9921 48.996 78.8031 46.807 78.8031 44.149ZM86.0997 44.149C86.0997 42.6897 85.0052 41.5952 83.6501 41.5952C82.295 41.5952 81.2005 42.6897 81.2005 44.149C81.2005 45.6083 82.295 46.7028 83.6501 46.7028C85.0052 46.7028 86.0997 45.6083 86.0997 44.149Z" fill="white"/>
<path d="M90.8416 39.5627H93.0305V40.2403C93.7081 39.5627 94.5941 39.3542 95.4801 39.3542C97.4085 39.3542 98.972 40.8136 98.972 42.7941V48.7877H96.7309V43.2631C96.7309 42.2729 95.9491 41.4911 94.9589 41.4911C93.9686 41.4911 93.1869 42.2729 93.1869 43.2631V48.7877H90.9458V39.5627H90.8416Z" fill="white"/>
<path d="M103.351 46.2336V46.5985H102.569V48.7874H102.152V46.5985H101.37V46.2336H103.351Z" fill="white"/>
<path d="M104.237 46.2336L105.07 48.2663L105.852 46.2336H106.373V48.7874H105.956V46.9112L105.175 48.7874H104.81L104.132 46.9112V48.7874H103.715V46.2336H104.237Z" fill="white"/>
</g>
<defs>
<clipPath id="clip0_4_6">
<rect width="119" height="61" fill="white"/>
</clipPath>
</defs>
</svg>
