<svg width="52" height="57" viewBox="0 0 52 57" fill="none" xmlns="http://www.w3.org/2000/svg">
<path d="M7.55441 51.6344C7.43048 51.9574 7.37596 51.9972 7.32143 52.0369C7.2669 52.0717 7.21238 52.1115 7.15785 52.1413C6.9794 52.2307 6.94966 52.2109 6.90009 52.0021C6.90009 51.9872 6.88026 51.9723 6.87035 51.9524H6.74146C6.74146 51.9524 6.71668 52.0021 6.72164 52.027C6.74642 52.1661 6.77616 52.3053 6.80095 52.4444C6.66711 52.5538 6.54814 52.6482 6.43413 52.7476C6.36474 52.8122 6.30029 52.8719 6.29534 52.9911C6.29534 53.0806 6.20116 53.1651 6.09706 53.1999C5.99296 53.2346 5.86408 53.1899 5.79468 53.0806C5.7352 52.9862 5.7005 52.8669 5.56666 52.847C5.413 52.8271 5.28412 52.8719 5.17011 53.0011C5.18498 53.0955 5.23951 53.18 5.31386 53.2545C5.35847 53.2993 5.39813 53.3241 5.46257 53.3291C5.56171 53.3291 5.66085 53.3639 5.7699 53.3837C5.7699 53.4583 5.7699 53.5179 5.7699 53.5776C5.7699 53.667 5.7352 53.7416 5.64598 53.7366C5.55179 53.7366 5.54188 53.7863 5.5171 53.8459C5.39317 54.1044 5.21472 54.328 5.01644 54.5318C4.93217 54.6163 4.78842 54.6759 4.82312 54.8399C4.61493 54.994 4.55544 55.2474 4.40674 55.4413C4.37699 55.481 4.33734 55.5108 4.30264 55.5456C4.10436 55.7345 4.02009 55.8637 3.92591 56.1022C3.79207 56.1718 3.68798 56.1122 3.60371 55.9979C3.58388 56.137 3.5591 56.1867 3.45996 56.301C3.38064 56.3955 3.35586 56.3905 3.14271 56.2265C3.08818 56.301 3.04357 56.3756 2.98409 56.4452C2.91965 56.5197 2.84529 56.5843 2.7759 56.6539C2.58753 56.6688 2.41899 56.6539 2.26533 56.5147C2.20089 56.4551 2.08192 56.4452 1.96791 56.4452C2.01748 56.4949 2.08192 56.5396 2.11662 56.5992C2.1414 56.639 2.14636 56.7135 2.12653 56.7583C2.09679 56.8278 2.02244 56.8577 1.95304 56.8328C1.85886 56.798 1.77459 56.7384 1.67049 56.6837C1.7498 56.3557 1.39786 56.3955 1.28385 56.2364C1.08557 56.2662 1.15497 56.4153 1.12523 56.5396C1.04592 56.5197 0.961648 56.5744 0.887293 56.4949C0.763369 56.3607 0.773283 56.1967 0.783197 56.0227C0.7138 55.9681 0.639445 55.9084 0.545263 55.8289C0.545263 55.7444 0.545263 55.6251 0.545263 55.5108C0.545263 55.317 0.475866 55.2474 0.267673 55.2276C0.242888 55.2276 0.213147 55.2126 0.173491 55.2027C0.198276 55.1629 0.218104 55.1282 0.232974 55.0983C0.342028 54.8797 0.337071 54.825 0.178448 54.6511C0.15862 54.6312 0.138792 54.6063 0.114007 54.5864C0.00991115 54.5169 -2.78047e-06 54.4125 0.0148681 54.2982C0.114007 54.2038 0.20819 54.1044 0.317243 53.995C0.297415 53.9205 0.257759 53.841 0.247845 53.7615C0.22306 53.5776 0.282544 53.4086 0.351941 53.2396C0.451081 52.9961 0.594833 52.7824 0.738584 52.5687C0.783197 52.5041 0.872422 52.4345 0.946777 52.4345C1.13018 52.4345 1.21941 52.2755 1.36812 52.2258C1.3929 52.2158 1.43256 52.186 1.4276 52.1661C1.41273 51.9823 1.5664 51.9176 1.66554 51.8182C1.78946 51.694 1.85886 51.5449 1.90843 51.3809C1.93817 51.2815 1.97782 51.1871 2.06209 51.1175C2.2108 50.9933 2.3149 50.8243 2.49831 50.7299C2.57762 50.6901 2.63214 50.5907 2.68667 50.5112C2.81059 50.3273 2.90478 50.1136 3.05844 49.9546C3.20715 49.7955 3.40543 49.6763 3.63345 49.6266C3.7772 49.5967 3.94574 49.5868 3.94078 49.3731C3.94078 49.3582 3.96061 49.3383 3.97548 49.3284C4.1688 49.2091 4.18863 49.0053 4.2382 48.8115C4.24811 48.7668 4.27785 48.7071 4.31255 48.6972C4.52075 48.6177 4.69424 48.4537 4.94209 48.4984C5.08584 48.5233 5.19985 48.4586 5.29899 48.3593C5.41796 48.235 5.39317 48.1406 5.22959 48.0859C5.20481 48.076 5.17506 48.0809 5.13045 48.076C5.24942 47.902 5.38821 47.743 5.36839 47.5243C5.35847 47.4398 5.413 47.405 5.47744 47.3703C5.60136 47.3056 5.74512 47.2758 5.78973 47.1118C5.79468 47.0919 5.84921 47.077 5.88391 47.0721C6.0227 47.0621 6.09706 46.9627 6.14167 46.8534C6.2656 46.5403 6.38456 46.3017 6.61754 46.1626C6.75138 46.0831 6.78608 45.9787 6.8406 45.8644C6.85547 45.8296 6.86539 45.7948 6.88026 45.7501C6.96948 45.7551 7.05871 45.7501 7.13802 45.77C7.28177 45.7998 7.32143 45.7799 7.33134 45.6457C7.33134 45.5861 7.34126 45.5265 7.33134 45.4668C7.29169 45.2829 7.41065 45.1637 7.49492 45.0295C7.5891 44.8804 7.75268 44.8506 7.92122 44.7859C7.94601 44.7015 7.88157 44.5424 8.03523 44.5076C8.17898 44.4728 8.2236 44.6219 8.33265 44.6915C8.41692 44.6418 8.53093 44.6219 8.60033 44.4977C8.5111 44.4232 8.40205 44.3685 8.35248 44.279C8.29795 44.1796 8.30787 44.0454 8.27812 43.8963C8.32274 43.9311 8.34256 43.946 8.3723 43.9659C8.42187 43.9063 8.45657 43.8317 8.54084 43.782C8.67468 43.7025 8.77382 43.5534 8.85809 43.4192C8.89774 43.3546 8.87792 43.2503 8.88783 43.1757C9.07124 42.9223 9.32404 42.7583 9.57685 42.6042C9.69581 42.5346 9.77512 42.47 9.77512 42.3209C9.77512 42.2762 9.81974 42.2165 9.86435 42.1867C9.92383 42.147 9.99819 42.1321 10.0626 42.0973C10.3353 41.9581 10.365 41.8637 10.2361 41.5556C10.3006 41.5108 10.365 41.4562 10.4394 41.4214C10.5088 41.3916 10.598 41.4065 10.6525 41.3717C10.712 41.3319 10.7269 41.2375 10.7863 41.1928C10.9202 41.0934 11.0292 40.9791 11.1036 40.825C11.1482 40.7355 11.3167 40.7107 11.3961 40.6262C11.4654 40.5517 11.4853 40.4274 11.5299 40.328C11.5398 40.3081 11.5745 40.2833 11.5993 40.2783C11.7133 40.2584 11.7083 40.1739 11.7331 40.0845C11.7728 39.9155 11.8372 39.7515 11.9116 39.5925C11.9413 39.5279 12.0157 39.4782 12.0851 39.4434C12.2189 39.3738 12.3527 39.3142 12.4073 39.1551C12.4221 39.1054 12.4866 39.0657 12.5312 39.0259C12.6353 38.9414 12.7394 38.8569 12.8435 38.7725C12.9476 38.688 12.9079 38.5289 12.9922 38.4494C13.1012 38.35 13.1607 38.1661 13.359 38.186C13.6267 38.0469 13.8597 37.8779 14.0084 37.6045C14.048 37.53 14.1075 37.4654 14.1521 37.3958C14.1769 37.3561 14.2166 37.3213 14.2265 37.2765C14.2562 37.1324 14.3058 37.0032 14.4644 36.9634C14.623 36.7398 14.7866 36.5211 14.9403 36.2975C14.975 36.2478 14.9998 36.1782 14.9998 36.1136C14.9998 35.9546 15.0741 35.9198 15.2179 35.9148C15.3319 35.9148 15.3963 35.8204 15.4161 35.7061C15.4657 35.4377 15.5401 35.2985 15.7582 35.2141C15.9267 35.1495 15.9218 35.0004 15.9416 34.896C15.9713 34.727 16.0259 34.6376 16.1993 34.6077C16.3134 34.5879 16.3233 34.4537 16.3629 34.3642C16.3877 34.3145 16.3629 34.2648 16.4472 34.2449C16.5067 34.235 16.5761 34.1455 16.5959 34.0809C16.6455 33.912 16.7991 33.8126 16.8735 33.6585C16.928 33.5492 17.0668 33.574 17.2155 33.7082C17.3345 33.6386 17.3989 33.5492 17.3741 33.405C17.3593 33.3106 17.4039 33.246 17.4634 33.1715C17.5328 33.087 17.5823 32.9776 17.5427 32.8484C17.7211 32.6944 17.8996 32.5453 18.0731 32.3912C18.1722 32.3017 18.2367 32.1924 18.2714 32.0582C18.2961 31.9638 18.3259 31.8594 18.4597 31.8048C18.5836 31.7551 18.658 31.601 18.8365 31.6209C18.8811 31.6258 18.9405 31.5364 18.9752 31.5066C18.9455 31.3724 18.9257 31.2581 18.9058 31.1587C19.0199 30.9798 19.1983 30.9002 19.3074 30.7462C19.3619 30.6716 19.4759 30.6418 19.5701 30.5872V30.1001C19.5106 30.0603 19.4412 30.0156 19.3718 29.9659C19.238 29.8765 19.1041 29.792 18.9802 29.6976C18.9455 29.6727 18.9405 29.618 18.9158 29.5783C18.8811 29.5236 18.8563 29.459 18.8067 29.4143C18.7224 29.3397 18.6927 29.2503 18.653 29.1459C18.6233 29.0614 18.5936 28.9372 18.4449 28.9471C18.3705 28.9521 18.3209 28.8924 18.3209 28.8179C18.3209 28.6837 18.3507 28.5396 18.2069 28.4452C18.1871 28.4352 18.2069 28.3706 18.202 28.3308C18.202 28.2613 18.202 28.1917 18.202 28.1221C18.202 27.9929 18.1623 27.9382 18.0334 27.9432C17.9293 27.9482 17.8451 27.9134 17.7608 27.8736C17.6418 27.819 17.6319 27.7196 17.7162 27.6152C17.8946 27.4015 17.8897 27.3717 17.6617 27.2226C17.5576 27.158 17.4634 27.0983 17.4832 26.9542C17.3989 26.8995 17.4336 26.7455 17.28 26.7355C17.2254 26.7355 17.166 26.661 17.1858 26.5765C17.2106 26.4821 17.1412 26.4373 17.0916 26.3777C17.0222 26.2982 16.9429 26.2187 16.9082 26.1292C16.8685 26.0248 16.8239 25.9752 16.705 25.9652C16.6405 25.9602 16.586 25.8758 16.5513 25.8459C16.5662 25.6869 16.586 25.5577 16.586 25.4235C16.586 25.349 16.4968 25.3241 16.3976 25.3589C16.353 25.3738 16.3034 25.3738 16.2241 25.3837C16.244 25.3042 16.2539 25.2446 16.2687 25.1899C16.2935 25.0955 16.3233 24.9961 16.2241 24.9265C16.1547 24.8768 16.1795 24.8072 16.1696 24.7426C16.1399 24.5985 16.1399 24.4345 15.9267 24.4196C15.8623 24.4196 15.8325 24.35 15.8127 24.2755C15.7681 24.1264 15.7037 23.9823 15.6343 23.8431C15.6095 23.7884 15.5599 23.7288 15.5054 23.7139C15.2873 23.6493 15.2873 23.6542 15.2774 23.4405C15.1782 23.3908 15.0791 23.3362 14.9948 23.2914C14.9551 23.0877 14.9898 22.9386 15.1683 22.8541C15.1435 22.7398 15.089 22.6901 14.9849 22.6901C14.8511 22.6901 14.7668 22.6205 14.7073 22.5062C14.6726 22.4366 14.6825 22.3919 14.7172 22.3223C14.8511 22.049 14.8461 22.044 14.5635 21.9148C14.5487 21.9049 14.5289 21.8999 14.5041 21.89C14.5041 21.8154 14.509 21.7359 14.5041 21.6564C14.4991 21.5967 14.4049 21.5619 14.3256 21.5868C14.2661 21.6067 14.0877 21.557 14.0926 21.5172C14.1125 21.3681 13.9885 21.3135 13.9092 21.2339C13.7853 21.1097 13.706 20.9805 13.7308 20.8016C13.7308 20.7717 13.7457 20.732 13.7308 20.7121C13.5573 20.5034 13.6316 20.2549 13.6069 20.0014C13.359 20.0611 13.2747 19.8175 13.0913 19.738C13.0418 19.7181 13.017 19.584 13.0269 19.5094C13.0418 19.3752 12.9674 19.2907 12.8782 19.246C12.6898 19.1566 12.5857 19.0174 12.5461 18.8186C12.5312 18.7291 12.4668 18.6993 12.3775 18.6944C12.2586 18.6894 12.1941 18.585 12.1396 18.4956C12.095 18.416 12.1396 18.2918 12.2288 18.2868C12.318 18.2819 12.3874 18.257 12.4221 18.1825C12.442 18.1328 12.442 18.0582 12.4221 18.0085C12.3726 17.8694 12.2288 17.8346 12.0553 17.9042C12.0305 17.9141 12.0008 17.9191 11.9611 17.924V17.7501C12.0206 17.7551 12.0603 17.8495 12.1346 17.77C12.1793 17.7203 12.204 17.6706 12.1842 17.6109C12.1644 17.5463 12.1198 17.4966 12.0355 17.5016C11.9562 17.5016 11.8769 17.5016 11.8025 17.5016C11.6935 17.3923 11.5894 17.2879 11.4754 17.1736V16.9102C11.2275 16.8555 11.1779 16.5971 10.9945 16.453V16.2094C10.8855 16.1299 10.7913 16.0554 10.6971 15.9858C10.8012 15.7323 10.7715 15.6826 10.5435 15.5882C10.3799 15.5236 10.2262 15.4391 10.0825 15.3447C10.0378 15.3149 10.0279 15.2304 9.99323 15.1757C9.87426 14.9869 9.83957 14.7583 9.69581 14.5843C9.66111 14.5396 9.63137 14.4899 9.59172 14.4501C9.53223 14.3756 9.42814 14.3308 9.45292 14.2066C9.45292 14.1867 9.42318 14.1569 9.40335 14.142C9.21499 13.978 9.15055 13.7593 9.09602 13.5257C9.07619 13.4512 9.00184 13.3866 8.9374 13.3319C8.84322 13.2574 8.74408 13.1828 8.63502 13.1331C8.54084 13.0934 8.51606 13.0039 8.46649 12.9542C8.50614 12.8449 8.5458 12.7455 8.59537 12.6212C8.46153 12.5964 8.35248 12.6113 8.24838 12.5169C8.1542 12.4274 8.12941 12.3081 8.10463 12.2137C8.07489 12.1093 8.04019 12.005 7.96088 11.9801C7.832 11.9404 7.80225 11.831 7.73781 11.7416C7.70807 11.7068 7.70311 11.6571 7.67337 11.6223C7.52962 11.4533 7.52962 11.4434 7.62876 11.1899C7.50979 11.1849 7.39578 11.18 7.27186 11.17C7.09341 10.9663 6.90504 10.7575 6.71668 10.5438C6.67207 10.4941 6.61754 10.4345 6.61754 10.3798C6.61258 10.1711 6.46387 10.0618 6.33995 9.92758C6.27551 9.85801 6.17141 9.81825 6.18628 9.694C6.18628 9.67909 6.14167 9.6443 6.11689 9.63436C6.00783 9.59461 5.93348 9.50018 5.85417 9.42563C5.8046 9.37593 5.83434 9.24175 5.82938 9.12744C5.77981 9.01811 5.6311 8.96841 5.59145 8.82428C5.55179 8.69507 5.35847 8.73483 5.29899 8.60064C5.24942 8.4913 5.20481 8.35712 5.07097 8.32233C4.94209 8.28754 4.94209 8.16826 4.88756 8.08875C4.86278 8.05396 4.88756 7.98935 4.8826 7.94462C4.86278 7.83529 4.85782 7.73589 4.69424 7.71601C4.60006 7.70607 4.44639 7.65637 4.46126 7.47746C4.46126 7.4377 4.39682 7.388 4.35717 7.34824C4.18367 7.16933 4.00522 6.99539 3.83173 6.82144C3.80199 6.78665 3.75242 6.74192 3.75737 6.70714C3.79207 6.45368 3.62354 6.31452 3.455 6.15549C3.455 6.11076 3.455 6.05609 3.455 5.99645C3.455 5.89208 3.41039 5.82251 3.30629 5.82748C3.23194 5.82748 3.1675 5.77281 3.1675 5.74299C3.17741 5.6088 3.07827 5.55911 3.01383 5.47462C2.96922 5.41995 2.93452 5.3454 2.91965 5.27583C2.87008 5.08697 2.7759 4.93291 2.6371 4.79375C2.54292 4.69933 2.44378 4.59993 2.38925 4.48065C2.33968 4.36635 2.32977 4.22222 2.32481 4.09301C2.32481 3.94391 2.27029 3.82464 2.20089 3.69542C2.12653 3.56621 2.06209 3.43202 1.92826 3.31771C1.99765 3.27796 2.04722 3.25808 2.08688 3.22826C2.12653 3.19844 2.15628 3.15868 2.20089 3.11395C2.15132 2.85552 2.26533 2.65673 2.46361 2.49272C2.59744 2.37842 2.66684 2.16968 2.89486 2.17962C2.90973 2.17962 2.91965 2.14981 2.93948 2.13987C3.03366 2.09514 3.1328 2.05538 3.24185 2.07526C3.36577 2.10011 3.46491 2.04544 3.56405 1.99077C3.67311 1.93113 3.7772 1.86653 3.90608 1.90628C3.94574 2.00568 3.99035 2.11005 4.03496 2.20944C4.04488 2.22932 4.07958 2.24423 4.11923 2.27405C4.14897 2.21938 4.1688 2.16968 4.19854 2.12993C4.22829 2.09017 4.26794 2.06035 4.31255 2.01562C4.38691 2.06532 4.45631 2.12496 4.53066 2.17465C4.55049 2.18956 4.60006 2.1995 4.60997 2.19453C4.6992 2.09514 4.81321 2.14981 4.9173 2.13987C5.00157 2.12993 5.07593 2.11999 5.16515 2.0852C5.40308 1.9858 5.61623 2.00568 5.91861 2.07029C6.0921 2.11005 6.29038 2.16968 6.45396 2.12496C6.74642 2.05041 7.03393 2.10011 7.32639 2.07526C7.41561 2.07029 7.48501 2.09514 7.56432 2.15478C7.66842 2.23429 7.80225 2.32872 7.94601 2.1995C7.97079 2.17962 8.02532 2.18459 8.06002 2.19453C8.34256 2.26908 8.34256 2.26908 8.60528 2.19453C8.63502 2.18459 8.66477 2.18956 8.69451 2.19453C8.80356 2.21441 8.91757 2.23429 9.02662 2.25417C9.14063 2.27405 9.24969 2.22932 9.36865 2.29393C9.43309 2.33369 9.5471 2.32872 9.62146 2.29393C9.76521 2.23926 9.88914 2.22435 10.0279 2.2989C10.0725 2.32375 10.1419 2.30884 10.2014 2.30387C10.479 2.28399 10.7616 2.3486 11.0392 2.2492C11.1879 2.19453 11.3316 2.28896 11.4803 2.32872C11.5448 2.34363 11.6092 2.36351 11.6736 2.36351C11.7282 2.36351 11.7728 2.31381 11.8273 2.30884C11.9264 2.2989 12.0206 2.30884 12.1148 2.30884C12.1495 2.3486 12.1793 2.37345 12.1991 2.40824C12.2883 2.55236 12.2883 2.55733 12.4519 2.50763C12.6502 2.44799 12.8237 2.52254 13.017 2.59709C13.0368 2.56727 13.0566 2.51757 13.0963 2.48278C13.1508 2.43806 13.2153 2.36848 13.2747 2.37345C13.5969 2.40327 13.9092 2.28896 14.2314 2.30387C14.3653 2.30884 14.4743 2.34363 14.5635 2.43806C14.6825 2.5623 14.8362 2.60206 14.9998 2.60703C15.1435 2.60703 15.2823 2.58715 15.4013 2.72134C15.4558 2.78097 15.5748 2.776 15.664 2.79588C15.7582 2.81576 15.8226 2.88534 15.9218 2.79588C15.9515 2.76606 16.0606 2.76606 16.0903 2.79588C16.2192 2.91516 16.2985 2.83564 16.3828 2.74121C16.4075 2.7114 16.4175 2.67164 16.4373 2.64182C16.5017 2.68158 16.5265 2.69152 16.5513 2.70643C16.7991 2.84558 16.7991 2.85055 17.0866 2.85055C17.1759 2.85055 17.2552 2.87043 17.3295 2.91516C17.3543 2.93007 17.3791 2.95989 17.3989 2.95989C17.6121 2.94498 17.6864 3.06922 17.7558 3.24814C17.7955 3.35747 17.9194 3.42705 18.0532 3.4519C18.2664 3.48669 18.4002 3.63081 18.4895 3.8147C18.539 3.91409 18.5787 4.01846 18.653 4.10295C18.7224 4.17749 18.7076 4.28186 18.6134 4.32162C18.5291 4.35641 18.4548 4.41605 18.3507 4.40611C18.1524 4.3912 17.9591 4.40611 17.7558 4.40611C17.7013 4.5552 17.7558 4.67945 17.85 4.77387C17.8946 4.8186 17.9888 4.8186 18.0582 4.83848C18.1127 4.73411 18.1425 4.63969 18.2813 4.63969C18.4647 4.63969 18.6332 4.69436 18.8067 4.73412C18.8761 4.75399 18.9405 4.80866 19.0099 4.81363C19.119 4.81363 19.233 4.82854 19.3024 4.88818C19.3966 4.97267 19.461 5.09691 19.5156 5.21122C19.5602 5.30068 19.5701 5.40504 19.6097 5.5442C19.7981 5.74796 20.0162 5.98651 20.2343 6.22009C20.2541 6.23997 20.2888 6.26482 20.2888 6.2847C20.2888 6.4984 20.4574 6.63259 20.5317 6.8115C20.621 7.02024 20.6358 7.01527 20.8837 7.04508C20.8837 7.10969 20.8787 7.17927 20.8688 7.24388C20.8688 7.25879 20.844 7.2737 20.8291 7.28861C20.8787 7.46752 21.1067 7.39794 21.1712 7.52716C21.1464 7.64146 21.1315 7.74086 21.1117 7.83529C21.2654 7.88002 21.4091 7.89492 21.5281 7.95953C21.5925 7.98935 21.6223 8.09372 21.657 8.14839C21.6223 8.34221 21.4537 8.39688 21.3496 8.49627C21.419 8.62052 21.4785 8.72489 21.533 8.82925C21.6173 8.98332 21.7561 9.0678 21.9147 9.10259C22.0139 9.12744 22.0882 9.16223 22.1626 9.23181C22.2221 9.29145 22.3014 9.3312 22.3658 9.3809C22.5096 9.49024 22.5294 9.56479 22.4253 9.71885C22.3807 9.78346 22.3113 9.82819 22.2419 9.88286C22.2568 9.90273 22.2667 9.93752 22.2865 9.94746C22.3658 9.99219 22.4501 10.027 22.5294 10.0767C22.6087 10.1264 22.6831 10.196 22.7525 10.2506C22.9012 10.3798 23.0598 10.4345 23.263 10.4146C23.3175 10.5438 23.377 10.6581 23.4117 10.7824C23.4514 10.9166 23.491 11.0557 23.491 11.1949C23.491 11.334 23.5208 11.4185 23.6596 11.4533C23.6844 11.4583 23.7042 11.4931 23.7339 11.5279C23.7141 11.5776 23.6844 11.6372 23.6744 11.6968C23.6546 11.841 23.6744 11.8608 23.8331 11.9155C23.8628 11.9255 23.9074 11.9553 23.9074 11.9752C23.8975 12.0994 23.9818 12.1292 24.076 12.1739C24.2098 12.2336 24.3139 12.323 24.3189 12.4224C24.3387 12.6958 24.5221 12.8051 24.7352 12.8946C24.7501 12.8995 24.765 12.9194 24.7898 12.9492V13.1828C24.879 13.2922 24.9781 13.3568 24.998 13.5059C25.0128 13.5903 25.0624 13.7096 25.226 13.7196C25.3598 13.7295 25.4193 13.8935 25.449 14.0227C25.4689 14.1072 25.4887 14.1619 25.5779 14.1917C25.6225 14.2066 25.6523 14.2464 25.6919 14.2762C25.7663 14.3309 25.7762 14.4004 25.7266 14.4799C25.6969 14.5296 25.6771 14.5793 25.6424 14.6439C25.7613 14.7384 25.8357 14.9073 26.034 14.9223C26.0984 14.9272 26.1034 15.0217 26.1133 15.0962C26.1232 15.2006 26.0587 15.3198 26.1628 15.3994C26.2322 15.454 26.2422 15.5286 26.2223 15.6131H26.5495C26.6585 15.6976 26.6585 15.8616 26.8122 15.8715C26.8667 15.9858 26.9064 16.1001 26.8717 16.2492C26.946 16.3188 27.0254 16.3933 27.1047 16.4679C27.184 16.5424 27.2335 16.6368 27.2335 16.7412C27.2335 16.945 27.3277 17.109 27.4616 17.2432C27.6202 17.3972 27.754 17.5811 27.9573 17.6905C28.0019 17.7153 28.0614 17.7799 28.0614 17.8197C28.0564 17.9638 28.2249 18.0284 28.1952 18.1874C28.1655 18.3514 28.1952 18.3514 28.3687 18.416C28.5818 18.4956 28.6909 18.6944 28.7702 18.8832C28.8049 18.9627 28.8396 19.0373 28.8991 19.0969C28.9338 19.1317 28.9734 19.1615 29.0032 19.2013C29.1519 19.4001 29.0874 19.5442 28.8346 19.6038C28.8198 19.6038 28.7999 19.6237 28.7652 19.6436C28.79 19.7082 28.8148 19.7778 28.8644 19.8971C28.9338 19.8076 28.9685 19.7529 29.0131 19.7032C29.0974 19.6088 29.1965 19.5392 29.3353 19.5442C29.489 19.5492 29.598 19.4498 29.6625 19.3404C29.7666 19.1715 29.8905 19.0422 30.059 18.9428C30.1235 18.9031 30.1829 18.8136 30.2028 18.7391C30.2176 18.6596 30.2523 18.6049 30.287 18.5353C30.3663 18.3713 30.4804 18.252 30.6241 18.1427C30.7282 18.0632 30.7926 17.9389 30.8819 17.8197C30.976 17.8197 31.0702 17.8197 31.1694 17.8197C31.2289 17.8197 31.2983 17.7203 31.2784 17.6706C31.2487 17.5911 31.209 17.5215 31.1694 17.437C31.2437 17.3277 31.328 17.2283 31.5213 17.3127C31.5064 17.1885 31.5411 17.104 31.4618 17.0096C31.4123 16.945 31.4866 16.8307 31.5709 16.8058C31.7295 16.7594 31.8105 16.665 31.8138 16.5225C31.8138 16.4828 31.8138 16.448 31.8138 16.4132C31.9278 16.3685 32.0269 16.3188 32.131 16.284C32.2946 16.2343 32.369 16.1299 32.3491 15.961C32.3392 15.8665 32.364 15.787 32.4433 15.7323C32.4681 15.7174 32.4929 15.6926 32.5078 15.6677C32.5474 15.5982 32.5078 15.4739 32.6168 15.4491C32.711 15.4242 32.8101 15.4391 32.9093 15.4391C32.9291 15.4391 32.9489 15.4391 32.939 15.4391C33.1373 15.3944 33.0877 15.0763 33.3356 15.1459C33.3455 15.1161 33.3603 15.1012 33.3603 15.0863C33.3405 14.8626 33.3752 14.6589 33.5239 14.465C33.633 14.3209 33.7123 14.1321 33.6478 13.9084C33.7321 13.8985 33.8065 13.8935 33.8907 13.8836C33.9106 13.809 33.9354 13.7295 33.9601 13.65C33.9701 13.6301 33.9948 13.5953 34.0097 13.5953C34.2129 13.5953 34.2972 13.4214 34.3864 13.2971C34.5203 13.1083 34.6938 12.9741 34.8474 12.7803C34.8474 12.7405 34.8574 12.6809 34.8474 12.6262C34.8177 12.492 34.897 12.4026 34.9862 12.3628C35.1102 12.3081 35.1845 12.2087 35.2737 12.1242C35.4571 11.9503 35.4571 11.9453 35.7099 12.0497C35.7793 11.9503 35.8735 11.8956 36.0222 11.9354C36.0321 11.7962 36.0668 11.6819 36.161 11.5726C36.275 11.4384 36.3643 11.2694 36.394 11.0756C36.4138 10.9563 36.4436 10.847 36.5774 10.7874C36.6419 10.7575 36.6666 10.6383 36.736 10.6035C36.8451 10.5538 36.855 10.4594 36.8996 10.3749C36.9442 10.2954 37.0186 10.2258 37.0731 10.1562C37.0979 10.186 37.1326 10.2258 37.202 10.3152C37.207 10.1711 37.2268 10.0866 37.2169 10.0071C37.1921 9.87292 37.2763 9.80831 37.3557 9.73376C37.4052 9.68903 37.4647 9.66418 37.5192 9.62442C37.5837 9.5797 37.6432 9.57473 37.7026 9.62939C37.777 9.70394 37.8514 9.76358 37.9455 9.66915C38.0348 9.58467 38.01 9.49521 37.896 9.41569C38.0496 9.29642 38.1389 9.15229 38.1785 8.96841C38.3619 9.05289 38.5106 9.19702 38.704 9.02308C38.7436 8.81931 38.5404 8.78949 38.4214 8.6901V8.41676C38.5404 8.30245 38.6544 8.15336 38.8378 8.09372C38.8973 8.07384 38.9518 8.0142 38.9915 7.95953C39.1699 7.72595 39.1649 7.72595 39.4128 7.79056C39.4128 7.76074 39.4277 7.73589 39.4227 7.70607C39.4128 7.57189 39.4277 7.46752 39.5863 7.41285C39.6507 7.39297 39.7449 7.31842 39.7201 7.20909C39.7201 7.19915 39.7201 7.18424 39.7201 7.17927C39.9234 7.02024 39.9928 6.72702 40.2555 6.63259C40.3645 6.59283 40.4042 6.50337 40.429 6.40895C40.4785 6.22506 40.5232 6.05609 40.7264 5.96663C40.8354 5.91693 40.8949 5.78772 41.0189 5.73802C41.0486 5.72311 41.0734 5.66347 41.0833 5.61874C41.1081 5.51438 41.1527 5.42492 41.232 5.35534C41.2617 5.33049 41.2964 5.29074 41.3262 5.29571C41.4997 5.33049 41.5641 5.18637 41.6831 5.08697C41.6831 5.04224 41.6831 4.98758 41.6831 4.92794C41.6831 4.69933 41.6831 4.69933 41.9161 4.63472C41.9508 4.62478 41.9855 4.59993 42.0102 4.57508C42.0251 4.5552 42.0251 4.51544 42.04 4.50053C42.1243 4.42102 42.1094 4.28186 42.2333 4.21725C42.3424 4.15762 42.4118 4.03337 42.5159 3.96379C42.5952 3.90912 42.7042 3.89918 42.8034 3.86937C42.848 3.85446 42.9223 3.85943 42.9322 3.83458C43.0314 3.62584 43.2743 3.56124 43.4081 3.34753C43.4081 3.27299 43.3982 3.16365 43.4081 3.05431C43.423 2.9251 43.4428 2.79588 43.5915 2.73624C43.7204 2.68655 43.765 2.5623 43.7601 2.43309C43.7601 2.28896 43.8146 2.17465 43.9137 2.08023C44.0277 1.96592 44.1368 1.84168 44.2954 1.78701C44.34 1.7721 44.3797 1.73731 44.4094 1.70252C44.4689 1.623 44.5482 1.60809 44.6424 1.60809C44.7812 1.60809 44.8208 1.57828 44.8308 1.44906C44.8357 1.33972 44.8704 1.28506 44.9795 1.24033C45.0984 1.19063 45.1877 1.07632 45.2967 0.996806C45.3413 0.966987 45.4008 0.957047 45.4702 0.932198C45.5148 1.15584 45.3463 1.29003 45.3265 1.47391C45.4058 1.64288 45.5495 1.62797 45.7032 1.54846C45.7527 1.52361 45.8172 1.50373 45.842 1.459C45.956 1.26021 46.0601 1.05147 46.1691 0.847711C46.3872 0.827832 46.4913 1.00675 46.6153 1.16578C46.6648 1.11608 46.7243 1.08129 46.7293 1.0465C46.7342 0.966987 46.7788 0.966987 46.8334 0.942138C47.0316 0.847711 47.225 0.87256 47.4133 0.957047C47.5125 1.00178 47.5472 1.11111 47.567 1.21051C47.5769 1.25524 47.5323 1.31984 47.4926 1.35463C47.448 1.39439 47.3836 1.41427 47.3092 1.45403C47.4381 1.5087 47.5373 1.50373 47.6463 1.41427C47.686 1.47888 47.7306 1.54349 47.7752 1.60809C47.7851 1.59815 47.8 1.58822 47.8099 1.57331C47.8099 1.6727 47.8099 1.7721 47.8099 1.8715C47.8099 1.96592 47.8694 2.02556 47.9487 2.02059C48.0924 2.01065 48.142 2.09017 48.2015 2.1995C48.2758 2.33866 48.3799 2.4629 48.4692 2.59709C48.5187 2.67164 48.5584 2.75612 48.6129 2.85055C48.5386 2.93504 48.4741 3.00462 48.4047 3.07419V3.31274C48.261 3.40717 48.0974 3.49663 48.1024 3.7153C48.1024 3.74512 48.0429 3.79482 48.0032 3.80973C47.8495 3.8644 47.7901 3.97373 47.8148 4.12283C47.8396 4.28186 47.7207 4.37132 47.6513 4.47071C47.5224 4.64466 47.3291 4.77387 47.2547 4.99255C47.225 5.07703 47.1258 5.11182 46.987 5.14164V5.44977C46.9028 5.52929 46.8086 5.6088 46.6896 5.71814V6.071C46.6252 6.071 46.5657 6.08094 46.5112 6.071C46.3426 6.04118 46.3426 6.04118 46.1989 6.10579C46.2584 6.22009 46.3426 6.34931 46.1592 6.4338C46.0601 6.38907 45.9609 6.34434 45.842 6.29464C45.7775 6.35925 45.6982 6.41392 45.6586 6.48846C45.604 6.58289 45.495 6.66738 45.5991 6.81647C45.6834 6.93575 45.5446 7.18921 45.3909 7.26873C45.2521 7.34327 45.1083 7.40291 44.9596 7.47249C44.9596 7.5868 44.9596 7.70607 44.9596 7.82038C44.9547 7.9645 44.8655 8.0142 44.7217 7.94959C44.6721 7.92474 44.6275 7.88002 44.578 7.87008C44.5284 7.86014 44.459 7.87008 44.4193 7.89989C44.3846 7.92971 44.3499 8.0142 44.3698 8.04899C44.4193 8.13845 44.4441 8.22293 44.4094 8.32233C44.3251 8.3273 44.2508 8.35215 44.1665 8.29251C44.0575 8.21299 43.9236 8.18814 43.765 8.23784C43.879 8.37203 43.9881 8.49627 44.0922 8.62549C44.2012 8.76464 44.2062 8.92368 44.1814 9.08768C44.1417 9.12744 44.0971 9.17217 44.0476 9.22187H43.6163C43.5519 9.31133 43.4725 9.40575 43.418 9.51012C43.3238 9.69897 43.2049 9.87789 43.0958 10.0618C43.0215 10.191 42.9273 10.2506 42.7835 10.2407C42.6893 10.2357 42.61 10.2556 42.5753 10.3848C42.6596 10.4494 42.7488 10.524 42.843 10.5985C42.7587 10.6631 42.6943 10.7178 42.6249 10.7675C42.5406 10.8321 42.4663 10.9215 42.3721 10.9514C42.2531 10.9911 42.2234 11.0458 42.2184 11.1601C42.2184 11.2098 42.1837 11.2694 42.1441 11.3042C41.9656 11.4682 41.7773 11.6223 41.6038 11.7913C41.4452 11.9503 41.3064 12.1242 41.1576 12.2883C41.1081 12.3479 41.0585 12.4026 40.9594 12.3876C40.8354 12.3727 40.776 12.4622 40.7016 12.5517C40.5826 12.6958 40.4538 12.8349 40.2555 12.9045C40.1167 12.9492 40.0076 13.0834 39.8986 13.1679C39.8986 13.2822 39.8986 13.3717 39.8986 13.4611C39.8986 13.5257 39.8887 13.5754 39.8341 13.6152C39.8094 13.6301 39.7747 13.6599 39.7796 13.6798C39.8193 13.8885 39.6507 13.978 39.5367 14.0873C39.3632 14.2513 39.2294 14.4601 38.9815 14.5446C38.9022 14.5694 38.8576 14.6141 38.7882 14.5446C38.7634 14.5197 38.699 14.5446 38.6395 14.5446C38.6494 14.5943 38.6445 14.634 38.6643 14.6489C38.7932 14.7632 38.7981 14.7732 38.704 14.8775C38.6296 14.957 38.5106 14.9869 38.471 15.1061C38.4611 15.126 38.4065 15.1409 38.3718 15.1459C38.3223 15.1509 38.2677 15.131 38.2231 15.1509C38.1785 15.1708 38.1289 15.2204 38.1141 15.2652C38.0992 15.3099 38.0843 15.3695 38.1835 15.3894C38.2826 15.4093 38.3074 15.4988 38.2777 15.6131C38.1636 15.6329 38.0447 15.6578 37.9307 15.6826C37.896 15.6926 37.8514 15.7174 37.8414 15.7473C37.7968 15.8665 37.6878 15.8914 37.5837 15.9361V16.3685C37.4598 16.4728 37.2962 16.5375 37.2763 16.7213C37.2714 16.7611 37.2169 16.7959 37.1772 16.8257C37.0136 16.9499 36.8947 17.109 36.7707 17.273C36.6419 17.4469 36.5031 17.6209 36.3841 17.7998C36.3048 17.924 36.2701 18.088 36.166 18.1775C36.052 18.2769 35.933 18.3763 35.819 18.4807C35.7694 18.5304 35.7496 18.585 35.7248 18.6496C35.6653 18.8285 35.5712 19.0124 35.4125 19.1069C35.3084 19.1665 35.2539 19.241 35.2143 19.3255C35.1349 19.5044 34.9961 19.6038 34.8227 19.6684C34.6392 19.733 34.6045 19.7778 34.5996 19.9517C34.5996 19.9915 34.5996 20.0312 34.5996 20.071C34.5996 20.2797 34.5996 20.2748 34.3864 20.3294C34.3071 20.3493 34.2229 20.3841 34.1683 20.4388C34.1138 20.4934 34.1039 20.5928 33.9849 20.568C33.9601 20.568 33.9106 20.6475 33.8957 20.6972C33.8808 20.7419 33.8759 20.8065 33.8957 20.8413C34.0295 21.0749 33.866 21.229 33.747 21.388C33.6528 21.5172 33.5438 21.6464 33.4297 21.7607C33.3455 21.8452 33.2364 21.9098 33.1373 21.9894C33.053 22.054 32.9291 22.1037 32.8994 22.1881C32.8399 22.3671 32.6912 22.4416 32.5821 22.5609C32.359 22.8094 32.136 23.0579 31.9922 23.3561C31.9278 23.4853 31.8485 23.5996 31.7345 23.699C31.8534 23.9127 31.9526 24.1214 32.0815 24.3103C32.1459 24.3997 32.1558 24.4792 32.1707 24.5737C32.1955 24.7575 32.2103 24.9365 32.4235 25.0359C32.5722 25.1054 32.6713 25.2943 32.6912 25.4484C32.7209 25.7416 32.8845 25.9503 33.0431 26.169C33.1224 26.2783 33.1968 26.3777 33.2513 26.502C33.3009 26.6113 33.3752 26.7057 33.519 26.6958C33.6578 26.6858 33.7073 26.7455 33.7172 26.8846C33.7172 26.9641 33.7718 27.0387 33.8065 27.1132C33.8412 27.1977 33.8412 27.2673 33.8065 27.3568C33.747 27.4909 33.7668 27.5257 33.8858 27.5854C34.0097 27.645 34.1634 27.6748 34.1435 27.8687C34.2823 27.983 34.3468 28.1321 34.4013 28.2961C34.441 28.4153 34.4608 28.5446 34.4112 28.634C34.3369 28.7632 34.4112 28.8825 34.3914 29.0266C34.436 29.0018 34.4806 28.9819 34.5203 28.9521C34.6789 28.8427 34.7731 28.8775 34.8425 29.0564C34.8623 29.1061 34.892 29.1608 34.9317 29.1956C35.0804 29.3248 35.1449 29.4888 35.1349 29.6777C35.1349 29.7671 35.1597 29.8417 35.1944 29.9212C35.2291 30.0057 35.2539 30.0951 35.2886 30.2094C35.3927 30.1896 35.5166 30.2393 35.6505 30.1597C35.7546 30.1001 35.9727 30.2591 36.0272 30.3983C36.0619 30.4927 36.1214 30.5822 36.1412 30.6766C36.2007 30.9301 36.4684 30.9798 36.5972 31.1637C36.8253 31.1637 36.8401 31.3326 36.855 31.4966C36.855 31.5066 36.855 31.5215 36.855 31.5264C36.9294 31.6109 36.9194 31.7352 36.9988 31.8296C37.083 31.929 37.1772 32.0433 37.1623 32.2073C37.1574 32.2719 37.2416 32.3564 37.3011 32.4111C37.4003 32.5055 37.4151 32.595 37.3557 32.7192C37.2962 32.8435 37.321 32.8832 37.435 32.9478C37.4647 32.9677 37.4994 33.0025 37.5292 33.0025C37.7522 32.9876 37.7473 33.1367 37.7373 33.3106C37.9257 33.2907 38.0843 33.3255 38.2231 33.4547C38.3173 33.5442 38.2479 33.6436 38.2826 33.7281C38.3619 33.8474 38.4363 33.9666 38.5156 34.0809C38.5404 34.1207 38.5652 34.1605 38.5999 34.1952C38.6742 34.2797 38.7684 34.3443 38.7733 34.4835C38.7733 34.5481 38.8477 34.6077 38.8923 34.6674C38.9221 34.7071 38.9766 34.732 38.9915 34.7767C39.0559 34.9507 39.2046 35.0153 39.3583 35.0302C39.4822 35.0401 39.5169 35.1594 39.6259 35.1842C39.7053 35.2041 39.7945 35.2936 39.7598 35.4178C39.8788 35.5023 39.8688 35.6514 39.9382 35.7607C40.0027 35.8651 40.082 35.9595 40.1514 36.0589C40.201 36.1335 40.2505 36.218 40.2951 36.2975C40.3497 36.3969 40.3943 36.5012 40.4885 36.5758C40.5132 36.5957 40.543 36.6156 40.5479 36.6404C40.6273 36.9088 40.8751 37.0231 41.0585 37.197C41.2221 37.3511 41.2617 37.5548 41.3658 37.7288C41.3857 37.7586 41.4005 37.7884 41.4154 37.8182C41.3906 37.8481 41.3609 37.8779 41.3361 37.9077C41.2105 37.8381 41.1345 37.7404 41.1081 37.6145C40.9098 37.6145 40.89 37.6592 40.8999 37.9972C41.113 38.0518 41.3311 38.1115 41.5443 38.1661C41.5691 38.1711 41.5939 38.191 41.6186 38.196C41.8219 38.2407 41.8268 38.2407 41.8417 38.4395C41.8417 38.5041 41.8814 38.5438 41.9111 38.5935C41.9755 38.7029 42.0003 38.852 42.0896 38.9315C42.1837 39.011 42.2878 39.0806 42.3721 39.175C42.4217 39.2297 42.4762 39.2943 42.496 39.3589C42.5307 39.508 42.6249 39.6124 42.734 39.7068V40.0895C42.61 40.1739 42.4911 40.2535 42.3622 40.3429C42.5605 40.4274 42.6299 40.4324 42.6646 40.3181C42.7042 40.1988 42.7687 40.2187 42.8381 40.2286C42.9818 40.2435 43.0611 40.3827 43.0165 40.5169C42.957 40.7107 42.9868 40.7554 43.19 40.7604C43.304 40.7604 43.4329 40.7306 43.4577 40.8995C43.4279 40.994 43.2544 40.8697 43.2792 41.0288C43.1751 41.0983 43.2792 41.1729 43.309 41.1679C43.4874 41.158 43.5023 41.2872 43.5172 41.4065C43.5271 41.5208 43.5568 41.5754 43.6807 41.6003C43.8344 41.6251 43.9484 41.7245 43.9335 41.9034C43.9286 41.9879 43.9782 42.0625 44.0277 42.0625C44.2508 42.0724 44.3251 42.2762 44.454 42.3905C44.5234 42.4551 44.5532 42.5694 44.6077 42.6489C44.6374 42.6936 44.6721 42.7284 44.6226 42.7732C44.5234 42.8726 44.6275 42.9372 44.6771 42.9521C44.801 42.9819 44.806 43.0564 44.8308 43.1608C44.8555 43.295 44.8803 43.4391 45.0092 43.5336C45.0687 43.5783 45.1381 43.623 45.1282 43.7224C45.1282 43.7572 45.1678 43.8268 45.2025 43.8367C45.3711 43.8665 45.3661 44.0256 45.4553 44.1498C45.4752 44.1498 45.5198 44.1498 45.5693 44.1498C45.6635 44.1498 45.7131 44.2045 45.7181 44.289C45.728 44.3884 45.7181 44.4878 45.7181 44.607C45.9461 44.7859 46.2385 44.9201 46.4269 45.2084V45.6507C46.5161 45.7302 46.6053 45.8097 46.6797 45.8793C46.65 46.0433 46.7094 46.1477 46.7788 46.252C46.8631 46.3862 46.9474 46.5204 47.0069 46.6645C47.0416 46.7391 47.0316 46.8335 47.0416 46.9279C47.1209 46.9975 47.1903 46.918 47.2944 46.8782C47.3291 46.9329 47.3638 47.0025 47.4034 47.0721C47.4183 47.0621 47.4282 47.0472 47.4431 47.0373C47.4431 47.1367 47.4381 47.2361 47.4431 47.3355C47.453 47.4995 47.5323 47.584 47.7008 47.6088C47.8049 47.6237 47.8694 47.6635 47.8545 47.7728C47.8396 47.8672 47.8892 47.9219 47.9487 47.9716C48.0677 48.071 48.1618 48.1903 48.2015 48.3443C48.2213 48.4239 48.256 48.4686 48.3353 48.5083C48.4444 48.563 48.5286 48.6525 48.5832 48.7767C48.6327 48.896 48.7666 48.9854 48.7963 49.1047C48.8261 49.224 48.7666 49.3632 48.7468 49.4924C48.7468 49.5123 48.7468 49.5321 48.7468 49.5619C48.836 49.5272 48.9252 49.4725 49.0144 49.5769C49.1235 49.7061 49.2821 49.8005 49.3069 49.9943C49.3069 50.0291 49.3317 50.0639 49.3366 50.1037C49.3366 50.1434 49.3366 50.1782 49.3366 50.2031C49.2672 50.2925 49.1185 50.1534 49.0937 50.3174C49.2623 50.372 49.2871 50.377 49.4754 50.3571C49.6093 50.3422 49.7233 50.4217 49.753 50.5559C49.7778 50.6752 49.7927 50.7994 49.8125 50.9187C49.8175 50.9535 49.8373 50.9883 49.8472 51.0231C49.9463 51.2467 50.0256 51.3461 50.219 51.5201C50.2735 51.5698 50.2983 51.6493 50.3479 51.7039C50.3974 51.7536 50.4718 51.7884 50.5313 51.8332C50.556 51.853 50.5808 51.8978 50.5808 51.9276C50.5759 52.0518 50.6254 52.0966 50.7345 52.1612C51.0468 52.3401 51.0468 52.3749 51.1806 52.7426C51.2203 52.852 51.2599 52.9712 51.4037 53.006C51.4632 53.0209 51.5177 53.0657 51.5574 53.1402C51.6069 53.2247 51.5574 53.2545 51.5375 53.3142C51.5078 53.4434 51.5375 53.5776 51.6168 53.6919C51.6614 53.6919 51.711 53.6968 51.7953 53.7018C51.7408 53.7565 51.7061 53.8112 51.6763 53.8112C51.5326 53.7913 51.4334 53.8609 51.3492 53.9801C51.4037 54.1243 51.4731 54.2684 51.6416 54.3181V54.6461H51.4483C51.3987 54.5815 51.3591 54.5218 51.3244 54.4721C51.2104 54.4721 51.1311 54.6014 51.1261 54.7654C51.1905 54.7654 51.2599 54.7703 51.3244 54.7753C51.4086 54.8896 51.3987 55.0238 51.4136 55.158C51.4285 55.2922 51.3442 55.3766 51.2599 55.4164C51.2005 55.4462 51.1211 55.4611 51.0517 55.486C50.9873 55.5108 50.9278 55.476 50.903 55.4214C50.8832 55.3766 50.8733 55.2971 50.8981 55.2673C50.9476 55.1977 51.022 55.1431 50.9873 55.0337C50.9129 54.984 50.8584 55.0188 50.7841 55.0635C50.6056 55.1729 50.5412 55.2325 50.4569 55.4313C50.4371 55.476 50.3925 55.5407 50.3726 55.5407C50.1793 55.5158 50.1694 55.6748 50.105 55.7842C50.0802 55.8239 50.0554 55.8637 50.0306 55.9034C49.867 55.9184 49.6935 55.8687 49.5647 56.0028C49.5547 56.0128 49.53 56.0227 49.5151 56.0227C49.2672 56.0227 49.0194 56.0227 48.7715 56.0227C48.6674 55.9034 48.5286 55.9929 48.4196 55.9581C48.3353 56.0426 48.256 56.1221 48.1767 56.2016C48.0528 56.2016 47.9189 56.2215 47.795 56.1967C47.6463 56.1669 47.6166 56.4054 47.453 56.306C47.4332 56.2563 47.5422 56.2016 47.453 56.1271C47.3489 56.0426 47.2795 56.1022 47.1754 56.1569C47.1258 56.0873 47.0118 56.0575 47.0168 55.9432C47.0168 55.8289 46.9176 55.8041 46.873 55.7345C46.7194 55.7345 46.5558 55.6848 46.4467 55.8488H46.1344C46.0254 55.978 45.9163 56.1072 45.7875 56.2613C45.6387 56.2961 45.4504 56.2265 45.2769 56.3209C45.2025 56.3607 45.143 56.2861 45.1083 56.2066C45.0538 56.0923 45.0439 56.0973 44.8754 56.1072V56.4302C44.7019 56.4899 44.5879 56.4402 44.5482 56.2563C44.4342 56.311 44.3351 56.3557 44.221 56.4104C44.1467 56.3408 44.0823 56.2712 44.0079 56.2066C43.8294 56.0476 43.7154 56.0426 43.5419 56.2066C43.4626 56.2861 43.3784 56.2662 43.2991 56.2662C43.195 56.2662 43.1652 56.1967 43.1454 56.0973C43.1206 55.973 43.0165 55.9283 42.7984 55.9283V56.2414C42.6546 56.3159 42.4613 56.3309 42.4861 56.5545C42.3671 56.5893 42.273 56.5694 42.2631 56.4452C42.2531 56.3159 42.1788 56.2513 42.0747 56.2165C41.9508 56.1669 41.8764 56.2662 41.8021 56.3408C41.7822 56.3607 41.7574 56.3756 41.7426 56.3955C41.5592 56.3656 41.6236 56.2215 41.5988 56.1072C41.2964 56.0426 41.0387 56.2861 40.7512 56.2066C40.6719 56.301 40.6223 56.4104 40.538 56.4402C40.4736 56.465 40.3744 56.3756 40.2852 56.3507C40.201 56.3309 40.1117 56.3309 40.0374 56.3209C39.9878 56.2613 39.9432 56.1569 39.8986 56.1569C39.6805 56.1569 39.7053 56.0128 39.7053 55.8736C39.7053 55.8538 39.7053 55.8339 39.7053 55.814C39.6061 55.7643 39.507 55.7196 39.3979 55.6649C39.2988 55.7295 39.2641 55.8289 39.2294 55.9432C39.2145 55.9929 39.1699 56.0824 39.1451 56.0774C38.9865 56.0625 38.932 56.2016 38.8328 56.2712C38.7882 56.301 38.7238 56.3309 38.6792 56.3209C38.6197 56.306 38.5652 56.2563 38.5751 56.1668C38.585 56.0575 38.5899 55.9482 38.5751 55.8388C38.5602 55.7494 38.5156 55.6649 38.4611 55.5903C38.4363 55.5556 38.3619 55.5556 38.2925 55.5357V55.978C38.1471 56.1271 37.9902 56.1221 37.8216 55.9631C37.7026 55.9879 37.5837 55.9382 37.4598 56.0178C37.3755 56.0724 37.2763 55.978 37.2069 55.9283C37.0434 55.809 36.8947 55.7096 36.6914 55.8438C36.6666 55.8587 36.6022 55.8587 36.5774 55.8388C36.4039 55.6848 36.1957 55.7394 35.9727 55.7295C35.9281 55.6748 35.8735 55.6053 35.8289 55.5506H35.5612C35.4472 55.3866 35.353 55.2226 35.358 55.0089C35.358 54.7405 35.2539 54.5119 34.9961 54.3479C34.9317 54.4075 34.8623 54.4721 34.7929 54.5367C34.6888 54.5467 34.6045 54.5367 34.5252 54.4523C34.4658 54.3877 34.3716 54.3479 34.2923 54.2982C34.1435 54.2137 34.1138 54.1541 34.2328 54.0398C34.3815 53.8907 34.2427 53.7664 34.2229 53.6422C34.208 53.5478 34.1237 53.4484 33.9899 53.4682C33.9056 53.4831 33.861 53.4334 33.8164 53.3788C33.7619 53.3042 33.7123 53.2197 33.6379 53.1005V52.8023C33.5438 52.7228 33.4347 52.678 33.4099 52.5985C33.3752 52.5041 33.3058 52.4594 33.2513 52.3948C33.2017 52.3401 33.1571 52.2804 33.0728 52.2556C33.0332 52.2457 33.0233 52.1264 32.9985 52.0469C33.0976 51.9872 33.1323 51.8829 33.1026 51.7686C32.9787 51.7139 32.8597 51.6642 32.7358 51.6045C32.8002 51.3411 32.6565 51.1523 32.5821 50.9436C32.5672 50.8988 32.5821 50.8143 32.483 50.8392C32.3343 50.6901 32.1558 50.5659 32.0914 50.3522C32.1558 50.2478 32.2351 50.1633 32.3739 50.1832C32.4284 50.0192 32.3243 49.9546 32.2103 49.89C32.1162 49.8353 32.017 49.7806 31.903 49.711C31.8485 49.7955 31.675 49.716 31.6452 49.9049C31.6105 49.8254 31.5659 49.7607 31.556 49.6961C31.5461 49.6067 31.5164 49.552 31.4271 49.5321C31.4023 49.5272 31.3924 49.4775 31.3776 49.4476C31.3627 49.4178 31.3528 49.3632 31.3329 49.3582C31.1942 49.3333 31.2487 49.2489 31.2834 49.1842C31.3082 49.1345 31.3627 49.0998 31.4073 49.055C31.4866 49.055 31.5659 49.055 31.6452 49.055C31.7295 48.9705 31.8138 48.8861 31.898 48.8016C31.9674 48.5879 31.8782 48.4586 31.6502 48.394C31.5312 48.5133 31.4023 48.6326 31.2834 48.7618C31.209 48.8413 31.1198 48.8314 31.0405 48.8016C30.9562 48.7717 30.9463 48.6873 30.9661 48.5829C31.0355 48.5829 31.1099 48.5779 31.1793 48.573C31.2536 48.3443 31.1198 48.2698 30.9513 48.2201C30.8273 48.2201 30.867 48.4885 30.6538 48.3742C30.6737 48.2847 30.6985 48.1903 30.7232 48.0859C30.6191 48.0213 30.4804 47.9766 30.4308 47.8871C30.3713 47.7678 30.2573 47.7082 30.173 47.5641C30.1482 47.5094 30.1879 47.405 30.1383 47.2957C30.0888 47.1864 30.0888 47.077 29.9301 47.082C29.8954 47.082 29.8558 47.0273 29.8211 46.9925C29.6674 46.8484 29.5931 46.6496 29.4939 46.4707C29.4443 46.3912 29.479 46.262 29.4691 46.1527C29.4691 46.088 29.4642 46.0185 29.4394 45.9539C29.4096 45.8743 29.3303 45.8942 29.2609 45.8843C29.2262 45.8843 29.2015 45.8396 29.1668 45.8296C29.1321 45.8197 29.0974 45.8296 29.0676 45.8296C29.023 45.7103 29.1816 45.6507 29.0974 45.5414C29.0032 45.4221 28.9586 45.2631 28.8049 45.1935C28.7305 45.1587 28.6562 45.1289 28.567 45.0891C28.5918 45.0046 28.6066 44.9152 28.6512 44.8506C28.6909 44.7959 28.7058 44.7512 28.7058 44.6915C28.7058 44.5872 28.6562 44.5325 28.5521 44.5225C28.5124 44.5225 28.4728 44.5225 28.4331 44.5225C28.3042 44.5076 28.2547 44.4182 28.3042 44.2989C28.334 44.2293 28.3736 44.1697 28.4083 44.1101C28.3439 44.0156 28.2894 43.9311 28.215 43.8218C28.2894 43.787 28.3637 43.7572 28.453 43.7224V43.4888C28.3687 43.3745 28.2795 43.2652 28.1902 43.1459C28.1605 43.1608 28.1357 43.1708 28.1109 43.1807C27.8284 43.3298 27.8234 43.3298 27.6202 43.0515C27.5805 42.9968 27.526 42.9521 27.4715 42.9024C27.4169 42.8527 27.3823 42.803 27.3922 42.7235C27.4021 42.6638 27.3922 42.634 27.3129 42.5992C27.2435 42.5694 27.1691 42.4551 27.1641 42.3756C27.1641 42.2513 27.1195 42.1718 27.0353 42.0973C26.9956 42.0625 26.9659 42.0078 26.951 41.9531C26.9113 41.814 26.8618 41.6848 26.6883 41.6599V41.3866C26.7725 41.3021 26.8667 41.2126 26.9659 41.1132C27.065 41.158 27.179 41.2574 27.2732 41.0635C27.1741 41.0238 27.0749 40.9542 26.9708 40.9492C26.8122 40.9393 26.7131 40.8896 26.6734 40.7355C26.6635 40.7008 26.6189 40.6809 26.5891 40.6461H26.262C26.1579 40.5765 26.0687 40.5218 25.9844 40.4572C25.9497 40.4274 25.9199 40.3877 25.9001 40.3429C25.8307 40.1839 25.7365 40.0497 25.568 39.9752C25.4689 39.9304 25.4639 39.8459 25.5085 39.6968C25.5581 39.5378 25.5283 39.4434 25.3747 39.3738C25.1764 39.2843 25.1268 39.0657 24.9633 38.9464C24.9434 38.9315 24.9633 38.8569 24.9633 38.8122C24.9633 38.7973 24.988 38.7824 25.0029 38.7675C25.0921 38.6681 25.226 38.5985 25.1417 38.4146C25.0574 38.2307 25.0723 38.2258 24.9533 38.1115C24.9286 38.0866 24.9038 38.0518 24.8889 38.017C24.8096 37.8431 24.7204 37.6692 24.6559 37.4902C24.6212 37.4058 24.5717 37.3859 24.4923 37.3561C24.2941 37.2914 24.0958 37.3064 23.9074 37.3014C23.7885 37.1921 23.7389 37.0678 23.7587 36.9287C23.7835 36.7249 23.6546 36.5758 23.5951 36.3969C23.5356 36.213 23.4316 36.0689 23.2481 35.9744C23.1242 35.9148 23.0053 35.8104 22.9309 35.6961C22.8268 35.5421 22.6484 35.4377 22.6186 35.2339C22.6137 35.1892 22.5591 35.1296 22.574 35.1097C22.7078 34.9308 22.5195 34.8413 22.46 34.727C22.4005 34.6077 22.2419 34.563 22.2072 34.4139C22.2072 34.394 22.0733 34.3742 22.0585 34.399C21.9494 34.5382 21.7561 34.6077 21.7264 34.8264C21.7164 34.9258 21.6272 35.0401 21.4983 35.0998C21.3695 35.1594 21.2951 35.2687 21.2455 35.4228C21.1761 35.6415 21.0324 35.8303 20.7945 35.9347C20.6755 35.9894 20.5714 36.1136 20.497 36.2279C20.4375 36.3124 20.388 36.3472 20.2938 36.3472C20.1847 36.3472 20.1352 36.3969 20.1352 36.5112C20.1352 36.6305 20.1352 36.7497 20.1352 36.869C20.1352 36.9485 20.0806 37.0131 20.0112 36.9982C19.8526 36.9734 19.7882 37.0927 19.689 37.1821C19.6643 37.1821 19.6395 37.1821 19.6097 37.1821C19.5354 37.1871 19.4561 37.1573 19.3966 37.2368C19.3371 37.3163 19.3668 37.371 19.4164 37.4455C19.466 37.5201 19.4263 37.6195 19.347 37.6393C19.1388 37.699 19.1289 37.8878 19.0793 38.032C19.0397 38.1413 18.9901 38.2158 18.8959 38.2804C18.8315 38.3301 18.8018 38.4246 18.7423 38.4792C18.6828 38.5339 18.5985 38.5687 18.5341 38.6134V38.9961C18.3705 39.1402 18.2416 39.3291 18.0384 39.4334C18.0037 39.4484 17.9789 39.498 17.9492 39.498C17.7509 39.5179 17.7112 39.6372 17.6963 39.8161C17.6864 39.9503 17.6369 40.0944 17.4882 40.1739C17.4039 40.2187 17.3444 40.3081 17.2651 40.3926H16.9082C16.9082 40.3926 16.8685 40.4324 16.8537 40.4473C16.7496 40.5765 16.7496 40.7604 16.6058 40.8846C16.4918 40.984 16.4224 41.1431 16.3332 41.2723C16.3034 41.317 16.2787 41.3717 16.239 41.4114C16.1795 41.4711 16.1448 41.5257 16.1498 41.6152C16.1498 41.7494 16.0606 41.8637 15.9515 41.8736C15.6243 41.9034 15.5302 42.1668 15.3914 42.3806C15.322 42.4849 15.2327 42.5744 15.1733 42.6787C15.1088 42.793 15.0394 42.8825 14.9205 42.9272C14.8957 42.9372 14.861 42.967 14.861 42.9869C14.8511 43.2205 14.628 43.3695 14.6131 43.6031C14.6131 43.6429 14.5735 43.6876 14.5437 43.7224C14.4644 43.8119 14.3752 43.8914 14.3405 43.9311C14.1125 44.0902 14.0381 43.8019 13.8448 43.8765C13.8448 43.9212 13.8349 43.9808 13.8448 44.0355C13.8944 44.2939 13.8448 44.4778 13.6713 44.6617C13.5821 44.7561 13.4879 44.8456 13.3987 44.935C13.364 44.9698 13.3293 45.0046 13.3094 45.0444C13.2004 45.273 13.2053 45.273 12.9625 45.1736C12.9525 45.1736 12.9426 45.1736 12.9327 45.1736C12.6799 45.3475 12.6551 45.7252 12.3081 45.8495C12.3577 46.0185 12.1793 46.1477 12.1743 46.3316C12.1743 46.3813 12.0851 46.4707 12.0355 46.4707C11.8868 46.4707 11.8471 46.5602 11.7877 46.6645C11.743 46.7391 11.6637 46.7938 11.5943 46.8633V47.2013C11.5101 47.2957 11.2573 47.4846 11.173 47.5293C11.1234 47.5541 11.0689 47.579 11.0292 47.6138C10.8508 47.7778 10.707 47.9666 10.5732 48.1654C10.4988 48.2748 10.4294 48.3692 10.4592 48.5083C10.4691 48.568 10.4542 48.6177 10.3997 48.6624C10.3154 48.732 10.2361 48.8711 10.2213 48.9705C10.1915 49.1743 10.1172 49.3184 9.88418 49.3632C9.71068 49.3979 9.5471 49.4924 9.48762 49.7011C9.45292 49.7011 9.41822 49.7011 9.37857 49.7011C9.26456 49.6961 9.1902 49.716 9.14063 49.8502C9.08611 49.9894 8.96218 50.0987 8.85313 50.2329C8.88783 50.4068 8.82835 50.541 8.62511 50.6156C8.54084 50.6454 8.46153 50.715 8.39709 50.7845C8.28804 50.9088 8.18394 50.9436 8.03523 50.7746C8.02532 50.874 8.02036 50.9187 8.02036 50.9684C8.02036 51.2119 7.94601 51.3014 7.70311 51.371C7.53954 51.4207 7.48501 51.4803 7.48501 51.6493C7.48501 51.7487 7.48501 51.8481 7.54449 51.6493C7.60398 51.3113 7.59902 51.2517 7.60398 51.197C7.61885 51.1175 7.57919 51.0479 7.51971 51.028C7.45527 51.0082 7.371 51.028 7.3016 51.0529C7.24707 51.0728 7.20742 51.1175 7.16281 51.1523C7.20742 51.2467 7.24212 51.3113 7.27186 51.3759C7.38587 51.3759 7.48997 51.3759 7.53954 51.6542L7.55441 51.6344ZM35.6108 53.0856C35.5315 53.0856 35.4423 53.1005 35.358 53.0856C35.2886 53.0706 35.2242 53.021 35.1597 52.9862C35.0755 53.1502 35.2886 53.185 35.2836 53.3092H35.5414C35.5662 53.2297 35.586 53.17 35.6207 53.0856C35.6703 53.0756 35.7446 53.1154 35.7397 53.016C35.7397 52.9961 35.7099 52.9663 35.6901 52.9663C35.591 52.9563 35.6306 53.0359 35.6158 53.0856H35.6108ZM43.3338 48.2748C43.2842 48.23 43.2148 48.1406 43.1305 48.0859C42.9372 47.9666 42.7835 47.8225 42.7191 47.5989C42.6993 47.5293 42.6745 47.4547 42.6348 47.4001C42.6051 47.3603 42.5406 47.3156 42.496 47.3156C42.2779 47.3255 42.2234 47.1566 42.1738 47.0124C42.1441 46.9279 42.1342 46.8733 42.0449 46.8335C41.921 46.7788 41.8169 46.585 41.8764 46.4807C41.9855 46.3017 41.8863 46.2173 41.7773 46.1179C41.7475 46.093 41.7128 46.0682 41.693 46.0334C41.6038 45.8545 41.3658 45.7402 41.4551 45.5066C41.346 45.3873 41.232 45.2978 41.1626 45.1835C41.0486 44.9996 40.89 44.8655 40.7066 44.7561C40.657 44.7263 40.5678 44.6965 40.5727 44.6716C40.5876 44.4778 40.3893 44.4331 40.3199 44.284C40.3397 44.1647 40.3348 44.0454 40.2109 43.956C40.1762 43.9311 40.1514 43.8765 40.1514 43.8367C40.1563 43.6578 40.0622 43.5634 39.9085 43.5137C39.8242 43.4839 39.7747 43.4342 39.7895 43.3397C39.8094 43.2254 39.7697 43.1012 39.7003 43.0564C39.621 43.0018 39.5615 42.9272 39.4772 42.8775C39.1798 42.7135 39.0658 42.4452 39.0757 42.1271C39.0757 41.9929 39.0212 41.8935 38.932 41.8637C38.7139 41.7891 38.6742 41.5953 38.6048 41.4313C38.5652 41.3369 38.5255 41.2574 38.4511 41.1977C38.3917 41.148 38.3074 41.1331 38.233 41.0983V40.7753C37.9703 40.7753 37.9753 40.497 37.8266 40.3777C38.0001 40.1789 37.9951 40.159 37.7572 40.0497C37.7126 40.0298 37.6828 39.9702 37.6481 39.9304C37.6085 39.8907 37.5787 39.8459 37.5341 39.8161C37.3953 39.7167 37.3755 39.6621 37.4449 39.513C37.4895 39.4235 37.549 39.339 37.5985 39.2545L37.5143 39.17C37.3557 39.2694 37.202 39.3688 37.0384 39.4782C36.9591 39.3837 36.8649 39.3142 36.8302 39.2197C36.8054 39.1551 36.8649 39.0607 36.8798 38.9812C36.8847 38.9514 36.8798 38.9216 36.8798 38.8917C36.7559 38.7675 36.6468 38.6134 36.4981 38.524C36.3197 38.4146 36.1957 38.2705 36.1065 38.0916C36.0718 38.027 36.0222 37.9475 35.9578 37.9176C35.8041 37.8431 35.7149 37.7189 35.6207 37.5847C35.5265 37.4505 35.4373 37.3113 35.2787 37.2169C35.0556 37.0827 34.902 36.864 34.9119 36.5708C34.9119 36.5112 34.8474 36.4466 34.8078 36.377C34.8623 36.3671 34.9168 36.3621 34.9664 36.3522C34.9218 36.2776 34.8821 36.2031 34.8375 36.1384C34.7979 36.0838 34.7632 36.054 34.669 36.0987C34.4757 36.1832 34.4112 36.1384 34.3864 35.9297C34.3765 35.8403 34.3319 35.8055 34.2526 35.7657C34.1237 35.7011 34.1237 35.6763 34.1683 35.5371C34.1832 35.4824 34.203 35.4278 34.203 35.3731C34.203 35.224 34.1832 35.1892 34.0246 35.1793C33.8957 35.1693 33.8412 35.0948 33.7916 34.9954C33.7619 34.9407 33.7519 34.8612 33.7024 34.8264C33.5785 34.732 33.5438 34.6028 33.5338 34.4586C33.3256 34.5481 33.3058 34.5431 33.2513 34.3642C33.1274 33.9617 32.9192 33.6784 32.6812 33.6088C32.6465 33.4547 32.6168 33.3056 32.5771 33.1615C32.5325 32.9826 32.3144 33.0075 32.2351 32.8683C32.3293 32.6397 32.3293 32.595 32.1261 32.4956C32.0071 32.4409 31.9575 32.257 31.789 32.3067C31.789 32.3067 31.7741 32.257 31.7592 32.2322C31.6601 32.0036 31.6254 31.7252 31.3131 31.6507C31.2536 31.6358 31.214 31.5563 31.1545 31.4966V31.1189C30.8472 31.109 30.8571 30.8207 30.7282 30.6567C30.6439 30.5474 30.7133 30.4281 30.6786 30.3088C30.5547 30.1846 30.3911 30.0703 30.2969 29.9113C30.2325 29.7969 30.1383 29.7622 30.0541 29.6926C30.0144 29.6578 29.9153 29.623 29.9202 29.6081C29.9549 29.4391 29.831 29.3646 29.7517 29.2552C29.717 29.2105 29.7319 29.1211 29.7467 29.0614C29.7616 29.0018 29.8112 28.9471 29.8508 28.8825C29.7021 28.798 29.6525 28.6439 29.6228 28.4899C29.603 28.3756 29.5286 28.3259 29.4543 28.2712C29.4344 28.2563 29.3799 28.301 29.3403 28.3159C29.2659 28.2414 29.1668 28.1818 29.2015 28.0426C29.2064 28.0178 29.1767 27.9681 29.1519 27.9482C29.0428 27.8637 29.0032 27.7345 28.9437 27.6152C28.8495 27.4363 28.8198 27.2176 28.5918 27.1381C28.5719 27.1331 28.567 27.0884 28.5521 27.0685C28.5124 27.0138 28.4777 26.9492 28.4232 26.9144C28.2547 26.8151 28.1902 26.666 28.1902 26.4821C28.0019 26.4771 27.8928 26.3678 27.8432 26.2137C27.7788 26.005 27.7392 25.7813 27.6004 25.5974C27.6103 25.349 27.4269 25.2694 27.2435 25.1949C27.2435 25.18 27.2435 25.17 27.2435 25.1601C27.2435 24.8172 27.2187 24.7526 26.956 24.4196C26.9163 24.3699 26.9113 24.3003 26.8866 24.2407C26.8717 24.2059 26.8667 24.1612 26.8469 24.1413C26.6585 23.9624 26.485 23.7785 26.4008 23.5201C26.3809 23.4505 26.2917 23.4058 26.2322 23.3461C26.2471 23.1821 26.2372 22.9982 26.0835 22.9187C25.9794 22.864 25.9844 22.7746 25.9348 22.71C25.8704 22.6255 25.8555 22.541 25.8902 22.4366C25.9794 22.4217 26.0835 22.4267 26.1182 22.2925C26.0687 22.2478 26.0538 22.1335 25.9299 22.2229C25.8059 22.3074 25.6919 22.2229 25.5928 22.1633C25.4986 22.1086 25.4391 22.0241 25.459 21.89C25.4788 21.7756 25.459 21.6564 25.459 21.547C25.3251 21.5023 25.2161 21.4775 25.2012 21.3184C25.2012 21.2687 25.112 21.1693 25.0029 21.1743C24.9633 21.1743 24.9087 21.1395 24.8839 21.1047C24.8294 21.0103 24.8145 20.8711 24.7104 20.8264C24.5617 20.7519 24.6658 20.6077 24.5915 20.5133C24.5617 20.4785 24.5617 20.404 24.5667 20.3493C24.5717 20.2599 24.537 20.2002 24.4576 20.1704C24.3288 20.1207 24.2544 20.0362 24.2643 19.8821C24.2643 19.8474 24.2247 19.7977 24.19 19.7678C24.1206 19.6933 24.0413 19.6187 23.957 19.5392C24.0462 19.4547 24.1255 19.3852 24.1999 19.3106C24.1503 19.2559 24.0958 19.1615 24.0512 19.1665C23.9124 19.1764 23.8628 19.077 23.7835 19.0075C23.7538 18.9826 23.7339 18.9329 23.6992 18.9279C23.4464 18.8584 23.3175 18.6397 23.1391 18.4856C23.0647 18.421 23.0548 18.3564 23.0994 18.257C23.1688 18.1179 23.1094 18.0383 22.9606 18.0284C22.9012 18.0284 22.8466 18.0284 22.7673 18.0284C22.8218 17.8147 22.6831 17.7153 22.5542 17.6109C22.5244 17.5911 22.4897 17.5712 22.455 17.5612C22.2915 17.5314 22.2468 17.3923 22.2419 17.268C22.2369 17.0891 22.1576 16.9599 22.0386 16.8406C21.8899 16.6915 21.8949 16.6716 22.0882 16.5325C22.0981 16.5225 22.1031 16.5076 22.113 16.4778C22.0585 16.4579 22.0089 16.4281 21.9544 16.4182C21.8552 16.3933 21.7462 16.3884 21.652 16.3536C21.533 16.3088 21.4091 16.2542 21.3149 16.1697C21.2604 16.125 21.2654 16.0107 21.2207 15.946C21.1761 15.8814 21.0572 15.8417 21.0572 15.782C21.0473 15.6429 20.9729 15.5286 20.9134 15.4242C20.8291 15.2801 20.9134 15.136 20.8539 14.9918C20.7548 14.972 20.6755 14.9272 20.6904 14.803C20.7102 14.6589 20.6358 14.5495 20.5466 14.4452C20.5169 14.4452 20.4871 14.4452 20.4574 14.4452C20.2888 14.4551 20.1451 14.4452 20.1401 14.2215C20.1401 14.1818 20.1104 14.1221 20.0757 14.1022C19.9617 14.0277 19.9766 13.9233 19.9766 13.814C19.9766 13.7693 19.9766 13.7196 19.9766 13.6649C19.7882 13.6997 19.7039 13.5903 19.6246 13.4711C19.5899 13.4164 19.5552 13.3568 19.5205 13.3071C19.4511 13.2077 19.3768 13.1132 19.2776 12.984C19.3272 12.9542 19.3668 12.9343 19.3966 12.9095C19.4214 12.8846 19.4362 12.8498 19.4511 12.82C19 12.3578 18.9306 12.2286 19.0149 12.0249C18.9653 11.9404 18.8612 11.9105 18.8414 11.7962C18.8315 11.7416 18.7621 11.6819 18.6778 11.7068C18.5836 11.7316 18.5341 11.667 18.4845 11.6074C18.4498 11.5676 18.4349 11.4881 18.3953 11.4732C18.192 11.4036 18.1573 11.185 18.0186 11.0557C17.9244 10.9663 17.8302 10.852 17.8004 10.7327C17.7459 10.5389 17.6517 10.3749 17.5675 10.2009C17.4683 9.99716 17.3246 9.84807 17.1412 9.73873C17.0371 9.67412 16.9528 9.62442 16.9429 9.48527C16.9429 9.42066 16.8785 9.37593 16.7942 9.37593C16.705 9.37593 16.6603 9.32127 16.6504 9.23181C16.6306 9.05289 16.5166 8.90877 16.3728 8.8541C16.244 8.8044 16.2192 8.70501 16.1845 8.62549C16.125 8.50124 16.125 8.35215 16.0903 8.14342C16.0705 8.12851 16.006 8.06887 15.9416 8.00923C15.9664 7.94462 15.9912 7.87505 16.011 7.81541C15.9366 7.76074 15.8722 7.72098 15.8127 7.67128C15.7433 7.61164 15.6937 7.50728 15.6194 7.49237C15.4905 7.46255 15.4558 7.36315 15.4211 7.2737C15.3418 7.09478 15.203 6.99539 15.0295 6.93078C14.9849 6.91587 14.9403 6.90096 14.9056 6.87611C14.7618 6.7618 14.6528 6.61271 14.5735 6.44871C14.4942 6.27476 14.3851 6.15052 14.2017 6.10082C14.1026 6.18033 13.972 6.21512 13.8101 6.20518C13.7258 6.10579 13.6168 6.03621 13.6069 5.86724C13.5969 5.67838 13.4036 5.63365 13.2698 5.76784C13.2202 5.81257 13.1855 5.87221 13.1409 5.9219C13.126 5.94178 13.1112 5.98154 13.0963 5.98154C12.9426 5.98154 12.8385 6.08094 12.7196 6.19524C12.5956 6.03621 12.4469 5.96166 12.2635 5.98651C12.1644 5.88711 11.976 5.89705 11.9463 5.69826C11.9314 5.59887 11.8967 5.47462 11.743 5.43983C11.6935 5.51935 11.6489 5.5939 11.5943 5.67341C11.5745 5.70323 11.5448 5.73305 11.5101 5.77778C11.4407 5.65353 11.5398 5.47462 11.3267 5.44977C11.2672 5.52929 11.2027 5.61874 11.1383 5.7082C11.054 5.6585 10.9846 5.62868 10.9301 5.58396C10.8657 5.53426 10.8062 5.47959 10.7616 5.41498C10.7219 5.35534 10.7021 5.2808 10.6723 5.21122C10.5881 5.19631 10.5286 5.22613 10.4691 5.29074C10.4294 5.34043 10.3848 5.38516 10.3006 5.39013C10.1122 5.41001 10.1122 5.41995 10.1072 5.59887C10.1072 5.64359 10.1072 5.69329 10.1072 5.73802C9.98332 5.73802 9.86435 5.77778 9.82469 5.6585C9.78008 5.52432 9.66607 5.47462 9.60163 5.38019C9.3637 5.38516 9.13072 5.33546 8.96218 5.5442C8.95227 5.55414 8.92748 5.56408 8.91261 5.55911C8.74903 5.53426 8.63998 5.66347 8.46153 5.71317C8.58545 5.77281 8.71929 5.79269 8.75895 5.86227C8.86304 6.04615 9.03158 6.14555 9.17038 6.27973C9.31413 6.41889 9.3984 6.62762 9.55702 6.76677C9.54711 6.95066 9.7206 7.02024 9.81974 7.15939V7.63649C9.94366 7.64643 10.0527 7.65637 10.1618 7.59177C10.2163 7.76074 10.3353 7.86014 10.484 7.93468C10.5236 7.95456 10.5633 7.97941 10.6079 7.99929C10.8359 8.09372 10.945 8.26766 10.9351 8.51615C10.9351 8.59567 10.9351 8.67519 10.9351 8.72986C11.0788 8.89883 11.1928 9.07277 11.3415 9.20696C11.5646 9.41072 11.7183 9.62442 11.634 9.95243C11.8025 9.95243 11.8323 10.0816 11.8769 10.1761C11.9463 10.3202 12.0256 10.4494 12.1793 10.5041C12.3726 10.5737 12.4271 10.6283 12.3329 10.7824C12.2586 10.9017 12.3924 10.9365 12.3577 11.016C12.5312 11.1601 12.6551 11.349 12.8534 11.4682C13.126 11.6322 13.3541 11.8509 13.3045 12.2087C13.4482 12.3379 13.5424 12.502 13.7655 12.497C13.8299 12.497 13.9439 12.5864 13.9489 12.6411C13.9588 12.7405 14.0133 12.82 14.0133 12.9144C14.0133 13.0635 14.0877 13.1331 14.2166 13.1928C14.3157 13.2425 14.4049 13.317 14.4991 13.3816V13.7096C14.6825 13.8339 14.7569 14.0426 14.9452 14.1569C15.0741 14.2315 15.0592 14.3358 14.9651 14.4799C14.9304 14.5296 14.9205 14.5943 14.8957 14.6489C15.0543 14.7235 15.2278 14.7583 15.2575 14.9223C15.2774 15.0266 15.3319 15.1061 15.3963 15.126C15.5698 15.1857 15.6293 15.3248 15.659 15.464C15.6937 15.628 15.8623 15.7522 15.8028 15.9411C15.8722 16.0107 15.8722 16.12 15.9912 16.1747C16.1547 16.2492 16.2787 16.3983 16.3134 16.5921C16.3332 16.6865 16.3381 16.7859 16.3332 16.8804C16.3332 16.9599 16.358 17.0344 16.4224 17.0493C16.5612 17.0891 16.5612 17.2432 16.6703 17.3028C16.7892 17.3724 16.8388 17.4867 16.819 17.6258C16.819 17.6308 16.8289 17.6408 16.8388 17.6457C16.9578 17.7153 16.9429 17.8296 16.933 17.934C16.9131 18.1228 17.047 18.2272 17.1362 18.3564C17.2106 18.4707 17.3295 18.4111 17.4336 18.426C17.4435 18.426 17.4485 18.4359 17.4535 18.4409C17.4981 18.595 17.5328 18.749 17.5923 18.8932C17.6517 19.0373 17.7558 19.1615 17.9145 19.1963C18.0384 19.2261 18.0731 19.2907 18.0632 19.4001C18.0532 19.6138 18.078 19.8175 18.2466 19.9567C18.2119 20.0909 18.0532 20.1207 18.0632 20.2748C18.1226 20.2748 18.1722 20.2748 18.2168 20.2748C18.4102 20.2847 18.5489 20.4437 18.4647 20.6028C18.3655 20.7817 18.4349 20.9059 18.5043 21.0501C18.5489 21.0501 18.5886 21.0501 18.6283 21.0501C18.6481 21.0501 18.6679 21.0501 18.6877 21.0501C18.8662 21.0004 18.8711 21.0004 18.891 21.2041C18.8513 21.224 18.8067 21.2439 18.7671 21.2687C18.5688 21.3731 18.4895 21.552 18.5489 21.7558C18.5787 21.8601 18.6183 21.9645 18.653 22.0689C18.6778 22.1384 18.7125 22.1881 18.7968 22.1881C18.8563 22.1881 18.9158 22.1782 18.9752 22.1881C19.0199 22.1981 19.0893 22.218 19.0942 22.2478C19.119 22.3571 19.124 22.4714 19.1438 22.6255C19.0843 22.6752 19.0149 22.7249 18.9257 22.7945C18.9852 22.8392 19.0347 22.8789 19.0942 22.9237C19.1289 22.8342 19.1438 22.7547 19.1884 22.705C19.3421 22.546 19.3817 22.3621 19.3668 22.1484C19.3668 22.0987 19.4115 22.049 19.4511 21.9695C19.5304 22.0987 19.6246 22.1931 19.6543 22.3024C19.694 22.4714 19.6543 22.6454 19.5304 22.7746C19.6626 22.9204 19.808 22.9436 19.9666 22.8442C20.0806 22.9734 20.1947 23.1026 20.3087 23.2268C20.3384 23.3859 20.3632 23.5449 20.3929 23.7189L20.621 23.9475V24.2904C20.6854 24.3351 20.735 24.36 20.7746 24.3997C20.8242 24.4544 20.849 24.5588 20.9035 24.5786C21.1712 24.6681 21.1861 24.9762 21.3794 25.1253C21.4042 25.2993 21.5628 25.4434 21.5033 25.6422C21.5033 25.6571 21.5182 25.677 21.5182 25.677C21.6223 25.7316 21.7115 25.7764 21.8007 25.8261V26.1093C21.88 26.1938 21.9494 26.2336 21.9742 26.2932C22.0238 26.4423 21.8453 26.4473 21.7858 26.5268C21.885 26.6113 21.9742 26.6809 22.0535 26.7554C22.1328 26.83 22.2072 26.8747 22.3262 26.8995C22.4649 26.9244 22.6632 26.9393 22.693 27.153C22.8169 27.2226 22.802 27.4263 22.9805 27.4512C23.0053 27.4512 23.03 27.5059 23.0499 27.5406C23.2333 27.8786 23.3622 28.2464 23.6695 28.5048C23.729 28.5545 23.7389 28.6539 23.7785 28.7235C23.8331 28.8328 23.8529 28.9521 23.9619 29.0366C24.0165 29.0813 24.0512 29.1807 24.0512 29.2602C24.0561 29.3745 24.1007 29.4292 24.2098 29.464C24.3635 29.5137 24.4626 29.618 24.4725 29.792C24.4725 29.8268 24.4973 29.8665 24.5221 29.8864C24.6212 29.956 24.7253 30.0156 24.8294 30.0802C24.7947 30.4231 24.9633 30.6766 25.1814 30.9152C25.1814 31.0444 25.2161 31.1885 24.993 31.2978C25.1318 31.2978 25.1913 31.2978 25.2458 31.2978C25.3449 31.3028 25.4837 31.3923 25.4738 31.4768C25.454 31.6606 25.5779 31.7749 25.6969 31.8197C25.8307 31.8743 25.8555 31.9837 25.8902 32.0731C25.9249 32.1725 25.9546 32.267 26.024 32.3465C26.0885 32.4111 26.0984 32.4757 26.0439 32.5502C26.0191 32.585 26.0191 32.6397 26.0092 32.6795C26.0736 32.7291 26.1827 32.7689 26.1876 32.8136C26.1975 33.0373 26.3661 33.1466 26.5049 33.3007V33.5889C26.5792 33.6187 26.6437 33.6386 26.6982 33.6734C26.9113 33.8076 27.0501 34.0312 27.2583 34.1754C27.3079 34.2102 27.3426 34.2549 27.3327 34.3245C27.298 34.5233 27.3823 34.6574 27.5706 34.727C27.6004 34.737 27.6152 34.7817 27.6351 34.8016C27.5458 35.0252 27.3426 34.8711 27.1939 34.9606C27.2236 34.9904 27.2534 35.0451 27.2782 35.0401C27.4219 35.0351 27.5458 35.0401 27.5954 35.2141C27.6103 35.2687 27.6747 35.2985 27.7441 35.2836C27.8928 35.2489 27.9969 35.3333 28.0415 35.4526C28.0812 35.557 28.1506 35.557 28.2348 35.5818C28.4976 35.6613 28.5471 35.7856 28.4678 36.0788C28.453 36.1434 28.4678 36.213 28.4678 36.3025C28.6314 36.2528 28.7355 36.3323 28.8049 36.4267C28.8594 36.6802 28.7851 36.8939 28.681 37.1225C28.7603 37.1225 28.8346 37.1424 28.8495 37.1225C28.9487 36.9833 29.018 37.1573 29.0974 37.1374C29.1816 37.2616 29.2659 37.3859 29.3551 37.5052C29.4146 37.5896 29.479 37.6741 29.5385 37.7586C29.5881 37.8282 29.6377 37.8978 29.6872 37.9673C29.7566 38.0568 29.8161 38.1562 29.9004 38.2357C29.9896 38.3202 30.0987 38.3848 30.1879 38.4444C30.1978 38.6035 30.1978 38.7277 30.2375 38.8619C30.2722 38.9762 30.2028 39.1154 30.1829 39.2346C30.3515 39.3291 30.4754 39.4384 30.5547 39.5974C30.5993 39.6919 30.6588 39.7714 30.6687 39.8807C30.6737 39.9652 30.6241 40.0199 30.5646 40.0398C30.52 40.0547 30.4556 40.0249 30.411 39.995C30.3217 39.9453 30.287 39.8161 30.1482 39.8012V40.1491C30.3019 40.2485 30.4556 40.3529 30.6142 40.4572C30.8868 40.2286 30.9067 40.2286 31.0851 40.3777C31.0322 40.5169 31.0917 40.6527 31.2636 40.7852V41.148C31.3131 41.1928 31.3577 41.2474 31.4123 41.2872C31.4817 41.3369 31.556 41.3766 31.6304 41.4114C31.7146 41.4512 31.6849 41.5953 31.8187 41.5953C31.8534 41.5953 31.908 41.65 31.9179 41.6897C31.9575 41.8736 32.1112 41.973 32.2202 42.1022C32.2202 42.2364 32.1707 42.4104 32.2302 42.5098C32.3343 42.6837 32.2302 42.7433 32.1409 42.8229C31.9873 42.9571 31.9228 43.0962 31.9427 43.3099C32.1806 43.3099 32.245 43.295 32.4483 43.1708C32.5375 43.1161 32.6317 43.1211 32.711 43.1857C32.7556 43.2205 32.7903 43.2652 32.8448 43.3248C32.7804 43.3695 32.7308 43.4391 32.6961 43.4292C32.5226 43.3894 32.4631 43.5435 32.3392 43.628H31.9774C31.9972 43.7622 31.9228 43.9162 32.0963 43.9659C32.2847 44.0156 32.3987 43.956 32.4929 43.792C32.6118 43.8069 32.7556 43.7423 32.8151 43.9063C32.7705 43.9957 32.7259 44.0902 32.6862 44.1747C32.7804 44.2293 32.8647 44.2442 32.8795 44.3735C32.8994 44.5275 33.0134 44.5524 33.1274 44.453C33.1522 44.4331 33.172 44.4132 33.1918 44.3884C33.2463 44.3188 33.3157 44.2989 33.4 44.3436C33.4 44.3685 33.4 44.3983 33.405 44.4231C33.4149 44.5076 33.405 44.6021 33.4397 44.6766C33.4744 44.7661 33.5735 44.7313 33.6478 44.7362C33.6627 44.7362 33.6826 44.7512 33.6974 44.7611C33.7866 44.8307 33.8808 44.8953 33.9651 44.9748C34.0593 45.0593 34.1237 45.1637 34.1188 45.2978C34.1088 45.432 34.1683 45.5364 34.2625 45.6258C34.322 45.6755 34.3864 45.7203 34.4211 45.7451C34.3864 45.8743 34.3666 45.9489 34.3418 46.0334C34.4459 46.0433 34.5153 46.0533 34.5897 46.0582C34.5897 46.2123 34.5847 46.3514 34.5897 46.4906C34.5996 46.6447 34.6194 46.7987 34.8227 46.8186C34.8573 46.8186 34.8871 46.8534 34.9168 46.8782C34.9912 46.9429 35.0606 47.0124 35.1349 47.082C35.1201 47.1764 35.125 47.2709 35.0903 47.3454C35.0655 47.4001 35.0903 47.4249 35.1151 47.4299C35.2242 47.4448 35.3035 47.569 35.4423 47.4895C35.5563 47.4249 35.6406 47.4945 35.6604 47.6287C35.6703 47.7032 35.6604 47.7728 35.7 47.8523C35.7843 48.0114 35.7942 48.1903 35.6207 48.3195C35.6009 48.3344 35.6058 48.3692 35.5959 48.394C35.6207 48.4089 35.6356 48.4288 35.6505 48.4239C35.814 48.394 35.9429 48.4785 36.0768 48.5431C36.1561 48.5779 36.2056 48.6227 36.1957 48.7171C36.1957 48.7668 36.1957 48.8165 36.1957 48.901C36.1462 48.9407 36.0768 48.9904 36.0123 49.0401C36.1214 49.224 36.2998 49.0898 36.4238 49.1594C36.4733 49.2339 36.5229 49.3035 36.5725 49.3731C36.627 49.4427 36.6319 49.5073 36.5675 49.5769C36.513 49.6315 36.4684 49.6912 36.399 49.7707C36.4485 49.8055 36.4783 49.8403 36.513 49.8452C36.6666 49.8701 36.6815 49.9744 36.6766 50.1037C36.6666 50.2528 36.6766 50.4019 36.6766 50.5857C36.627 50.6255 36.5576 50.6802 36.4981 50.7299C36.4981 50.8143 36.4783 50.8889 36.4981 50.9535C36.5229 51.0181 36.5824 51.0728 36.627 51.1274C36.5972 51.1573 36.5824 51.1722 36.5675 51.1871C36.513 51.2567 36.3742 51.2368 36.3692 51.371C36.3692 51.5052 36.4832 51.5449 36.5526 51.6195C36.622 51.694 36.7608 51.6493 36.7856 51.5499C36.8005 51.4902 36.7856 51.4207 36.7856 51.3561C36.855 51.4654 36.8451 51.6095 37.0335 51.5996C37.083 51.5996 37.1673 51.6741 37.1822 51.7288C37.2169 51.8928 37.4151 51.9326 37.4498 52.0966C37.4498 52.1115 37.5589 52.1314 37.5985 52.1164C37.6779 52.0817 37.6977 52.0021 37.6729 51.9176C37.4697 51.868 37.43 51.8332 37.4399 51.7288C37.4548 51.6294 37.5044 51.6045 37.7175 51.6045C37.772 51.7189 37.8216 51.8133 37.9703 51.8431C38.0695 51.863 38.1636 51.9524 38.2479 52.022C38.3421 52.1015 38.2925 52.2655 38.3966 52.3451C38.5007 52.4246 38.6346 52.3351 38.7585 52.4047C38.9221 52.4941 39.0906 52.4047 39.2343 52.3202C39.3236 52.2655 39.3682 52.1164 39.4574 52.0866C39.5516 52.0568 39.6755 52.1065 39.7846 52.1363C39.9283 52.1761 39.9729 52.027 40.0869 51.9972C40.2158 51.9624 40.3497 51.9524 40.3992 52.0568C40.4587 52.1761 40.5628 52.2457 40.6471 52.3401C40.7066 52.4097 40.7859 52.4594 40.8305 52.5339C40.8751 52.6085 40.885 52.7029 40.9098 52.7874C41.1329 52.8023 40.9842 52.4693 41.2221 52.4941C41.2518 52.5289 41.2964 52.5687 41.3311 52.6134C41.4501 52.7725 41.5839 52.7575 41.7327 52.6532C41.8268 52.7575 41.9111 52.8669 42.0449 52.7277C42.159 52.7426 42.2383 52.6731 42.3275 52.6184C42.4861 52.5289 42.6646 52.5091 42.8232 52.5737C42.9124 52.6085 42.9124 52.5389 43.0016 52.514C42.9372 52.4693 42.8827 52.4395 42.843 52.3997C42.734 52.2804 42.7538 52.2307 42.9422 52.1264C42.9521 52.2059 42.9372 52.2954 42.9769 52.35C43.076 52.4892 43.195 52.6085 43.309 52.7377C43.4379 52.6979 43.4577 52.5836 43.4924 52.4941C43.5271 52.4097 43.5717 52.3699 43.6609 52.3699C43.8047 52.3699 43.9236 52.3401 43.9187 52.1562C43.9187 52.1164 43.9534 52.0717 43.9782 52.032C44.0178 51.9673 44.1219 51.9326 44.1814 51.9624C44.2607 51.9972 44.2855 52.0866 44.2409 52.186C44.2062 52.2606 44.1715 52.3301 44.1368 52.3997C44.2557 52.4544 44.3549 52.5041 44.4739 52.5637C44.5284 52.4842 44.5879 52.3997 44.6473 52.3152C44.692 52.2556 44.7267 52.186 44.7762 52.1314C44.8506 52.0518 44.9745 52.0469 45.0588 52.1264C45.1232 52.186 45.1827 52.2506 45.2422 52.3152C45.376 52.2357 45.3265 52.1065 45.3364 51.9922C45.262 51.8978 45.1282 51.8381 45.153 51.6841C45.0538 51.6095 44.9547 51.535 44.8605 51.4654C44.8605 51.4207 44.8605 51.3908 44.8605 51.361C44.8555 51.1324 44.92 50.8889 44.687 50.7149C44.6473 50.6901 44.6374 50.6156 44.6275 50.5659C44.5928 50.372 44.3251 50.3472 44.3202 50.1335C44.3202 50.1235 44.2904 50.1186 44.2706 50.1136C44.231 50.0937 44.1913 50.0639 44.1467 50.0589C44.0922 50.049 44.0327 50.0589 43.9732 50.0589V49.6266C43.9038 49.5073 43.7501 49.4626 43.7204 49.2737C43.8988 49.3333 43.9534 49.2091 44.0525 49.0948C43.9881 49.055 43.9385 48.9904 43.8889 48.9904C43.7452 48.9904 43.6411 48.9159 43.537 48.8264C43.4527 48.7568 43.3536 48.7071 43.2445 48.6376C43.2594 48.5382 43.2792 48.4288 42.1342 46.9031C42.2036 46.8932 42.2878 46.8882 42.3969 46.8733C42.3324 46.7838 42.2928 46.7192 42.2432 46.6596C42.2184 46.6298 42.1887 46.6099 42.1342 46.5651C42.1342 46.6993 42.1342 46.7987 43.2991 48.2797L43.3338 48.2748ZM27.0898 40.3926C27.2782 40.2038 27.4963 40.0447 27.4665 39.7515C27.2484 39.7118 27.0898 39.7565 27.0452 39.9752C26.8965 40.005 26.7775 39.9553 26.6932 39.8708C26.5991 39.7813 26.5098 39.7913 26.4107 39.8211C26.4008 40.0249 26.5594 40.1292 26.6585 40.2386C26.7527 40.3429 26.9113 40.4274 27.0997 40.3976L27.0898 40.3926ZM32.7457 45.0295C32.7259 44.8456 32.706 44.6766 32.6862 44.5126C32.6763 44.5126 32.6614 44.5027 32.6565 44.5076C32.597 44.5524 32.5325 44.5921 32.478 44.6468C32.4136 44.7114 32.3491 44.7611 32.25 44.7462C32.2054 44.7412 32.1558 44.7462 32.1211 44.7462C32.0914 44.8853 32.0616 45.0046 32.0368 45.1189C32.0963 45.1786 32.1459 45.2283 32.1955 45.273C32.3194 45.3873 32.4235 45.3674 32.4582 45.1935C32.483 45.0692 32.5424 45.0295 32.6565 45.0344C32.6912 45.0344 32.7308 45.0245 32.7457 45.0245V45.0295ZM35.3382 48.8016C35.3035 48.6624 35.3035 48.5332 35.239 48.4586C35.13 48.3294 35.0209 48.1903 34.8573 48.1157C34.7533 48.066 34.6194 48.0263 34.6045 47.8722C34.6045 47.8623 34.5351 47.8573 34.4459 47.8424C34.5451 47.9915 34.6293 48.0909 34.6244 48.235C34.6244 48.2797 34.6739 48.3791 34.7731 48.404C34.8673 48.4288 34.9466 48.5133 35.0209 48.568C34.9763 48.6475 34.9416 48.7071 34.9069 48.7668C35.0358 48.9705 35.1746 48.7519 35.3332 48.8016H35.3382ZM31.9327 42.1271C31.8187 42.1122 31.7196 42.147 31.6452 42.0476C31.4668 41.819 31.4222 41.7394 31.1 41.9084C31.0504 41.9333 31.0058 41.973 30.9413 42.0178C31.2239 42.0973 31.3528 42.0675 31.6056 42.4153C31.8039 42.3391 31.9113 42.2414 31.9278 42.1221L31.9327 42.1271ZM46.3476 2.48278C46.4467 2.3983 46.5161 2.30884 46.6053 2.27405C46.7144 2.22435 46.8185 2.29393 46.8929 2.39333C46.9424 2.29393 46.9176 2.23429 46.8532 2.16968C46.7491 2.07029 46.645 1.97586 46.5806 1.84168C46.5558 1.78701 46.4864 1.75719 46.4368 1.71246C46.3228 1.80689 46.2237 1.92119 46.2782 2.0355C46.3426 2.16968 46.303 2.2989 46.3525 2.48278H46.3476ZM21.077 28.5396C21.1811 28.5396 21.2703 28.5446 21.3546 28.5396C21.424 28.5346 21.4884 28.4302 21.4636 28.3656C21.4339 28.2911 21.3843 28.2165 21.3397 28.1519C21.3001 28.0923 21.2455 28.0476 21.1662 28.0674C21.0968 28.0873 20.9977 28.2016 20.9927 28.2762C20.9927 28.3408 20.9927 28.4104 20.9927 28.465C20.8291 28.5545 20.8242 28.5545 20.8143 28.6439C20.8143 28.6887 20.8143 28.7384 20.8192 28.7831H20.9679C20.9977 28.7135 21.0324 28.639 21.077 28.5446V28.5396ZM48.6228 49.716C48.5832 49.7906 48.5584 49.8452 48.5187 49.89C48.4394 49.9844 48.4196 50.1384 48.261 50.1683C48.2411 50.1683 48.2362 50.2726 48.2114 50.3919C48.4444 50.213 48.6625 50.3223 48.8756 50.2627C48.8806 50.054 48.836 49.875 48.6228 49.711V49.716ZM37.2317 37.9276C37.3804 38.0817 37.5292 38.1363 37.6927 37.9524C37.7225 37.9226 37.777 37.9127 37.8117 37.8928C37.8613 37.858 37.9059 37.8232 37.9554 37.7884C37.8613 37.5996 37.7175 37.6393 37.5985 37.6841C37.5391 37.7039 37.5143 37.7139 37.4498 37.6841C37.3904 37.6542 37.3061 37.6692 37.2317 37.6592V37.9326V37.9276ZM20.5317 27.5108C20.5317 27.5108 20.497 27.4661 20.4822 27.4412C20.3979 27.5307 20.2789 27.5605 20.1897 27.5158C20.0509 27.4512 19.927 27.3419 19.7981 27.2524C19.7733 27.2325 19.7337 27.2325 19.6643 27.2077C19.7337 27.3766 19.7832 27.5108 19.8378 27.645C19.8427 27.6599 19.8625 27.6798 19.8774 27.6848C19.9666 27.7146 20.0559 27.7593 20.1401 27.7543C20.2145 27.7543 20.2888 27.6947 20.3582 27.65C20.4227 27.6102 20.4772 27.5556 20.5317 27.5108ZM42.1887 44.0753C42.2482 44.1399 42.2977 44.2045 42.3523 44.2542C42.4068 44.2989 42.496 44.2691 42.5506 44.1995C42.5902 44.1498 42.5654 44.0753 42.4861 44.0405C42.4118 44.0057 42.3275 44.0007 42.2482 43.9709C42.1986 43.951 42.1738 43.8765 42.1044 43.9311C42.0549 43.9709 41.9855 43.9908 41.9458 44.0405C41.8814 44.1101 41.9111 44.2144 42.0202 44.3287C42.0747 44.2492 42.1243 44.1697 42.1837 44.0802L42.1887 44.0753ZM40.4934 52.8023C40.4934 52.688 40.4934 52.6184 40.4934 52.5488C40.4934 52.2506 40.4835 52.2407 40.1762 52.2506C40.1663 52.2506 40.1613 52.2606 40.1365 52.2755C40.1613 52.4445 40.201 52.6085 40.315 52.7476C40.3447 52.7824 40.4141 52.7774 40.4934 52.7973V52.8023ZM19.8179 29.8616C19.9419 29.8268 20.0757 29.9063 20.1649 29.8069C20.2541 29.7075 20.3136 29.5882 20.2641 29.4441C20.1153 29.4491 20.1203 29.464 19.9766 29.5186C19.8229 29.5783 19.7733 29.6727 19.8179 29.8566V29.8616ZM46.7094 48.0312C46.8879 48.1803 47.0465 48.3096 47.2151 48.4487C47.2795 48.404 47.3439 48.3642 47.4282 48.3096C47.2646 48.2201 47.111 48.1754 47.0316 48.0213C46.9424 47.8523 46.8978 47.8573 46.7094 48.0312ZM30.7976 41.1629C30.8373 40.9592 30.6687 40.9045 30.5795 40.8001C30.5448 40.7604 30.4704 40.7604 30.4159 40.7455C30.3812 40.83 30.3564 40.8846 30.3267 40.9542C30.4506 41.0884 30.5795 41.2027 30.8026 41.1629H30.7976ZM26.2471 36.1335C26.2124 36.213 26.1728 36.2726 26.1728 36.3273C26.1728 36.372 26.2223 36.4416 26.2669 36.4565C26.3413 36.4764 26.3909 36.5112 26.4057 36.5808C26.4355 36.7448 26.5991 36.7696 26.6833 36.869C26.6338 36.6454 26.6288 36.6454 26.4702 36.4913C26.4404 36.4615 26.4305 36.4118 26.4057 36.372C26.3611 36.3025 26.3115 36.2329 26.2471 36.1335ZM42.8232 42.1271C42.7587 42.3855 42.9322 42.4501 43.0859 42.5296C43.2049 42.4402 43.1553 42.3607 43.1156 42.2513C43.0611 42.0923 42.9521 42.1171 42.8232 42.1271ZM39.5417 40.6163C39.5565 40.4274 39.4227 40.3529 39.3037 40.2833C39.269 40.2634 39.1996 40.2634 39.16 40.2833C39.1154 40.3081 39.0856 40.3628 39.046 40.4075C39.1352 40.4523 39.2145 40.4771 39.279 40.5218C39.3533 40.5765 39.4029 40.6809 39.5417 40.6113V40.6163ZM15.6987 37.9872C15.8226 38.0419 15.9168 38.0021 16.006 37.9524C16.1547 37.868 16.1547 37.7984 16.006 37.6542C15.8325 37.689 15.7383 37.8033 15.6937 37.9872H15.6987ZM26.3314 33.9418V33.738C26.1876 33.6784 26.1281 33.7877 26.0587 33.8573C25.9299 33.9915 25.9447 34.0412 26.1331 34.1356C26.1975 34.071 26.257 34.0114 26.3314 33.9368V33.9418ZM41.4352 54.6361C41.5195 54.7455 41.5939 54.8498 41.7327 54.8051C41.7872 54.7902 41.8367 54.7306 41.8615 54.6809C41.8913 54.6212 41.8467 54.5666 41.7971 54.5367C41.7029 54.4771 41.5542 54.5169 41.4352 54.6361ZM26.4206 39.2048C26.5247 39.1999 26.6437 39.0806 26.6387 38.9961C26.6387 38.9713 26.6338 38.9365 26.6189 38.9166C26.5842 38.8669 26.5396 38.8321 26.4702 38.847C26.4008 38.8619 26.2818 38.9712 26.2868 39.0408C26.2868 39.0905 26.3264 39.1402 26.3562 39.185C26.371 39.2048 26.4057 39.1999 26.4156 39.2048H26.4206ZM22.7029 34.3791C22.7029 34.3791 22.7178 34.4189 22.7277 34.4388C22.8218 34.4388 22.921 34.4487 23.0152 34.4388C23.0598 34.4288 23.1143 34.3791 23.1341 34.3344C23.1639 34.2648 23.1242 34.1903 23.0598 34.1654C23.0152 34.1455 22.9408 34.1555 22.9061 34.1803C22.8318 34.235 22.7723 34.3145 22.7078 34.3841L22.7029 34.3791ZM29.6129 39.2496C29.6129 39.1402 29.6327 39.0508 29.5385 38.9712C29.4493 38.8917 29.37 38.9066 29.2758 38.9166C29.2312 39.006 29.2609 39.0706 29.3254 39.1253C29.4047 39.1899 29.4543 39.3042 29.6129 39.2496ZM33.1175 31.104C32.9886 31.104 32.8597 31.104 32.7358 31.104C32.6416 31.104 32.5771 31.1537 32.592 31.268H33.1175V31.099V31.104ZM26.257 35.0351C26.3512 35.0351 26.4107 35.0451 26.4652 35.0351C26.5445 35.0202 26.6139 34.9357 26.5792 34.8662C26.5247 34.7568 26.5247 34.6475 26.5197 34.5332C26.5197 34.5183 26.4603 34.5083 26.4256 34.4934C26.409 34.7088 26.3529 34.8894 26.257 35.0351ZM7.49492 50.6802C7.49988 50.5857 7.4404 50.5261 7.3363 50.5211C7.20742 50.5162 7.13802 50.5708 7.14298 50.6752C7.14298 50.7547 7.20246 50.8094 7.28673 50.8193C7.41065 50.8293 7.48997 50.7746 7.49492 50.6802ZM12.9079 17.104C13.017 17.104 13.0814 17.0543 13.0864 16.9649C13.0864 16.8704 13.0318 16.8158 12.9228 16.8108C12.7939 16.8058 12.7245 16.8605 12.7295 16.9649C12.7295 17.0543 12.7989 17.104 12.9079 17.104ZM27.4417 18.0532C27.4649 17.9075 27.4103 17.7882 27.2782 17.6954C27.1443 17.7501 27.1493 17.8694 27.184 17.9688C27.2236 18.0831 27.3476 18.0532 27.4417 18.0532ZM29.712 41.819C29.6426 41.8289 29.5683 41.8339 29.4989 41.8538C29.4741 41.8587 29.4394 41.8935 29.4394 41.9134C29.4295 41.973 29.4196 42.0426 29.4394 42.0873C29.4592 42.1271 29.5336 42.142 29.5831 42.1668C29.6922 42.0923 29.7715 41.9929 29.7071 41.814L29.712 41.819ZM34.1882 29.5584C34.2179 29.6379 34.2774 29.7075 34.3617 29.6727C34.4509 29.6379 34.5401 29.6081 34.6343 29.6131C34.6442 29.6131 34.6591 29.5832 34.664 29.5683C34.664 29.5534 34.664 29.5186 34.6541 29.5186C34.5599 29.4838 34.4757 29.4242 34.3617 29.4342C34.2724 29.4441 34.2179 29.4739 34.1931 29.5584H34.1882ZM46.3525 49.9794C46.3823 49.9297 46.4269 49.885 46.4368 49.8353C46.4566 49.7707 46.4418 49.7011 46.3773 49.6514C46.3228 49.6116 46.2931 49.6315 46.2534 49.6663C46.2088 49.7011 46.1295 49.6961 46.1394 49.7955C46.1543 49.9496 46.1592 49.9645 46.3525 49.9794ZM8.75399 12.4175C8.88287 12.2535 8.89279 12.1889 8.80356 12.1342C8.75895 12.1093 8.68955 12.0895 8.63998 12.1044C8.58545 12.1193 8.54084 12.169 8.45657 12.2236C8.57058 12.2982 8.64989 12.3529 8.75399 12.4175ZM32.4185 31.6656V31.8097C32.6333 31.8197 32.7688 31.7749 32.825 31.6755C32.6862 31.6093 32.5507 31.606 32.4185 31.6656ZM11.3068 10.1463C11.2721 10.027 11.1978 10.0021 11.0986 10.0071C10.9945 10.017 10.94 10.0717 10.94 10.1711C10.94 10.2258 11.0738 10.3103 11.1185 10.2755C11.1829 10.2307 11.2473 10.186 11.3019 10.1463H11.3068ZM25.8704 39.8658C25.8753 40.1093 25.915 40.1739 26.034 40.159C26.0687 40.159 26.1034 40.1342 26.1281 40.1093C26.2025 40.0398 26.1579 39.9553 26.1628 39.8658H25.8704ZM30.406 27.3369C30.6836 27.3468 30.6885 27.3369 30.6687 27.0635C30.3911 27.0536 30.3862 27.0635 30.406 27.3369ZM25.4441 37.5698C25.3301 37.4306 25.221 37.2964 25.0921 37.1374C25.0327 37.2119 24.998 37.2616 24.9633 37.3064C25.0674 37.4753 25.3301 37.4256 25.3499 37.6642C25.3846 37.6294 25.4143 37.5996 25.4391 37.5747L25.4441 37.5698ZM44.2706 2.64182C44.3648 2.58715 44.4441 2.54739 44.5185 2.49272C44.5928 2.43806 44.6374 2.36351 44.573 2.27405C44.4342 2.22932 44.3846 2.33866 44.3053 2.40824C44.2359 2.4629 44.2111 2.52751 44.2657 2.64182H44.2706ZM42.9719 55.0288C42.8926 54.989 42.8381 54.9393 42.7835 54.9343C42.6695 54.9244 42.6398 55.0387 42.5654 55.0934C42.6745 55.2226 42.81 55.201 42.9719 55.0288ZM13.3194 12.9144C13.4482 12.9443 13.5375 12.9294 13.5573 12.8051C13.5722 12.7007 13.5672 12.5914 13.4284 12.5666C13.2698 12.6361 13.3392 12.7803 13.3194 12.9095V12.9144ZM41.7426 42.0078C41.8913 41.9531 41.8814 41.8289 41.8566 41.7345C41.8318 41.655 41.7426 41.6053 41.6236 41.6649C41.6484 41.7742 41.5592 41.9233 41.7426 42.0078ZM46.4071 51.7735C46.3228 51.7785 46.2584 51.7686 46.2187 51.7934C46.1146 51.8729 46.0452 51.9972 45.9114 52.0419C45.9064 52.0419 45.9015 52.0817 45.9114 52.0966C45.9163 52.1115 45.9362 52.1314 45.9461 52.1314C45.9907 52.1314 46.0452 52.1313 46.0799 52.1065C46.1741 52.0469 46.2584 51.9723 46.3476 51.9027C46.3724 51.8829 46.3773 51.8431 46.4071 51.7785V51.7735ZM17.1759 3.81967C17.2354 3.929 17.3196 3.95385 17.4088 3.929C17.4634 3.91409 17.508 3.85943 17.5576 3.82464C17.389 3.65566 17.3295 3.65566 17.1709 3.82464L17.1759 3.81967ZM29.9103 39.8112C29.8211 39.8012 29.7269 39.7615 29.6476 39.8559C29.6278 39.8758 29.6178 39.9006 29.6129 39.9105C29.6724 39.9851 29.7269 40.0547 29.7765 40.1193C29.8591 40.0398 29.9037 39.9371 29.9103 39.8112ZM21.2852 26.169C21.1018 26.1242 21.0522 26.2485 20.9779 26.3379C21.0324 26.4423 21.1067 26.492 21.2009 26.4473C21.31 26.3976 21.2852 26.2833 21.2802 26.169H21.2852ZM46.8482 5.12176V4.89812C46.5756 4.89315 46.5657 4.89812 46.5806 5.12176H46.8482ZM33.7371 31.5712C33.7817 31.5463 33.8412 31.5165 33.9056 31.4817C33.8511 31.3127 33.7073 31.3376 33.5933 31.3127C33.5735 31.3127 33.5438 31.3624 33.5041 31.4072C33.5834 31.4618 33.6478 31.5066 33.7371 31.5712ZM42.0945 40.5169C42.0152 40.5169 41.9359 40.5169 41.8615 40.5169C41.7525 40.5169 41.7525 40.5169 41.7525 40.6858H42.0945V40.5169ZM34.0295 29.3149C33.8709 29.1558 33.8263 29.1558 33.6627 29.2801C33.7916 29.4093 33.9139 29.4209 34.0295 29.3149ZM32.1261 17.4767C31.9476 17.4271 31.8237 17.4867 31.7196 17.5861C31.6998 17.606 31.7047 17.6507 31.6948 17.6805C31.8286 17.5861 32.0517 17.7153 32.1261 17.4718V17.4767ZM19.8427 26.4274C19.8675 26.5218 19.8923 26.6113 19.922 26.7107C20.0674 26.5682 20.0972 26.4489 20.0112 26.3529C19.9666 26.3727 19.927 26.3926 19.8427 26.4274ZM10.36 45.0146C10.4741 44.9698 10.5633 44.945 10.6376 44.8953C10.6624 44.8804 10.6476 44.8108 10.6525 44.7611C10.4674 44.7478 10.37 44.8307 10.36 45.0096V45.0146ZM42.4316 43.6528C42.5406 43.7125 42.6299 43.7572 42.6695 43.7771C42.7488 43.7423 42.7934 43.7224 42.8331 43.7025C42.6794 43.5186 42.6497 43.5137 42.4316 43.6528ZM30.2672 28.9968C30.3961 29.0366 30.4704 29.0067 30.52 28.8626C30.4308 28.808 30.3416 28.7533 30.1879 28.6638C30.2375 28.7583 30.2622 28.793 30.2672 28.8278C30.2771 28.8825 30.2672 28.9421 30.2672 28.9918V28.9968ZM37.9208 36.9386C37.6878 36.9734 37.6878 36.9734 37.7423 37.3113C37.8266 37.1672 37.9802 37.1374 37.9208 36.9386ZM45.7974 49.3383V49.557C45.8866 49.5918 45.9609 49.5769 46.0056 49.5023C46.0303 49.4576 46.0254 49.3979 46.0303 49.3383H45.7974ZM46.6896 51.5201C46.6896 51.5698 46.6747 51.6145 46.6896 51.6344C46.7392 51.7039 46.7987 51.7686 46.8532 51.8332C46.873 51.858 46.9077 51.8928 46.9275 51.8878C46.9969 51.8779 46.9821 51.8033 46.9672 51.7735C46.9077 51.6642 46.8334 51.5698 46.6847 51.5201H46.6896ZM33.5636 20.737C33.4892 20.8214 33.3653 20.8811 33.4347 21.0252C33.5239 21.0451 33.6032 21.0302 33.6429 20.9507C33.6826 20.8711 33.6528 20.8016 33.5636 20.737ZM34.1386 17.6258C34.1733 17.6855 34.1981 17.7302 34.2229 17.77C34.3071 17.7252 34.3716 17.6954 34.436 17.6606C34.3121 17.4668 34.2873 17.4668 34.1386 17.6258ZM7.45031 47.1665C7.4057 47.1317 7.35613 47.0919 7.30656 47.0522C7.23716 47.1367 7.13802 47.1764 7.14298 47.2957C7.27186 47.3106 7.38587 47.3305 7.45031 47.1665ZM36.2949 50.2428C36.2205 50.1235 36.1561 50.0639 36.047 50.1285C36.0123 50.1534 35.9925 50.1981 35.9677 50.2329C36.0074 50.2826 36.0371 50.3223 36.0718 50.3621C36.1511 50.3223 36.2156 50.2875 36.2998 50.2478L36.2949 50.2428ZM38.1042 39.677C38.1636 39.7465 38.2182 39.8062 38.2677 39.8608C38.2777 39.8708 38.3074 39.8608 38.3471 39.8608C38.3471 39.7416 38.3917 39.6124 38.2033 39.5527C38.1736 39.5875 38.1438 39.6273 38.1042 39.677ZM35.4522 50.8342H35.1548V50.9883C35.2886 51.0032 35.4125 51.0231 35.4522 50.8342ZM17.741 26.2733C17.7013 26.3777 17.7211 26.4523 17.7955 26.492C17.8401 26.5169 17.8946 26.5119 17.9541 26.5169C17.9475 26.3744 17.8765 26.2932 17.741 26.2733ZM34.208 17.3078C34.2724 17.2382 34.317 17.1885 34.3617 17.1388C34.3617 17.1388 34.3567 17.1239 34.3517 17.1189C34.2493 17.0493 34.1535 17.0676 34.0642 17.1736C34.0642 17.1736 34.094 17.2183 34.1138 17.2382C34.1336 17.2581 34.1584 17.273 34.203 17.3078H34.208ZM37.0087 35.9943C36.9145 36.1186 36.9046 36.1434 36.9492 36.218C36.969 36.2528 37.0186 36.2726 37.0582 36.3074C37.1078 36.2528 37.1425 36.213 37.1871 36.1583C37.1177 36.0987 37.0632 36.049 37.0087 35.9993V35.9943ZM16.581 2.95492C16.4869 2.99468 16.4175 3.01952 16.353 3.04934C16.3877 3.11892 16.4125 3.16862 16.4373 3.21335H16.581V2.95492ZM46.2435 50.4366C46.3773 50.382 46.4368 50.3522 46.4418 50.2577C46.4418 50.1683 46.4368 50.0937 46.3327 50.0589C46.3079 50.1732 46.2782 50.2826 46.2435 50.4366ZM31.0157 25.0408C31.1495 24.9762 31.1892 24.9017 31.1446 24.7973C30.976 24.7973 30.9215 24.8321 30.9215 24.9215C30.9562 24.9613 30.981 25.0011 31.0157 25.0408ZM34.2476 46.0234C34.1733 45.9042 34.0692 45.934 33.9552 45.9539C33.9552 46.0135 33.9651 46.0682 33.9651 46.1179C34.0741 46.1179 34.1832 46.1526 34.2476 46.0234ZM27.4269 38.7426C27.3823 38.8619 27.4318 38.9315 27.5508 38.9762C27.5904 38.9315 27.6251 38.8967 27.6747 38.847C27.6004 38.7575 27.5458 38.688 27.4269 38.7426ZM45.7131 2.38339C45.7825 2.49272 45.8519 2.53745 45.956 2.48775C45.9907 2.37842 45.956 2.30387 45.8767 2.27405C45.8221 2.31381 45.7775 2.34363 45.7131 2.38339ZM18.1028 9.36599C18.1375 9.32126 18.1772 9.27654 18.2119 9.23678C18.1474 9.12744 18.078 9.08271 17.9739 9.13738C17.9442 9.24672 17.9739 9.32126 18.1078 9.36599H18.1028ZM1.036 55.2126C1.01122 55.5307 1.00626 55.5357 1.05583 55.5953C1.08061 55.6251 1.12523 55.6351 1.16488 55.655C1.2095 55.5605 1.19462 55.5009 1.13514 55.4313C1.09053 55.3816 1.07566 55.3021 1.036 55.2077V55.2126ZM31.7791 43.4143C31.6452 43.4789 31.6056 43.5534 31.6502 43.6578C31.8187 43.6578 31.8733 43.623 31.8733 43.5336C31.8386 43.4938 31.8138 43.454 31.7791 43.4143ZM46.4219 47.7181C46.5013 47.743 46.5607 47.7828 46.5954 47.7678C46.6797 47.7281 46.7045 47.6486 46.6599 47.5541C46.5112 47.4746 46.5062 47.6287 46.4219 47.7181ZM42.615 46.7739C42.6893 46.6795 42.729 46.6298 42.7736 46.5751C42.7191 46.5304 42.6745 46.4906 42.6249 46.4508C42.5753 46.5055 42.5406 46.5453 42.5456 46.5353C42.5704 46.6198 42.5853 46.6795 42.615 46.7739ZM31.1644 47.7132H31.3924V47.5541H31.1644V47.7132ZM34.9763 18.9776C34.9267 18.8733 34.8722 18.7838 34.7433 18.7689C34.7334 18.9925 34.7582 19.0124 34.9763 18.9776ZM38.9964 40.497C38.8874 40.5367 38.813 40.5715 38.8328 40.661C38.8427 40.7157 38.8824 40.7604 38.9072 40.8051C39.0509 40.7256 39.0063 40.6212 39.0014 40.492L38.9964 40.497ZM46.9722 1.623H46.7441V1.78204H46.9722V1.623ZM31.0256 42.475C30.8918 42.4899 30.8521 42.5644 30.862 42.6738C30.862 42.6887 30.8819 42.7036 30.8868 42.7086H31.0256V42.475ZM33.2562 32.4608V32.6993H33.4099C33.4446 32.5651 33.405 32.4906 33.2562 32.4608ZM40.6818 9.12744H40.429C40.429 9.19205 40.4389 9.24672 40.4438 9.29145C40.5727 9.31133 40.6471 9.27654 40.6818 9.12744ZM46.6103 46.7291C46.5161 46.6795 46.4368 46.7093 46.3922 46.7888C46.3674 46.8385 46.3525 46.913 46.4418 46.9627C46.5013 46.8832 46.5508 46.8087 46.6103 46.7291ZM24.4428 34.8115C24.5568 34.732 24.5865 34.6574 24.532 34.558C24.4824 34.558 24.4329 34.563 24.3535 34.568C24.3882 34.6574 24.413 34.727 24.4428 34.8115ZM3.26168 50.8293C3.32116 50.9419 3.40378 50.9883 3.50953 50.9684C3.46326 50.8823 3.38064 50.8359 3.26168 50.8293ZM43.5816 6.55804C43.651 6.47852 43.6758 6.44871 43.7006 6.41889C43.7006 6.41889 43.7006 6.40398 43.7006 6.39901C43.5717 6.31452 43.4725 6.29464 43.4478 6.31949C43.4874 6.38907 43.5271 6.45864 43.5866 6.56301L43.5816 6.55804ZM34.9714 17.3724C34.7731 17.3376 34.7582 17.3475 34.7483 17.5066C34.8722 17.5364 34.9466 17.4966 34.9714 17.3724ZM9.69581 9.08271C9.64129 9.15726 9.60163 9.21193 9.53223 9.30636C9.66607 9.29642 9.74043 9.29145 9.85939 9.28151C9.79495 9.20199 9.7553 9.15229 9.70077 9.08271H9.69581ZM9.69581 8.85907C9.75034 8.78452 9.78504 8.72986 9.85444 8.63543C9.72556 8.64537 9.64624 8.65034 9.52728 8.66028C9.59667 8.74477 9.63633 8.78949 9.69581 8.85907ZM18.1821 8.47639C18.1028 8.55094 18.0533 8.59567 17.9888 8.65531C18.0582 8.70501 18.1078 8.7398 18.1821 8.79446V8.47639ZM45.5693 51.0628C45.6189 51.1672 45.6536 51.2318 45.6933 51.3113C45.7974 51.1722 45.8122 51.1125 45.7676 51.0628H45.5743H45.5693ZM23.7934 36.5957C23.8529 36.6404 23.8926 36.6702 23.9372 36.7C24.0462 36.5509 24.0561 36.4913 23.9619 36.4515C23.9223 36.4863 23.8777 36.5211 23.7934 36.5907V36.5957ZM7.98071 45.6457V45.8197C8.04515 45.8147 8.09967 45.8097 8.13933 45.8048V45.6408H7.98071V45.6457ZM12.3874 17.3873C12.437 17.442 12.5015 17.5115 12.6303 17.4121C12.5857 17.3624 12.5411 17.3127 12.4767 17.2432C12.442 17.3078 12.4172 17.3475 12.3924 17.3873H12.3874ZM29.6426 45.6557C29.6426 45.6557 29.6773 45.6109 29.6922 45.5911C29.6476 45.5414 29.603 45.4917 29.5385 45.4221C29.4989 45.4817 29.4741 45.5215 29.4443 45.5761C29.4989 45.596 29.5732 45.6258 29.6426 45.6557ZM7.76756 45.2879C7.82208 45.4022 7.85678 45.4718 7.97575 45.4519C7.97575 45.3823 7.96583 45.3326 7.96583 45.2879H7.77251H7.76756ZM30.9314 29.4838C30.9314 29.4838 30.9661 29.4988 30.981 29.5087C31.0256 29.459 31.0702 29.4093 31.1446 29.3298H30.9314V29.4838ZM27.4417 42.1221C27.3756 42.205 27.3756 42.2845 27.4417 42.3607C27.5078 42.2845 27.5078 42.205 27.4417 42.1221ZM15.1485 37.8083C15.208 37.8431 15.2625 37.8729 15.3517 37.9226C15.3368 37.8232 15.3319 37.7636 15.317 37.6741C15.2476 37.7288 15.203 37.7636 15.1485 37.8033V37.8083ZM39.5566 54.7256V54.9642C39.6259 54.9145 39.6755 54.8797 39.73 54.8399C39.6656 54.8001 39.621 54.7703 39.5566 54.7256ZM15.9366 7.24388C15.9763 7.30849 15.9812 7.42776 16.125 7.36812C16.1002 7.26873 16.0655 7.20412 15.9366 7.24388ZM35.0507 15.5286C35.1399 15.5683 35.1895 15.5932 35.2688 15.628C35.2638 15.5385 35.2589 15.4888 35.2539 15.4043C35.1845 15.4491 35.1399 15.4739 35.0507 15.5286ZM28.2299 35.7757C28.1605 35.8303 28.1109 35.8601 28.0564 35.9049C28.1208 35.9446 28.1655 35.9744 28.2299 36.0142V35.7757ZM17.0371 34.3443C16.9925 34.3096 16.9677 34.2847 16.9379 34.2599C16.9231 34.2897 16.8983 34.3195 16.8933 34.3493C16.8834 34.404 16.8933 34.4537 16.9627 34.4338C16.9875 34.4288 17.0024 34.3841 17.0371 34.3443ZM27.7342 35.726C27.7094 35.6763 27.6896 35.6315 27.6797 35.6365C27.6301 35.6464 27.5557 35.5918 27.5359 35.6812C27.531 35.7011 27.5557 35.7508 27.5657 35.7508C27.6152 35.7508 27.6648 35.7409 27.7342 35.7309V35.726ZM47.2547 4.01846C47.2795 4.06816 47.2944 4.11289 47.3043 4.10792C47.3538 4.09798 47.4282 4.14768 47.448 4.06816C47.453 4.04828 47.4282 3.99858 47.4183 3.99858C47.3687 3.99858 47.3191 4.00852 47.2498 4.01846H47.2547ZM5.75503 52.1562C5.81451 52.1264 5.85417 52.1065 5.88887 52.0866C5.86904 52.0618 5.84921 52.022 5.82938 52.017C5.78973 52.0121 5.72529 51.9872 5.71537 52.0568C5.71537 52.0817 5.7352 52.1115 5.75503 52.1562ZM29.4443 23.853C29.4741 23.7437 29.4939 23.7039 29.4939 23.6692C29.4939 23.6443 29.4592 23.5996 29.4394 23.5996C29.3601 23.5896 29.3799 23.6592 29.3849 23.699C29.3849 23.7288 29.4096 23.7536 29.4493 23.853H29.4443ZM28.334 36.5211C28.3736 36.4665 28.4728 36.4366 28.3836 36.3273C28.3389 36.3621 28.2894 36.3919 28.2398 36.4267C28.2795 36.4615 28.3042 36.4913 28.329 36.5162L28.334 36.5211ZM9.48266 13.5605C9.44797 13.6053 9.42318 13.6301 9.3984 13.6599C9.42814 13.6748 9.45788 13.6997 9.48762 13.7047C9.54215 13.7146 9.59172 13.7047 9.57685 13.6351C9.57189 13.6102 9.52728 13.5953 9.48762 13.5605H9.48266ZM45.5693 44.771C45.4999 44.7611 45.4504 44.7512 45.4008 44.7512C45.3909 44.7512 45.3661 44.8009 45.3711 44.8207C45.3909 44.9052 45.4652 44.8555 45.5148 44.8655C45.5247 44.8655 45.5396 44.8207 45.5693 44.776V44.771ZM38.2925 37.0877C38.3223 37.1175 38.347 37.1523 38.3768 37.1672C38.3966 37.1771 38.4462 37.1722 38.4511 37.1672C38.4611 37.1374 38.4611 37.1026 38.4511 37.0728C38.4412 37.038 38.4264 37.0082 38.4164 36.9833C38.352 37.043 38.3223 37.0678 38.2925 37.0877ZM22.0436 9.58467C22.0089 9.61945 21.9792 9.64927 21.9494 9.67909C21.994 9.72382 22.0188 9.81328 22.1328 9.7437C22.1031 9.694 22.0733 9.63933 22.0436 9.58467ZM16.2687 7.54704C16.2192 7.57189 16.1746 7.59177 16.1795 7.6017C16.1894 7.6514 16.1349 7.72595 16.2241 7.74583C16.244 7.7508 16.2935 7.72595 16.2935 7.71601C16.2935 7.66631 16.2836 7.61661 16.2737 7.54704H16.2687ZM24.7303 32.8584C24.8261 32.8683 24.9054 32.802 24.9682 32.6596C24.8691 32.7441 24.7997 32.7987 24.7303 32.8584ZM29.4939 38.4594C29.5237 38.4892 29.5484 38.514 29.5782 38.5438C29.6129 38.519 29.6476 38.4941 29.6823 38.4693C29.6377 38.4246 29.6079 38.3997 29.5831 38.3749C29.5534 38.4047 29.5237 38.4345 29.4939 38.4643V38.4594ZM26.1628 37.2666C26.1034 37.3262 26.0637 37.3511 26.0488 37.3908C26.0389 37.4107 26.0736 37.4455 26.0885 37.4753C26.1133 37.4555 26.148 37.4405 26.1579 37.4157C26.1728 37.3859 26.1579 37.3461 26.1579 37.2666H26.1628ZM18.4151 6.24991C18.4151 6.24991 18.3903 6.27476 18.3854 6.27973C18.3507 6.31949 18.2862 6.34931 18.3308 6.41889C18.3358 6.42883 18.3655 6.43877 18.3804 6.43877C18.4746 6.42883 18.425 6.35428 18.4349 6.30458C18.4349 6.29961 18.43 6.28967 18.4151 6.24991ZM19.9121 28.142C19.9121 28.142 19.9369 28.1668 19.9419 28.1718C19.9815 28.2066 20.0112 28.2712 20.0806 28.2265C20.0906 28.2215 20.1005 28.1917 20.1005 28.1768C20.0906 28.0824 20.0162 28.1321 19.9666 28.1221C19.9617 28.1221 19.9518 28.1271 19.9121 28.142ZM14.747 16.9549C14.747 16.9549 14.7767 16.9847 14.7817 16.9798C14.8312 16.9649 14.9006 17.0195 14.9254 16.935C14.9254 16.9201 14.9254 16.8903 14.9155 16.8853C14.8511 16.8257 14.8164 16.8853 14.7767 16.9251C14.7717 16.9301 14.7618 16.94 14.747 16.9549ZM11.4208 12.7256C11.3812 12.6908 11.3564 12.661 11.3267 12.6361L11.2374 12.7256C11.2672 12.7504 11.2969 12.7753 11.3316 12.8051C11.3564 12.7852 11.3812 12.7604 11.4208 12.7206V12.7256ZM34.6839 49.875C34.6839 49.875 34.7086 49.8552 34.7186 49.8502C34.7533 49.8104 34.8177 49.7806 34.778 49.711C34.7731 49.7011 34.7483 49.6912 34.7285 49.6912C34.6293 49.6961 34.6789 49.7757 34.669 49.8204C34.669 49.8303 34.669 49.8353 34.6839 49.875ZM8.0154 46.8584C7.99558 46.9081 7.97079 46.9329 7.97079 46.9627C7.97079 46.9776 8.02036 47.0075 8.02532 47.0075C8.0501 46.9876 8.07489 46.9627 8.0848 46.9379C8.0848 46.9279 8.05506 46.9031 8.0154 46.8633V46.8584ZM16.8041 8.76961C16.7595 8.73979 16.7397 8.70998 16.7099 8.70501C16.695 8.70501 16.6703 8.72986 16.6504 8.74973C16.6703 8.77458 16.6851 8.8044 16.7149 8.81931C16.7248 8.82428 16.7545 8.79943 16.8041 8.77458V8.76961ZM10.023 4.54526C9.98332 4.5055 9.95853 4.47071 9.94862 4.47568C9.91888 4.48562 9.89409 4.51047 9.87922 4.53532C9.87922 4.54029 9.90896 4.58999 9.92383 4.58999C9.95358 4.58999 9.97836 4.57011 10.0279 4.54526H10.023ZM31.2883 22.4963C31.3131 22.4515 31.3429 22.4168 31.3329 22.4068C31.3181 22.382 31.2883 22.3671 31.2636 22.3472C31.2487 22.3671 31.2189 22.3919 31.2189 22.4068C31.2239 22.4366 31.2536 22.4565 31.2834 22.5012L31.2883 22.4963ZM26.5693 37.9823C26.5495 38.032 26.5247 38.0568 26.5247 38.0866C26.5247 38.1015 26.5743 38.1313 26.5792 38.1313C26.604 38.1115 26.6288 38.0866 26.6387 38.0618C26.6387 38.0518 26.609 38.027 26.5693 37.9872V37.9823ZM12.7642 5.41995C12.7642 5.41995 12.7394 5.43486 12.7245 5.43983C12.7295 5.4945 12.7394 5.54917 12.7443 5.61874C12.789 5.57402 12.8137 5.54917 12.8187 5.5442C12.7989 5.50444 12.779 5.46468 12.7592 5.42492L12.7642 5.41995ZM11.2523 41.3816C11.2771 41.3369 11.3068 41.3021 11.2969 41.2922C11.282 41.2673 11.2523 41.2524 11.2275 41.2325C11.2126 41.2524 11.1829 41.2772 11.1829 41.2922C11.1879 41.322 11.2176 41.3419 11.2473 41.3866L11.2523 41.3816ZM26.9113 18.2471C26.8717 18.2073 26.8469 18.1725 26.837 18.1775C26.8072 18.1874 26.7825 18.2123 26.7676 18.2371C26.7676 18.2421 26.7973 18.2918 26.8122 18.2918C26.8419 18.2918 26.8667 18.2719 26.9163 18.2471H26.9113ZM44.0476 7.24388C44.0872 7.20412 44.1219 7.17927 44.117 7.16933C44.107 7.13951 44.0823 7.11466 44.0575 7.09975C44.0525 7.09975 44.0029 7.12957 44.0029 7.14448C44.0029 7.1743 44.0228 7.19915 44.0476 7.24885V7.24388ZM27.2385 37.3312C27.184 37.2865 27.1641 37.197 27.06 37.2616C27.1146 37.3064 27.1344 37.3958 27.2385 37.3312ZM43.0413 7.47746C43.0215 7.52716 42.9967 7.55201 42.9967 7.58183C42.9967 7.59674 43.0462 7.62655 43.0512 7.62655C43.076 7.60667 43.1008 7.58183 43.1107 7.55698C43.1107 7.54704 43.0809 7.52219 43.0413 7.48243V7.47746ZM46.1394 46.4359C46.1394 46.4359 46.1543 46.4608 46.1592 46.4757C46.2137 46.4707 46.2683 46.4608 46.3377 46.4558C46.2931 46.4111 46.2683 46.3862 46.2633 46.3813C46.2237 46.4011 46.184 46.421 46.1394 46.4409V46.4359ZM34.3418 14.7881C34.2972 14.7583 34.2774 14.7284 34.2476 14.7235C34.2328 14.7235 34.208 14.7483 34.1882 14.7682C34.208 14.793 34.2229 14.8229 34.2526 14.8378C34.2625 14.8427 34.2923 14.8179 34.3418 14.793V14.7881ZM12.9525 14.9869C12.9327 15.0366 12.9079 15.0614 12.9079 15.0912C12.9079 15.1061 12.9575 15.136 12.9625 15.136C12.9872 15.1161 13.012 15.0912 13.0219 15.0664C13.0219 15.0564 12.9922 15.0316 12.9525 14.9918V14.9869ZM36.5576 16.6518C36.5378 16.7015 36.513 16.7263 36.513 16.7561C36.513 16.771 36.5625 16.8009 36.5675 16.8009C36.5923 16.781 36.6171 16.7561 36.627 16.7313C36.627 16.7213 36.5972 16.6965 36.5576 16.6567V16.6518ZM42.4266 42.6738C42.4415 42.7086 42.4613 42.7483 42.4762 42.7781C42.5258 42.7384 42.5555 42.7135 42.6051 42.6738H42.4316H42.4266ZM34.7384 53.4136C34.7086 53.4583 34.6789 53.4782 34.6739 53.508C34.6739 53.5229 34.6987 53.5478 34.7186 53.5676C34.7433 53.5478 34.7731 53.5328 34.788 53.508C34.7929 53.4981 34.7681 53.4682 34.7433 53.4185L34.7384 53.4136ZM18.3061 6.00142C18.3308 5.89705 18.2912 5.88214 18.2218 5.91196C18.2466 5.93681 18.2763 5.9716 18.3061 6.00142ZM12.2239 17.0394C12.1892 17.0742 12.1594 17.104 12.1049 17.1637C12.2338 17.1637 12.2833 17.1487 12.2239 17.0394ZM45.5495 52.524C45.5495 52.524 45.5644 52.5438 45.5693 52.5438C45.5941 52.5438 45.6288 52.5538 45.6437 52.5389C45.6586 52.524 45.6586 52.4892 45.6635 52.4643C45.6387 52.4693 45.609 52.4743 45.5842 52.4892C45.5693 52.4941 45.5594 52.514 45.5495 52.5289V52.524ZM34.4806 52.6333C34.441 52.6532 34.4013 52.6681 34.3418 52.6979C34.4657 52.7426 34.5104 52.7277 34.4806 52.6333ZM28.6116 19.4448C28.5868 19.5492 28.6264 19.5641 28.6958 19.5343C28.6711 19.5094 28.6413 19.4746 28.6116 19.4448ZM14.6379 40.3479C14.6379 40.3479 14.6379 40.3827 14.6429 40.4026C14.6924 40.3926 14.747 40.3877 14.7965 40.3777C14.7965 40.3678 14.7965 40.3578 14.7965 40.3479H14.6379ZM31.6948 44.5822V44.612H31.8138V44.5822H31.6948ZM13.3838 40.3529V40.3827H13.5028V40.3529H13.3838ZM43.884 55.3965C43.884 55.3965 43.8641 55.3518 43.8542 55.3518C43.8294 55.3518 43.8047 55.3617 43.7749 55.3717C43.7848 55.3866 43.7898 55.4065 43.7997 55.4065C43.8245 55.4065 43.8542 55.4015 43.884 55.3965ZM41.8764 42.2414H41.9061V42.1221H41.8764V42.2414ZM14.8461 21.5769C14.8461 21.5769 14.8213 21.5918 14.8064 21.5967C14.8114 21.6017 14.8213 21.6166 14.8263 21.6166C14.8411 21.6166 14.8511 21.6067 14.8659 21.5967L14.8461 21.5769ZM21.8156 27.2673C21.8156 27.2673 21.8007 27.2425 21.7958 27.2275C21.7908 27.2325 21.7759 27.2425 21.7759 27.2474C21.7759 27.2623 21.7858 27.2723 21.7958 27.2872C21.8007 27.2822 21.8106 27.2723 21.8156 27.2673ZM25.102 35.2339C25.102 35.2339 25.1169 35.2588 25.1219 35.2737C25.1268 35.2687 25.1417 35.2588 25.1417 35.2538C25.1417 35.2389 25.1318 35.229 25.1219 35.2141C25.1169 35.219 25.107 35.229 25.102 35.2339ZM15.1039 36.6106C15.1039 36.6106 15.089 36.5907 15.084 36.5907C15.0692 36.5907 15.0592 36.6006 15.0444 36.6106C15.0493 36.6156 15.0592 36.6305 15.0642 36.6305C15.0791 36.6305 15.089 36.6205 15.1039 36.6106ZM35.2539 53.9602C35.2539 53.9602 35.239 53.9354 35.2341 53.9205C35.2291 53.9255 35.2143 53.9354 35.2143 53.9404C35.2143 53.9553 35.2242 53.9652 35.2341 53.9801C35.239 53.9752 35.249 53.9652 35.2539 53.9602ZM28.1655 37.1125C28.1655 37.1125 28.1803 37.0976 28.1853 37.0927C28.1704 37.0877 28.1605 37.0777 28.1456 37.0728C28.1456 37.0728 28.1308 37.0827 28.1258 37.0927C28.1407 37.0976 28.1506 37.1076 28.1655 37.1125Z" fill="#EEF0FF"/>
</svg>
